{
.appVersion = "3222";
DisplayStrings = (
"/eng"
);
classes = (
{
code = "alef-hb bet-hb gimel-hb dalet-hb he-hb vav-hb zayin-hb het-hb tet-hb yod-hb finalkaf-hb kaf-hb lamed-hb finalmem-hb mem-hb finalnun-hb nun-hb samekh-hb ayin-hb finalpe-hb pe-hb finaltsadi-hb tsadi-hb qof-hb resh-hb shin-hb tav-hb";
name = HebrewLetters;
},
{
automatic = 1;

glyphs = (
{
color = 6;
glyphname = A;
layers = (
{
anchors = (
{
name = bottom;
position = "{378, 0}";
},
{
name = ogonek;
position = "{700, 122}";
},
{
name = top;
position = "{378, 700}";
}
);
layerId = "EC64484B-0978-4CB1-9EE9-C40A2D8C4059";
paths = (
{
closed = 1;
nodes = (
"207 0 LINE SMOOTH",
"233 0 OFFCURVE",
"242 14 OFFCURVE",
"246 25 CURVE SMOOTH",
"270 91 LINE",
"485 91 LINE",
"509 25 LINE SMOOTH",
"513 14 OFFCURVE",
"522 0 OFFCURVE",
"548 0 CURVE SMOOTH",
"733 0 LINE SMOOTH",
"745 0 OFFCURVE",
"755 10 OFFCURVE",
"755 22 CURVE SMOOTH",
"755 24 OFFCURVE",
"755 26 OFFCURVE",
"754 29 CURVE SMOOTH",
"531 667 LINE",
"527 682 OFFCURVE",
"513 700 OFFCURVE",
"486 700 CURVE SMOOTH",
"269 700 LINE SMOOTH",
"242 700 OFFCURVE",
"228 682 OFFCURVE",
"224 667 CURVE",
"1 29 LINE SMOOTH",
"0 26 OFFCURVE",
"0 24 OFFCURVE",
"0 22 CURVE SMOOTH",
"0 10 OFFCURVE",
"10 0 OFFCURVE",
"22 0 CURVE SMOOTH"
);
},
{
closed = 1;
nodes = (
"377 472 LINE",
"434 286 LINE",
"321 286 LINE"
);
}
);
width = 755;
}
);
leftKerningGroup = A;
rightKerningGroup = A;
unicode = 0041;
userData = {
com.typemytype.robofont.guides = (
{
angle = 0;
isGlobal = 0;
magnetic = 5;
x = 0;
y = 680;
},
{
angle = 90;
isGlobal = 0;
magnetic = 5;
x = 35;
y = 0;
},
{
angle = 90;
isGlobal = 0;
magnetic = 5;
x = 637;
y = 0;
},
{
angle = 90;
isGlobal = 0;
magnetic = 5;
x = 336;
y = 0;
}
);
};
},
{
color = 6;
glyphname = Aogonek;
layers = (
{
hints = (
{
horizontal = 1;
place = "{0, 0}";
type = Tag;
}
);
layerId = "EC64484B-0978-4CB1-9EE9-C40A2D8C4059";
paths = (
{
closed = 1;
nodes = (
"718 -220 LINE SMOOTH",
"733 -220 OFFCURVE",
"745 -208 OFFCURVE",
"745 -193 CURVE SMOOTH",
"745 -125 LINE SMOOTH",
"745 -110 OFFCURVE",
"733 -98 OFFCURVE",
"718 -98 CURVE SMOOTH",
"708 -98 LINE SMOOTH",
"669 -98 OFFCURVE",
"658 -70 OFFCURVE",
"658 -49 CURVE SMOOTH",
"658 -29 OFFCURVE",
"668 -2 OFFCURVE",
"702 0 CURVE",
"733 0 LINE SMOOTH",
"745 0 OFFCURVE",
"755 10 OFFCURVE",
"755 22 CURVE SMOOTH",
"755 24 OFFCURVE",
"755 26 OFFCURVE",
"754 29 CURVE SMOOTH",
"531 667 LINE",
"527 682 OFFCURVE",
"513 700 OFFCURVE",
"486 700 CURVE SMOOTH",
"269 700 LINE SMOOTH",
"242 700 OFFCURVE",
"228 682 OFFCURVE",
"224 667 CURVE",
"1 29 LINE SMOOTH",
"0 26 OFFCURVE",
"0 24 OFFCURVE",
"0 22 CURVE SMOOTH",
"0 10 OFFCURVE",
"10 0 OFFCURVE",
"22 0 CURVE SMOOTH",
"207 0 LINE SMOOTH",
"233 0 OFFCURVE",
"242 14 OFFCURVE",
"246 25 CURVE SMOOTH",
"270 91 LINE",
"485 91 LINE",
"509 25 LINE SMOOTH",
"512 15 OFFCURVE",
"519 3 OFFCURVE",
"537 0 CURVE",
"534 -15 OFFCURVE",
"532 -31 OFFCURVE",
"532 -49 CURVE SMOOTH",
"532 -144 OFFCURVE",
"583 -220 OFFCURVE",
"704 -220 CURVE SMOOTH"
);
},
{
closed = 1;
nodes = (
"377 472 LINE",
"434 286 LINE",
"321 286 LINE"
);
}
);
width = 755;
}
);
leftKerningGroup = A;
rightKerningGroup = A;
unicode = 0104;
},
{
color = 6;
glyphname = AE;
layers = (
{
anchors = (
{
name = bottom;
position = "{503, 0}";
},
{
name = top;
position = "{503, 700}";
}
);
layerId = "EC64484B-0978-4CB1-9EE9-C40A2D8C4059";
paths = (
{
closed = 1;
nodes = (
"211 0 LINE SMOOTH",
"237 0 OFFCURVE",
"246 14 OFFCURVE",
"250 25 CURVE SMOOTH",
"258 47 OFFCURVE",
"266 69 OFFCURVE",
"274 91 CURVE",
"423 91 LINE",
"423 27 LINE SMOOTH",
"423 12 OFFCURVE",
"435 0 OFFCURVE",
"450 0 CURVE SMOOTH",
"941 0 LINE SMOOTH",
"956 0 OFFCURVE",
"968 12 OFFCURVE",
"968 27 CURVE SMOOTH",
"968 168 LINE SMOOTH",
"968 183 OFFCURVE",
"956 195 OFFCURVE",
"941 195 CURVE SMOOTH",
"663 195 LINE",
"663 258 LINE",
"911 258 LINE SMOOTH",
"926 258 OFFCURVE",
"938 270 OFFCURVE",
"938 285 CURVE SMOOTH",
"938 415 LINE SMOOTH",
"938 430 OFFCURVE",
"926 442 OFFCURVE",
"911 442 CURVE SMOOTH",
"663 442 LINE",
"663 505 LINE",
"933 505 LINE SMOOTH",
"948 505 OFFCURVE",
"960 517 OFFCURVE",
"960 532 CURVE SMOOTH",
"960 673 LINE SMOOTH",
"960 688 OFFCURVE",
"948 700 OFFCURVE",
"933 700 CURVE SMOOTH",
"273 700 LINE SMOOTH",
"246 700 OFFCURVE",
"232 682 OFFCURVE",
"228 667 CURVE",
"154 454 OFFCURVE",
"79 242 OFFCURVE",
"5 29 CURVE SMOOTH",
"4 26 OFFCURVE",
"4 24 OFFCURVE",
"4 22 CURVE SMOOTH",
"4 10 OFFCURVE",
"14 0 OFFCURVE",
"26 0 CURVE SMOOTH"
);
},
{
closed = 1;
nodes = (
"391 505 LINE",
"423 505 LINE",
"423 286 LINE",
"325 286 LINE"
);
}
);
width = 1005;
}
);
leftKerningGroup = AE;
rightKerningGroup = E;
unicode = 00C6;
userData = {
com.typemytype.robofont.guides = (
{
angle = 0;
isGlobal = 0;
magnetic = 5;
x = 0;
y = 505;
},
{
angle = 90;
isGlobal = 0;
magnetic = 5;
x = 431;
y = 0;
}
);
};
},
{
color = 6;
glyphname = B;
layers = (
{
anchors = (
{
name = bottom;
position = "{367, 0}";
},
{
name = top;
position = "{367, 700}";
}
);
hints = (
{
horizontal = 1;
place = "{0, 0}";
type = Tag;
}
);
layerId = "EC64484B-0978-4CB1-9EE9-C40A2D8C4059";
paths = (
{
closed = 1;
nodes = (
"424 0 LINE SMOOTH",
"605 0 OFFCURVE",
"706 70 OFFCURVE",
"706 220 CURVE SMOOTH",
"706 286 OFFCURVE",
"662 344 OFFCURVE",
"611 365 CURVE",
"643 381 OFFCURVE",
"691 426 OFFCURVE",
"691 490 CURVE SMOOTH",
"691 630 OFFCURVE",
"605 700 OFFCURVE",
"414 700 CURVE SMOOTH",
"82 700 LINE SMOOTH",
"67 700 OFFCURVE",
"55 688 OFFCURVE",
"55 673 CURVE SMOOTH",
"55 27 LINE SMOOTH",
"55 12 OFFCURVE",
"67 0 OFFCURVE",
"82 0 CURVE SMOOTH"
);
},
{
closed = 1;
nodes = (
"305 270 LINE",
"398 270 LINE SMOOTH",
"428 270 OFFCURVE",
"444 245 OFFCURVE",
"444 221 CURVE SMOOTH",
"444 199 OFFCURVE",
"431 172 OFFCURVE",
"398 172 CURVE SMOOTH",
"305 172 LINE"
);
},
{
closed = 1;
nodes = (
"305 528 LINE",
"389 528 LINE SMOOTH",
"418 528 OFFCURVE",
"430 503 OFFCURVE",
"430 482 CURVE SMOOTH",
"430 461 OFFCURVE",
"418 437 OFFCURVE",
"389 437 CURVE SMOOTH",
"305 437 LINE"
);
}
);
width = 734;
}
);
leftKerningGroup = I;
unicode = 0042;
userData = {
com.typemytype.robofont.guides = (
{
angle = 0;
isGlobal = 0;
magnetic = 5;
x = 0;
y = 271;
},
{
angle = 0;
isGlobal = 0;
magnetic = 5;
x = 0;
y = 437;
},
{
angle = 0;
isGlobal = 0;
magnetic = 5;
x = 0;
y = 521;
},
{
angle = 0;
isGlobal = 0;
magnetic = 5;
x = 0;
y = 198;
},
{
angle = 0;
isGlobal = 0;
magnetic = 5;
x = 0;
y = 9;
},
{
angle = 90;
isGlobal = 0;
magnetic = 5;
x = 355;
y = 0;
},
{
angle = 90;
isGlobal = 0;
magnetic = 5;
x = 583;
y = 0;
},
{
angle = 90;
isGlobal = 0;
magnetic = 5;
x = 94;
y = 0;
}
);
};
},
{
color = 6;
glyphname = C;
layers = (
{
anchors = (
{
name = bottom;
position = "{367, 0}";
},
{
name = top;
position = "{367, 700}";
}
);
layerId = "EC64484B-0978-4CB1-9EE9-C40A2D8C4059";
paths = (
{
closed = 1;
nodes = (
"542 -10 OFFCURVE",
"706 64 OFFCURVE",
"709 246 CURVE SMOOTH",
"709 258 OFFCURVE",
"699 268 OFFCURVE",
"687 268 CURVE",
"483 268 LINE",
"461 268 OFFCURVE",
"453 262 OFFCURVE",
"446 239 CURVE SMOOTH",
"433 199 OFFCURVE",
"405 185 OFFCURVE",
"371 185 CURVE SMOOTH",
"327 185 OFFCURVE",
"299 205 OFFCURVE",
"297 266 CURVE SMOOTH",
"295 323 OFFCURVE",
"295 379 OFFCURVE",
"297 434 CURVE",
"299 495 OFFCURVE",
"327 515 OFFCURVE",
"371 515 CURVE SMOOTH",
"405 515 OFFCURVE",
"431 504 OFFCURVE",
"446 461 CURVE SMOOTH",
"454 439 OFFCURVE",
"461 432 OFFCURVE",
"483 432 CURVE",
"687 432 LINE",
"699 432 OFFCURVE",
"709 442 OFFCURVE",
"709 454 CURVE SMOOTH",
"706 636 OFFCURVE",
"542 710 OFFCURVE",
"372 710 CURVE SMOOTH",
"185 710 OFFCURVE",
"45 625 OFFCURVE",
"37 439 CURVE",
"35 382 OFFCURVE",
"35 315 OFFCURVE",
"37 261 CURVE",
"45 70 OFFCURVE",
"180 -10 OFFCURVE",
"372 -10 CURVE SMOOTH"
);
}
);
width = 733;
}
);
leftKerningGroup = O;
rightKerningGroup = C;
unicode = 0043;
userData = {
com.typemytype.robofont.guides = (
{
angle = 0;
isGlobal = 0;
magnetic = 5;
x = 0;
y = 434;
},
{
angle = 0;
isGlobal = 0;
magnetic = 5;
x = 0;
y = 266;
},
{
angle = 0;
isGlobal = 0;
magnetic = 5;
x = 0;
y = 710;
},
{
angle = 0;
isGlobal = 0;
magnetic = 5;
x = 0;
y = "-10";
},
{
angle = 90;
isGlobal = 0;
magnetic = 5;
x = 599;
y = 0;
},
{
angle = 90;
isGlobal = 0;
magnetic = 5;
x = 209;
y = 0;
},
{
angle = 90;
isGlobal = 0;
magnetic = 5;
x = 149;
y = 0;
},
{
angle = 90;
isGlobal = 0;
magnetic = 5;
x = 332;
y = 0;
}
);
};
},
{
color = 6;
glyphname = Ccedilla;
layers = (
{
hints = (
{
horizontal = 1;
place = "{0, 0}";
type = Tag;
}
);
layerId = "EC64484B-0978-4CB1-9EE9-C40A2D8C4059";
paths = (
{
closed = 1;
nodes = (
"426 -220 OFFCURVE",
"465 -183 OFFCURVE",
"465 -130 CURVE SMOOTH",
"465 -77 OFFCURVE",
"435 -40 OFFCURVE",
"384 -40 CURVE SMOOTH",
"380 -40 OFFCURVE",
"362 -42 OFFCURVE",
"354 -45 CURVE",
"372 -10 LINE",
"542 -10 OFFCURVE",
"706 64 OFFCURVE",
"709 246 CURVE SMOOTH",
"709 258 OFFCURVE",
"699 268 OFFCURVE",
"687 268 CURVE",
"483 268 LINE",
"461 268 OFFCURVE",
"453 262 OFFCURVE",
"446 239 CURVE SMOOTH",
"433 199 OFFCURVE",
"405 185 OFFCURVE",
"371 185 CURVE SMOOTH",
"327 185 OFFCURVE",
"299 205 OFFCURVE",
"297 266 CURVE SMOOTH",
"295 323 OFFCURVE",
"295 379 OFFCURVE",
"297 434 CURVE SMOOTH",
"299 495 OFFCURVE",
"327 515 OFFCURVE",
"371 515 CURVE SMOOTH",
"405 515 OFFCURVE",
"431 504 OFFCURVE",
"446 461 CURVE SMOOTH",
"454 439 OFFCURVE",
"461 432 OFFCURVE",
"483 432 CURVE",
"687 432 LINE",
"699 432 OFFCURVE",
"709 442 OFFCURVE",
"709 454 CURVE SMOOTH",
"706 636 OFFCURVE",
"542 710 OFFCURVE",
"372 710 CURVE SMOOTH",
"185 710 OFFCURVE",
"45 625 OFFCURVE",
"37 439 CURVE SMOOTH",
"35 382 OFFCURVE",
"35 315 OFFCURVE",
"37 261 CURVE SMOOTH",
"44 91 OFFCURVE",
"151 10 OFFCURVE",
"309 -6 CURVE",
"289 -52 LINE",
"280 -71 OFFCURVE",
"282 -76 OFFCURVE",
"291 -85 CURVE",
"312 -106 LINE",
"325 -119 OFFCURVE",
"348 -106 OFFCURVE",
"366 -106 CURVE SMOOTH",
"386 -106 OFFCURVE",
"394 -118 OFFCURVE",
"394 -130 CURVE SMOOTH",
"394 -142 OFFCURVE",
"385 -154 OFFCURVE",
"366 -154 CURVE SMOOTH",
"332 -154 OFFCURVE",
"327 -136 OFFCURVE",
"310 -151 CURVE",
"289 -169 LINE",
"266 -189 OFFCURVE",
"313 -220 OFFCURVE",
"366 -220 CURVE SMOOTH"
);
}
);
width = 733;
}
);
leftKerningGroup = O;
rightKerningGroup = C;
unicode = 00C7;
userData = {
com.typemytype.robofont.guides = (
{
angle = 0;
isGlobal = 0;
magnetic = 5;
x = 0;
y = "-174";
},
{
angle = 0;
isGlobal = 0;
magnetic = 5;
x = 0;
y = "-220";
},
{
angle = 0;
isGlobal = 0;
magnetic = 5;
x = 0;
y = "-96";
},
{
angle = 0;
isGlobal = 0;
magnetic = 5;
x = 0;
y = "-50";
},
{
angle = 0;
isGlobal = 0;
magnetic = 5;
x = 0;
y = "-135";
},
{
angle = 90;
isGlobal = 0;
magnetic = 5;
x = 331;
y = 0;
},
{
angle = 90;
isGlobal = 0;
magnetic = 5;
x = 342;
y = 0;
}
);
};
},
{
color = 6;
glyphname = D;
layers = (
{
anchors = (
{
name = bottom;
position = "{370, 0}";
},
{
name = center;
position = "{370, 350}";
},
{
name = top;
position = "{364, 700}";
}
);
hints = (
{
horizontal = 1;
place = "{0, 0}";
type = Tag;
}
);
layerId = "EC64484B-0978-4CB1-9EE9-C40A2D8C4059";
paths = (
{
closed = 1;
nodes = (
"375 0 LINE SMOOTH",
"566 0 OFFCURVE",
"696 87 OFFCURVE",
"704 276 CURVE SMOOTH",
"706 330 OFFCURVE",
"706 368 OFFCURVE",
"704 425 CURVE SMOOTH",
"697 604 OFFCURVE",
"557 700 OFFCURVE",
"370 700 CURVE",
"82 700 LINE SMOOTH",
"67 700 OFFCURVE",
"55 688 OFFCURVE",
"55 673 CURVE SMOOTH",
"55 27 LINE SMOOTH",
"55 12 OFFCURVE",
"67 0 OFFCURVE",
"82 0 CURVE SMOOTH"
);
},
{
closed = 1;
nodes = (
"305 505 LINE",
"365 505 LINE SMOOTH",
"410 505 OFFCURVE",
"447 481 OFFCURVE",
"450 425 CURVE SMOOTH",
"453 370 OFFCURVE",
"453 333 OFFCURVE",
"450 276 CURVE SMOOTH",
"447 220 OFFCURVE",
"414 195 OFFCURVE",
"370 195 CURVE SMOOTH",
"305 195 LINE"
);
}
);
width = 740;
}
);
leftKerningGroup = I;
rightKerningGroup = D;
unicode = 0044;
userData = {
com.typemytype.robofont.guides = (
{
angle = 0;
isGlobal = 0;
magnetic = 5;
x = 0;
y = 425;
},
{
angle = 0;
isGlobal = 0;
magnetic = 5;
x = 0;
y = 276;
},
{
angle = 0;
isGlobal = 0;
magnetic = 5;
x = 0;
y = 9;
},
{
angle = 90;
isGlobal = 0;
magnetic = 5;
x = 320;
y = 0;
},
{
angle = 90;
isGlobal = 0;
magnetic = 5;
x = 603;
y = 0;
},
{
angle = 90;
isGlobal = 0;
magnetic = 5;
x = 94;
y = 0;
}
);
};
},
{
color = 6;
glyphname = Dcroat;
layers = (
{
hints = (
{
horizontal = 1;
place = "{0, 0}";
type = Tag;
}
);
layerId = "EC64484B-0978-4CB1-9EE9-C40A2D8C4059";
paths = (
{
closed = 1;
nodes = (
"395 0 LINE SMOOTH",
"586 0 OFFCURVE",
"720 87 OFFCURVE",
"728 276 CURVE SMOOTH",
"730 330 OFFCURVE",
"730 368 OFFCURVE",
"728 425 CURVE SMOOTH",
"721 604 OFFCURVE",
"581 700 OFFCURVE",
"394 700 CURVE",
"106 700 LINE SMOOTH",
"91 700 OFFCURVE",
"79 688 OFFCURVE",
"79 673 CURVE SMOOTH",
"79 430 LINE",
"41 430 LINE SMOOTH",
"26 430 OFFCURVE",
"14 418 OFFCURVE",
"14 403 CURVE SMOOTH",
"14 302 LINE SMOOTH",
"14 287 OFFCURVE",
"26 275 OFFCURVE",
"41 275 CURVE SMOOTH",
"79 275 LINE",
"79 27 LINE SMOOTH",
"79 12 OFFCURVE",
"91 0 OFFCURVE",
"106 0 CURVE SMOOTH"
);
},
{
closed = 1;
nodes = (
"329 275 LINE",
"385 275 LINE SMOOTH",
"400 275 OFFCURVE",
"412 287 OFFCURVE",
"412 302 CURVE SMOOTH",
"412 403 LINE SMOOTH",
"412 418 OFFCURVE",
"400 430 OFFCURVE",
"385 430 CURVE SMOOTH",
"329 430 LINE",
"329 505 LINE",
"394 505 LINE SMOOTH",
"439 505 OFFCURVE",
"471 481 OFFCURVE",
"474 425 CURVE SMOOTH",
"477 370 OFFCURVE",
"477 333 OFFCURVE",
"474 276 CURVE SMOOTH",
"471 220 OFFCURVE",
"438 195 OFFCURVE",
"394 195 CURVE SMOOTH",
"329 195 LINE"
);
}
);
width = 764;
}
);
leftKerningGroup = I;
rightKerningGroup = D;
unicode = 0110;
userData = {
com.typemytype.robofont.guides = (
{
angle = 0;
isGlobal = 0;
magnetic = 5;
x = 0;
y = 352;
},
{
angle = 90;
isGlobal = 0;
magnetic = 5;
x = 340;
y = 0;
},
{
angle = 90;
isGlobal = 0;
magnetic = 5;
x = 105;
y = 0;
}
);
};
},
{
color = 6;
glyphname = Eth;
layers = (
{
hints = (
{
horizontal = 1;
place = "{0, 0}";
type = Tag;
}
);
layerId = "EC64484B-0978-4CB1-9EE9-C40A2D8C4059";
paths = (
{
closed = 1;
nodes = (
"395 0 LINE SMOOTH",
"586 0 OFFCURVE",
"729 87 OFFCURVE",
"729 276 CURVE SMOOTH",
"729 326 OFFCURVE",
"729 375 OFFCURVE",
"729 425 CURVE SMOOTH",
"729 604 OFFCURVE",
"581 700 OFFCURVE",
"394 700 CURVE SMOOTH",
"106 700 LINE SMOOTH",
"91 700 OFFCURVE",
"79 688 OFFCURVE",
"79 673 CURVE SMOOTH",
"79 429 LINE",
"41 429 LINE",
"26 429 OFFCURVE",
"14 417 OFFCURVE",
"14 402 CURVE SMOOTH",
"14 301 LINE SMOOTH",
"14 286 OFFCURVE",
"26 274 OFFCURVE",
"41 274 CURVE SMOOTH",
"79 274 LINE",
"79 27 LINE SMOOTH",
"79 12 OFFCURVE",
"91 0 OFFCURVE",
"106 0 CURVE SMOOTH"
);
},
{
closed = 1;
nodes = (
"329 274 LINE",
"385 274 LINE SMOOTH",
"400 274 OFFCURVE",
"412 286 OFFCURVE",
"412 301 CURVE SMOOTH",
"412 402 LINE SMOOTH",
"412 417 OFFCURVE",
"400 429 OFFCURVE",
"385 429 CURVE SMOOTH",
"329 429 LINE",
"329 505 LINE",
"394 505 LINE SMOOTH",
"439 505 OFFCURVE",
"469 481 OFFCURVE",
"469 425 CURVE SMOOTH",
"469 375 OFFCURVE",
"469 326 OFFCURVE",
"469 276 CURVE SMOOTH",
"469 220 OFFCURVE",
"438 195 OFFCURVE",
"394 195 CURVE SMOOTH",
"329 195 LINE"
);
}
);
width = 766;
}
);
leftKerningGroup = I;
rightKerningGroup = D;
unicode = 00D0;
userData = {
com.typemytype.robofont.guides = (
{
angle = 0;
isGlobal = 0;
magnetic = 5;
x = 0;
y = 350;
}
);
};
},
{
color = 6;
glyphname = E;
layers = (
{
anchors = (
{
name = bottom;
position = "{334, 0}";
},
{
name = ogonek;
position = "{626, 122}";
},
{
name = top;
position = "{334, 700}";
},
{
name = topleft;
position = "{20, 700}";
}
);
layerId = "EC64484B-0978-4CB1-9EE9-C40A2D8C4059";
paths = (
{
closed = 1;
nodes = (
"603 0 LINE SMOOTH",
"618 0 OFFCURVE",
"630 12 OFFCURVE",
"630 27 CURVE SMOOTH",
"630 168 LINE SMOOTH",
"630 183 OFFCURVE",
"618 195 OFFCURVE",
"603 195 CURVE SMOOTH",
"295 195 LINE",
"295 258 LINE",
"573 258 LINE SMOOTH",
"588 258 OFFCURVE",
"600 270 OFFCURVE",
"600 285 CURVE SMOOTH",
"600 415 LINE SMOOTH",
"600 430 OFFCURVE",
"588 442 OFFCURVE",
"573 442 CURVE SMOOTH",
"295 442 LINE",
"295 505 LINE",
"595 505 LINE SMOOTH",
"610 505 OFFCURVE",
"622 517 OFFCURVE",
"622 532 CURVE SMOOTH",
"622 673 LINE SMOOTH",
"622 688 OFFCURVE",
"610 700 OFFCURVE",
"595 700 CURVE SMOOTH",
"82 700 LINE SMOOTH",
"67 700 OFFCURVE",
"55 688 OFFCURVE",
"55 673 CURVE SMOOTH",
"55 27 LINE SMOOTH",
"55 12 OFFCURVE",
"67 0 OFFCURVE",
"82 0 CURVE SMOOTH"
);
}
);
width = 667;
}
);
leftKerningGroup = I;
rightKerningGroup = E;
unicode = 0045;
userData = {
com.typemytype.robofont.guides = (
{
angle = 0;
isGlobal = 0;
magnetic = 5;
x = 0;
y = 334;
},
{
angle = 0;
isGlobal = 0;
magnetic = 5;
x = 0;
y = 9;
},
{
angle = 0;
isGlobal = 0;
magnetic = 5;
x = 0;
y = 376;
},
{
angle = 0;
isGlobal = 0;
magnetic = 5;
x = 0;
y = 691;
},
{
angle = 0;
isGlobal = 0;
magnetic = 5;
x = 0;
y = 649;
},
{
angle = 90;
isGlobal = 0;
magnetic = 5;
x = 664;
y = 0;
},
{
angle = 90;
isGlobal = 0;
magnetic = 5;
x = 94;
y = 0;
},
{
angle = 90;
isGlobal = 0;
magnetic = 5;
x = 511;
y = 0;
}
);
};
},
{
color = 6;
glyphname = Eogonek;
layers = (
{
anchors = (
{
name = top;
position = "{334, 700}";
}
);
hints = (
{
horizontal = 1;
place = "{0, 0}";
type = Tag;
}
);
layerId = "EC64484B-0978-4CB1-9EE9-C40A2D8C4059";
paths = (
{
closed = 1;
nodes = (
"603 -220 LINE SMOOTH",
"618 -220 OFFCURVE",
"630 -208 OFFCURVE",
"630 -193 CURVE SMOOTH",
"630 -125 LINE SMOOTH",
"630 -110 OFFCURVE",
"618 -98 OFFCURVE",
"603 -98 CURVE SMOOTH",
"593 -98 LINE SMOOTH",
"554 -98 OFFCURVE",
"543 -70 OFFCURVE",
"543 -49 CURVE SMOOTH",
"543 -28 OFFCURVE",
"554 0 OFFCURVE",
"593 0 CURVE SMOOTH",
"603 0 LINE SMOOTH",
"618 0 OFFCURVE",
"630 12 OFFCURVE",
"630 27 CURVE SMOOTH",
"630 168 LINE SMOOTH",
"630 183 OFFCURVE",
"618 195 OFFCURVE",
"603 195 CURVE SMOOTH",
"295 195 LINE",
"295 258 LINE",
"573 258 LINE SMOOTH",
"588 258 OFFCURVE",
"600 270 OFFCURVE",
"600 285 CURVE SMOOTH",
"600 415 LINE SMOOTH",
"600 430 OFFCURVE",
"588 442 OFFCURVE",
"573 442 CURVE SMOOTH",
"295 442 LINE",
"295 505 LINE",
"595 505 LINE SMOOTH",
"610 505 OFFCURVE",
"622 517 OFFCURVE",
"622 532 CURVE SMOOTH",
"622 673 LINE SMOOTH",
"622 688 OFFCURVE",
"610 700 OFFCURVE",
"595 700 CURVE SMOOTH",
"82 700 LINE SMOOTH",
"67 700 OFFCURVE",
"55 688 OFFCURVE",
"55 673 CURVE SMOOTH",
"55 27 LINE SMOOTH",
"55 12 OFFCURVE",
"67 0 OFFCURVE",
"82 0 CURVE SMOOTH",
"422 0 LINE",
"419 -16 OFFCURVE",
"417 -31 OFFCURVE",
"417 -49 CURVE SMOOTH",
"417 -144 OFFCURVE",
"468 -220 OFFCURVE",
"589 -220 CURVE SMOOTH"
);
}
);
width = 667;
}
);
leftKerningGroup = I;
rightKerningGroup = E;
unicode = 0118;
userData = {
com.typemytype.robofont.guides = (
{
angle = 90;
isGlobal = 0;
magnetic = 5;
x = 355;
y = 0;
}
);
};
},
{
color = 6;
glyphname = F;
layers = (
{
anchors = (
{
name = bottom;
position = "{323, 0}";
},
{
name = top;
position = "{323, 700}";
}
);
hints = (
{
horizontal = 1;
place = "{0, 0}";
type = Tag;
}
);
layerId = "EC64484B-0978-4CB1-9EE9-C40A2D8C4059";
paths = (
{
closed = 1;
nodes = (
"273 0 LINE SMOOTH",
"288 0 OFFCURVE",
"300 12 OFFCURVE",
"300 27 CURVE SMOOTH",
"300 215 LINE",
"566 215 LINE SMOOTH",
"581 215 OFFCURVE",
"593 227 OFFCURVE",
"593 242 CURVE SMOOTH",
"593 393 LINE SMOOTH",
"593 408 OFFCURVE",
"581 420 OFFCURVE",
"566 420 CURVE SMOOTH",
"300 420 LINE",
"300 494 LINE",
"586 494 LINE SMOOTH",
"601 494 OFFCURVE",
"613 506 OFFCURVE",
"613 521 CURVE SMOOTH",
"613 673 LINE SMOOTH",
"613 688 OFFCURVE",
"601 700 OFFCURVE",
"586 700 CURVE SMOOTH",
"82 700 LINE SMOOTH",
"67 700 OFFCURVE",
"55 688 OFFCURVE",
"55 673 CURVE SMOOTH",
"55 27 LINE SMOOTH",
"55 12 OFFCURVE",
"67 0 OFFCURVE",
"82 0 CURVE SMOOTH"
);
}
);
width = 646;
}
);
leftKerningGroup = I;
unicode = 0046;
userData = {
com.typemytype.robofont.guides = (
{
angle = 0;
isGlobal = 0;
magnetic = 5;
x = 0;
y = 320;
},
{
angle = 0;
isGlobal = 0;
magnetic = 5;
x = 0;
y = 691;
},
{
angle = 0;
isGlobal = 0;
magnetic = 5;
x = 0;
y = 649;
},
{
angle = 0;
isGlobal = 0;
magnetic = 5;
x = 0;
y = 362;
},
{
angle = 0;
isGlobal = 0;
magnetic = 5;
x = 0;
y = 9;
},
{
angle = 90;
isGlobal = 0;
magnetic = 5;
x = 761;
y = 0;
},
{
angle = 90;
isGlobal = 0;
magnetic = 5;
x = 94;
y = 0;
},
{
angle = 90;
isGlobal = 0;
magnetic = 5;
x = 487;
y = 0;
},
{
angle = 90;
isGlobal = 0;
magnetic = 5;
x = 139;
y = 0;
}
);
};
},
{
color = 6;
glyphname = G;
layers = (
{
anchors = (
{
name = bottom;
position = "{377, 0}";
},
{
name = top;
position = "{377, 700}";
}
);
hints = (
{
horizontal = 1;
place = "{0, 0}";
type = Tag;
}
);
layerId = "EC64484B-0978-4CB1-9EE9-C40A2D8C4059";
paths = (
{
closed = 1;
nodes = (
"576 -10 OFFCURVE",
"718 85 OFFCURVE",
"718 265 CURVE SMOOTH",
"718 395 LINE SMOOTH",
"718 410 OFFCURVE",
"706 422 OFFCURVE",
"691 422 CURVE SMOOTH",
"416 422 LINE SMOOTH",
"401 422 OFFCURVE",
"389 410 OFFCURVE",
"389 395 CURVE SMOOTH",
"389 284 LINE SMOOTH",
"389 269 OFFCURVE",
"401 257 OFFCURVE",
"416 257 CURVE SMOOTH",
"463 257 LINE",
"463 256 LINE",
"463 205 OFFCURVE",
"428 185 OFFCURVE",
"378 185 CURVE SMOOTH",
"329 185 OFFCURVE",
"299 210 OFFCURVE",
"297 270 CURVE",
"295 327 OFFCURVE",
"295 385 OFFCURVE",
"297 440 CURVE",
"299 490 OFFCURVE",
"325 515 OFFCURVE",
"374 515 CURVE SMOOTH",
"423 515 OFFCURVE",
"438 486 OFFCURVE",
"446 476 CURVE SMOOTH",
"452 469 OFFCURVE",
"460 465 OFFCURVE",
"475 465 CURVE SMOOTH",
"696 465 LINE SMOOTH",
"708 465 OFFCURVE",
"718 475 OFFCURVE",
"718 487 CURVE SMOOTH",
"715 608 OFFCURVE",
"585 710 OFFCURVE",
"374 710 CURVE SMOOTH",
"177 710 OFFCURVE",
"44 622 OFFCURVE",
"37 445 CURVE",
"35 388 OFFCURVE",
"35 319 OFFCURVE",
"37 265 CURVE SMOOTH",
"45 79 OFFCURVE",
"172 -10 OFFCURVE",
"374 -10 CURVE SMOOTH"
);
}
);
width = 753;
}
);
leftKerningGroup = O;
rightKerningGroup = G;
unicode = 0047;
userData = {
com.typemytype.robofont.guides = (
{
angle = 0;
isGlobal = 0;
magnetic = 5;
x = 0;
y = "-10";
},
{
angle = 0;
isGlobal = 0;
magnetic = 5;
x = 0;
y = 260;
},
{
angle = 0;
isGlobal = 0;
magnetic = 5;
x = 0;
y = 440;
},
{
angle = 90;
isGlobal = 0;
magnetic = 5;
x = 334;
y = 0;
},
{
angle = 90;
isGlobal = 0;
magnetic = 5;
x = 133;
y = 0;
},
{
angle = 90;
isGlobal = 0;
magnetic = 5;
x = 604;
y = 0;
},
{
angle = 90;
isGlobal = 0;
magnetic = 5;
x = 67;
y = 0;
}
);
};
},
{
color = 6;
glyphname = H;
layers = (
{
anchors = (
{
name = bottom;
position = "{386, 0}";
},
{
name = center;
position = "{386, 350}";
},
{
name = top;
position = "{386, 700}";
},
{
name = topleft;
position = "{20, 700}";
}
);
layerId = "EC64484B-0978-4CB1-9EE9-C40A2D8C4059";
paths = (
{
closed = 1;
nodes = (
"278 0 LINE SMOOTH",
"293 0 OFFCURVE",
"305 12 OFFCURVE",
"305 27 CURVE SMOOTH",
"305 243 LINE",
"467 243 LINE",
"467 27 LINE SMOOTH",
"467 12 OFFCURVE",
"479 0 OFFCURVE",
"494 0 CURVE SMOOTH",
"690 0 LINE SMOOTH",
"705 0 OFFCURVE",
"717 12 OFFCURVE",
"717 27 CURVE SMOOTH",
"717 673 LINE SMOOTH",
"717 688 OFFCURVE",
"705 700 OFFCURVE",
"690 700 CURVE SMOOTH",
"494 700 LINE SMOOTH",
"479 700 OFFCURVE",
"467 688 OFFCURVE",
"467 673 CURVE SMOOTH",
"467 463 LINE",
"305 463 LINE",
"305 673 LINE SMOOTH",
"305 688 OFFCURVE",
"293 700 OFFCURVE",
"278 700 CURVE SMOOTH",
"82 700 LINE SMOOTH",
"67 700 OFFCURVE",
"55 688 OFFCURVE",
"55 673 CURVE SMOOTH",
"55 27 LINE SMOOTH",
"55 11 OFFCURVE",
"67 0 OFFCURVE",
"82 0 CURVE SMOOTH"
);
}
);
width = 772;
}
);
leftKerningGroup = I;
rightKerningGroup = I;
unicode = 0048;
userData = {
com.typemytype.robofont.guides = (
{
angle = 0;
isGlobal = 0;
magnetic = 5;
x = 0;
y = 350;
},
{
angle = 0;
isGlobal = 0;
magnetic = 5;
x = 0;
y = 9;
},
{
angle = 0;
isGlobal = 0;
magnetic = 5;
x = 0;
y = 691;
},
{
angle = 90;
isGlobal = 0;
magnetic = 5;
x = 94;
y = 0;
},
{
angle = 90;
isGlobal = 0;
magnetic = 5;
x = 139;
y = 0;
},
{
angle = 90;
isGlobal = 0;
magnetic = 5;
x = 543;
y = 0;
},
{
angle = 90;
isGlobal = 0;
magnetic = 5;
x = 588;
y = 0;
}
);
};
},
{
color = 3;
glyphname = Hbar;
layers = (
{
components = (
{
name = H;
}
);
hints = (
{
horizontal = 1;
place = "{0, 0}";
type = Tag;
}
);
layerId = "EC64484B-0978-4CB1-9EE9-C40A2D8C4059";
paths = (
{
closed = 1;
nodes = (
"682 521 LINE SMOOTH",
"697 521 OFFCURVE",
"709 533 OFFCURVE",
"709 548 CURVE SMOOTH",
"709 616 LINE SMOOTH",
"709 631 OFFCURVE",
"697 643 OFFCURVE",
"682 643 CURVE SMOOTH",
"88 643 LINE SMOOTH",
"73 643 OFFCURVE",
"61 631 OFFCURVE",
"61 616 CURVE SMOOTH",
"61 548 LINE SMOOTH",
"61 533 OFFCURVE",
"73 521 OFFCURVE",
"88 521 CURVE SMOOTH"
);
}
);
width = 772;
},
{
associatedMasterId = "EC64484B-0978-4CB1-9EE9-C40A2D8C4059";
color = 6;
hints = (
{
horizontal = 1;
place = "{0, 0}";
type = Tag;
}
);
layerId = "FF0B9B16-2378-4A37-8098-43DBF73F83A5";
name = "Bold Jan 19 16, 17:03";
paths = (
{
closed = 1;
nodes = (
"278 0 LINE SMOOTH",
"293 0 OFFCURVE",
"305 12 OFFCURVE",
"305 27 CURVE SMOOTH",
"305 243 LINE",
"467 243 LINE",
"467 27 LINE SMOOTH",
"467 12 OFFCURVE",
"479 0 OFFCURVE",
"494 0 CURVE SMOOTH",
"690 0 LINE SMOOTH",
"705 0 OFFCURVE",
"717 12 OFFCURVE",
"717 27 CURVE SMOOTH",
"717 673 LINE SMOOTH",
"717 688 OFFCURVE",
"705 700 OFFCURVE",
"690 700 CURVE SMOOTH",
"494 700 LINE",
"479 700 OFFCURVE",
"467 688 OFFCURVE",
"467 673 CURVE SMOOTH",
"467 644 LINE",
"305 644 LINE",
"305 673 LINE SMOOTH",
"305 688 OFFCURVE",
"293 700 OFFCURVE",
"278 700 CURVE SMOOTH",
"82 700 LINE SMOOTH",
"67 700 OFFCURVE",
"55 688 OFFCURVE",
"55 673 CURVE SMOOTH",
"55 27 LINE SMOOTH",
"55 11 OFFCURVE",
"67 0 OFFCURVE",
"82 0 CURVE SMOOTH"
);
},
{
closed = 1;
nodes = (
"305 519 LINE",
"467 519 LINE",
"467 463 LINE",
"305 463 LINE"
);
}
);
width = 772;
}
);
leftKerningGroup = I;
rightKerningGroup = I;
unicode = 0126;
},
{
color = 6;
glyphname = I;
layers = (
{
anchors = (
{
name = bottom;
position = "{184, 0}";
},
{
name = ogonek;
position = "{301, 122}";
},
{
name = top;
position = "{184, 700}";
},
{
name = topleft;
position = "{20, 700}";
}
);
layerId = "EC64484B-0978-4CB1-9EE9-C40A2D8C4059";
paths = (
{
closed = 1;
nodes = (
"286 0 LINE SMOOTH",
"301 0 OFFCURVE",
"313 12 OFFCURVE",
"313 27 CURVE SMOOTH",
"313 673 LINE SMOOTH",
"313 688 OFFCURVE",
"301 700 OFFCURVE",
"286 700 CURVE SMOOTH",
"82 700 LINE SMOOTH",
"67 700 OFFCURVE",
"55 688 OFFCURVE",
"55 673 CURVE SMOOTH",
"55 27 LINE SMOOTH",
"55 12 OFFCURVE",
"67 0 OFFCURVE",
"82 0 CURVE SMOOTH"
);
}
);
width = 368;
}
);
leftKerningGroup = I;
rightKerningGroup = I;
unicode = 0049;
userData = {
com.typemytype.robofont.guides = (
{
angle = 90;
isGlobal = 0;
magnetic = 5;
x = 85;
y = 0;
},
{
angle = 90;
isGlobal = 0;
magnetic = 5;
x = 148;
y = 0;
}
);
};
},
{
color = 6;
glyphname = IJ;
layers = (
{
hints = (
{
horizontal = 1;
place = "{0, 0}";
type = Tag;
}
);
layerId = "EC64484B-0978-4CB1-9EE9-C40A2D8C4059";
paths = (
{
closed = 1;
nodes = (
"628 -10 OFFCURVE",
"758 45 OFFCURVE",
"758 258 CURVE SMOOTH",
"758 673 LINE SMOOTH",
"758 688 OFFCURVE",
"746 700 OFFCURVE",
"731 700 CURVE SMOOTH",
"526 700 LINE SMOOTH",
"511 700 OFFCURVE",
"499 688 OFFCURVE",
"499 673 CURVE",
"499 298 LINE SMOOTH",
"499 227 OFFCURVE",
"476 205 OFFCURVE",
"420 205 CURVE SMOOTH",
"405 205 OFFCURVE",
"393 193 OFFCURVE",
"393 178 CURVE SMOOTH",
"393 17 LINE SMOOTH",
"393 2 OFFCURVE",
"405 -10 OFFCURVE",
"420 -10 CURVE SMOOTH"
);
},
{
closed = 1;
nodes = (
"286 0 LINE SMOOTH",
"301 0 OFFCURVE",
"313 12 OFFCURVE",
"313 27 CURVE SMOOTH",
"313 673 LINE SMOOTH",
"313 688 OFFCURVE",
"301 700 OFFCURVE",
"286 700 CURVE SMOOTH",
"82 700 LINE SMOOTH",
"67 700 OFFCURVE",
"55 688 OFFCURVE",
"55 673 CURVE SMOOTH",
"55 27 LINE SMOOTH",
"55 12 OFFCURVE",
"67 0 OFFCURVE",
"82 0 CURVE SMOOTH"
);
}
);
width = 807;
}
);
leftKerningGroup = I;
unicode = 0132;
userData = {
com.typemytype.robofont.guides = (
{
angle = 90;
isGlobal = 0;
magnetic = 5;
x = 642;
y = 0;
}
);
};
},
{
color = 6;
glyphname = Iogonek;
layers = (
{
hints = (
{
horizontal = 1;
place = "{0, 0}";
type = Tag;
}
);
layerId = "EC64484B-0978-4CB1-9EE9-C40A2D8C4059";
paths = (
{
closed = 1;
nodes = (
"286 -222 LINE SMOOTH",
"301 -222 OFFCURVE",
"313 -210 OFFCURVE",
"313 -195 CURVE SMOOTH",
"313 -127 LINE SMOOTH",
"313 -112 OFFCURVE",
"301 -100 OFFCURVE",
"286 -100 CURVE SMOOTH",
"276 -100 LINE",
"237 -100 OFFCURVE",
"226 -71 OFFCURVE",
"226 -50 CURVE SMOOTH",
"226 -29 OFFCURVE",
"237 0 OFFCURVE",
"276 0 CURVE SMOOTH",
"286 0 LINE SMOOTH",
"301 0 OFFCURVE",
"313 12 OFFCURVE",
"313 27 CURVE SMOOTH",
"313 673 LINE SMOOTH",
"313 688 OFFCURVE",
"301 700 OFFCURVE",
"286 700 CURVE SMOOTH",
"82 700 LINE SMOOTH",
"67 700 OFFCURVE",
"55 688 OFFCURVE",
"55 673 CURVE SMOOTH",
"55 27 LINE SMOOTH",
"55 12 OFFCURVE",
"67 0 OFFCURVE",
"82 0 CURVE SMOOTH",
"105 0 LINE",
"102 -16 OFFCURVE",
"100 -32 OFFCURVE",
"100 -50 CURVE SMOOTH",
"100 -145 OFFCURVE",
"151 -222 OFFCURVE",
"272 -222 CURVE SMOOTH"
);
}
);
width = 368;
}
);
leftKerningGroup = I;
rightKerningGroup = I;
unicode = 012E;
userData = {
com.typemytype.robofont.guides = (
{
angle = 90;
isGlobal = 0;
magnetic = 5;
x = 110;
y = 0;
}
);
};
},
{
color = 6;
glyphname = J;
layers = (
{
anchors = (
{
name = bottom;
position = "{351, 0}";
},
{
name = top;
position = "{371, 700}";
}
);
hints = (
{
horizontal = 1;
place = "{0, 0}";
type = Tag;
}
);
layerId = "EC64484B-0978-4CB1-9EE9-C40A2D8C4059";
paths = (
{
closed = 1;
nodes = (
"509 -10 OFFCURVE",
"653 73 OFFCURVE",
"653 258 CURVE SMOOTH",
"653 673 LINE SMOOTH",
"653 688 OFFCURVE",
"641 700 OFFCURVE",
"626 700 CURVE SMOOTH",
"97 700 LINE SMOOTH",
"82 700 OFFCURVE",
"70 688 OFFCURVE",
"70 673 CURVE SMOOTH",
"70 524 LINE SMOOTH",
"70 509 OFFCURVE",
"82 497 OFFCURVE",
"97 497 CURVE SMOOTH",
"394 497 LINE",
"394 266 LINE SMOOTH",
"394 205 OFFCURVE",
"371 185 OFFCURVE",
"335 185 CURVE SMOOTH",
"302 185 OFFCURVE",
"290 198 OFFCURVE",
"277 225 CURVE SMOOTH",
"267 247 OFFCURVE",
"258 257 OFFCURVE",
"236 257 CURVE SMOOTH",
"32 257 LINE SMOOTH",
"20 257 OFFCURVE",
"10 247 OFFCURVE",
"10 235 CURVE SMOOTH",
"13 78 OFFCURVE",
"162 -10 OFFCURVE",
"327 -10 CURVE SMOOTH"
);
}
);
width = 702;
}
);
leftKerningGroup = J;
rightKerningGroup = U;
unicode = 004A;
userData = {
com.typemytype.robofont.guides = (
{
angle = 0;
isGlobal = 0;
magnetic = 5;
x = 0;
y = "-10";
},
{
angle = 0;
isGlobal = 0;
magnetic = 5;
x = 0;
y = 133;
},
{
angle = 0;
isGlobal = 0;
magnetic = 5;
x = 0;
y = 677;
},
{
angle = 90;
isGlobal = 0;
magnetic = 5;
x = 303;
y = 0;
},
{
angle = 90;
isGlobal = 0;
magnetic = 5;
x = 60;
y = 0;
},
{
angle = 90;
isGlobal = 0;
magnetic = 5;
x = 91;
y = 0;
}
);
};
},
{
color = 6;
glyphname = K;
layers = (
{
anchors = (
{
name = bottom;
position = "{358, 0}";
},
{
name = top;
position = "{358, 700}";
}
);
layerId = "EC64484B-0978-4CB1-9EE9-C40A2D8C4059";
paths = (
{
closed = 1;
nodes = (
"273 0 LINE SMOOTH",
"288 0 OFFCURVE",
"300 12 OFFCURVE",
"300 27 CURVE SMOOTH",
"300 241 LINE",
"422 23 LINE SMOOTH",
"425 17 OFFCURVE",
"436 0 OFFCURVE",
"463 0 CURVE SMOOTH",
"691 0 LINE SMOOTH",
"703 0 OFFCURVE",
"713 10 OFFCURVE",
"713 22 CURVE SMOOTH",
"713 25 OFFCURVE",
"712 30 OFFCURVE",
"710 33 CURVE SMOOTH",
"513 365 LINE",
"693 667 LINE SMOOTH",
"695 670 OFFCURVE",
"696 674 OFFCURVE",
"696 678 CURVE SMOOTH",
"696 690 OFFCURVE",
"686 700 OFFCURVE",
"674 700 CURVE SMOOTH",
"453 700 LINE SMOOTH",
"431 700 OFFCURVE",
"419 689 OFFCURVE",
"413 678 CURVE SMOOTH",
"300 475 LINE",
"300 673 LINE SMOOTH",
"300 688 OFFCURVE",
"288 700 OFFCURVE",
"273 700 CURVE SMOOTH",
"82 700 LINE SMOOTH",
"67 700 OFFCURVE",
"55 688 OFFCURVE",
"55 673 CURVE SMOOTH",
"55 27 LINE SMOOTH",
"55 12 OFFCURVE",
"67 0 OFFCURVE",
"82 0 CURVE SMOOTH"
);
}
);
width = 715;
}
);
leftKerningGroup = I;
rightKerningGroup = K;
unicode = 004B;
userData = {
com.typemytype.robofont.guides = (
{
angle = 0;
isGlobal = 0;
magnetic = 5;
x = 0;
y = 365;
},
{
angle = 90;
isGlobal = 0;
magnetic = 5;
x = 547;
y = 0;
},
{
angle = 90;
isGlobal = 0;
magnetic = 5;
x = 94;
y = 0;
},
{
angle = 90;
isGlobal = 0;
magnetic = 5;
x = 139;
y = 0;
}
);
};
},
{
color = 6;
glyphname = L;
layers = (
{
anchors = (
{
name = bottom;
position = "{313, 0}";
},
{
name = center;
position = "{313, 350}";
},
{
name = top;
position = "{173, 700}";
},
{
name = topright;
position = "{486, 700}";
}
);
layerId = "EC64484B-0978-4CB1-9EE9-C40A2D8C4059";
paths = (
{
closed = 1;
nodes = (
"586 0 LINE SMOOTH",
"601 0 OFFCURVE",
"613 12 OFFCURVE",
"613 27 CURVE SMOOTH",
"613 178 LINE SMOOTH",
"613 193 OFFCURVE",
"601 205 OFFCURVE",
"586 205 CURVE SMOOTH",
"309 205 LINE",
"309 673 LINE SMOOTH",
"309 688 OFFCURVE",
"297 700 OFFCURVE",
"282 700 CURVE SMOOTH",
"82 700 LINE SMOOTH",
"67 700 OFFCURVE",
"55 688 OFFCURVE",
"55 673 CURVE SMOOTH",
"55 27 LINE SMOOTH",
"55 12 OFFCURVE",
"67 0 OFFCURVE",
"82 0 CURVE SMOOTH"
);
}
);
width = 626;
}
);
leftKerningGroup = I;
rightKerningGroup = L;
unicode = 004C;
},
{
color = 6;
glyphname = Lslash;
layers = (
{
hints = (
{
horizontal = 1;
place = "{0, 0}";
type = Tag;
}
);
layerId = "EC64484B-0978-4CB1-9EE9-C40A2D8C4059";
paths = (
{
closed = 1;
nodes = (
"594 0 LINE SMOOTH",
"609 0 OFFCURVE",
"621 12 OFFCURVE",
"621 27 CURVE SMOOTH",
"621 178 LINE SMOOTH",
"621 193 OFFCURVE",
"609 205 OFFCURVE",
"594 205 CURVE SMOOTH",
"317 205 LINE",
"317 325 LINE",
"472 386 LINE SMOOTH",
"488 392 OFFCURVE",
"494 401 OFFCURVE",
"494 419 CURVE SMOOTH",
"494 527 LINE SMOOTH",
"494 539 OFFCURVE",
"485 548 OFFCURVE",
"473 548 CURVE SMOOTH",
"471 548 OFFCURVE",
"467 547 OFFCURVE",
"462 545 CURVE SMOOTH",
"317 488 LINE",
"317 673 LINE SMOOTH",
"317 688 OFFCURVE",
"305 700 OFFCURVE",
"290 700 CURVE SMOOTH",
"90 700 LINE SMOOTH",
"75 700 OFFCURVE",
"63 688 OFFCURVE",
"63 673 CURVE SMOOTH",
"63 388 LINE",
"35 377 LINE SMOOTH",
"19 371 OFFCURVE",
"13 362 OFFCURVE",
"13 344 CURVE SMOOTH",
"13 236 LINE SMOOTH",
"13 224 OFFCURVE",
"22 215 OFFCURVE",
"34 215 CURVE SMOOTH",
"36 215 OFFCURVE",
"40 216 OFFCURVE",
"45 218 CURVE SMOOTH",
"63 225 LINE",
"63 27 LINE SMOOTH",
"63 12 OFFCURVE",
"75 0 OFFCURVE",
"90 0 CURVE SMOOTH"
);
}
);
width = 634;
}
);
leftKerningGroup = I;
rightKerningGroup = L;
unicode = 0141;
userData = {
com.typemytype.robofont.guides = (
{
angle = 0;
isGlobal = 0;
magnetic = 5;
x = 0;
y = 215;
},
{
angle = 0;
isGlobal = 0;
magnetic = 5;
x = 0;
y = 548;
},
{
angle = 0;
isGlobal = 0;
magnetic = 5;
x = 0;
y = 438;
},
{
angle = 0;
isGlobal = 0;
magnetic = 5;
x = 0;
y = 267;
},
{
angle = 0;
isGlobal = 0;
magnetic = 5;
x = 0;
y = 353;
},
{
angle = 90;
isGlobal = 0;
magnetic = 5;
x = 129;
y = 0;
},
{
angle = 90;
isGlobal = 0;
magnetic = 5;
x = 325;
y = 0;
},
{
angle = 90;
isGlobal = 0;
magnetic = 5;
x = "-5";
y = 0;
}
);
};
},
{
color = 6;
glyphname = M;
layers = (
{
anchors = (
{
name = bottom;
position = "{428, 0}";
},
{
name = top;
position = "{428, 700}";
}
);
hints = (
{
horizontal = 1;
place = "{0, 0}";
type = Tag;
}
);
layerId = "EC64484B-0978-4CB1-9EE9-C40A2D8C4059";
paths = (
{
closed = 1;
nodes = (
"263 0 LINE SMOOTH",
"278 0 OFFCURVE",
"290 12 OFFCURVE",
"290 27 CURVE SMOOTH",
"290 301 LINE",
"356 193 LINE SMOOTH",
"363 182 OFFCURVE",
"373 168 OFFCURVE",
"393 168 CURVE SMOOTH",
"463 168 LINE SMOOTH",
"483 168 OFFCURVE",
"493 182 OFFCURVE",
"500 193 CURVE SMOOTH",
"566 301 LINE",
"566 27 LINE SMOOTH",
"566 12 OFFCURVE",
"578 0 OFFCURVE",
"593 0 CURVE SMOOTH",
"774 0 LINE SMOOTH",
"789 0 OFFCURVE",
"801 12 OFFCURVE",
"801 27 CURVE SMOOTH",
"801 673 LINE SMOOTH",
"801 688 OFFCURVE",
"789 700 OFFCURVE",
"774 700 CURVE SMOOTH",
"616 700 LINE SMOOTH",
"589 700 OFFCURVE",
"577 680 OFFCURVE",
"573 673 CURVE SMOOTH",
"428 433 LINE",
"283 673 LINE SMOOTH",
"279 680 OFFCURVE",
"267 700 OFFCURVE",
"240 700 CURVE SMOOTH",
"82 700 LINE SMOOTH",
"67 700 OFFCURVE",
"55 688 OFFCURVE",
"55 673 CURVE SMOOTH",
"55 27 LINE SMOOTH",
"55 12 OFFCURVE",
"67 0 OFFCURVE",
"82 0 CURVE SMOOTH"
);
}
);
width = 856;
}
);
leftKerningGroup = I;
rightKerningGroup = I;
unicode = 004D;
userData = {
com.typemytype.robofont.guides = (
{
angle = 0;
isGlobal = 0;
magnetic = 5;
x = 0;
y = 168;
},
{
angle = 0;
isGlobal = 0;
magnetic = 5;
x = 0;
y = 9;
},
{
angle = 0;
isGlobal = 0;
magnetic = 5;
x = 0;
y = 691;
},
{
angle = 90;
isGlobal = 0;
magnetic = 5;
x = 126;
y = 0;
},
{
angle = 90;
isGlobal = 0;
magnetic = 5;
x = 636;
y = 0;
}
);
};
},
{
color = 6;
glyphname = N;
layers = (
{
anchors = (
{
name = bottom;
position = "{374, 0}";
},
{
name = top;
position = "{370, 700}";
}
);
layerId = "EC64484B-0978-4CB1-9EE9-C40A2D8C4059";
paths = (
{
closed = 1;
nodes = (
"263 0 LINE SMOOTH",
"278 0 OFFCURVE",
"290 12 OFFCURVE",
"290 27 CURVE SMOOTH",
"290 278 LINE",
"459 23 LINE SMOOTH",
"463 17 OFFCURVE",
"473 0 OFFCURVE",
"500 0 CURVE SMOOTH",
"658 0 LINE SMOOTH",
"673 0 OFFCURVE",
"685 12 OFFCURVE",
"685 27 CURVE SMOOTH",
"685 673 LINE SMOOTH",
"685 688 OFFCURVE",
"673 700 OFFCURVE",
"658 700 CURVE SMOOTH",
"477 700 LINE SMOOTH",
"462 700 OFFCURVE",
"450 688 OFFCURVE",
"450 673 CURVE SMOOTH",
"450 400 LINE",
"281 677 LINE SMOOTH",
"277 684 OFFCURVE",
"267 700 OFFCURVE",
"240 700 CURVE SMOOTH",
"82 700 LINE SMOOTH",
"67 700 OFFCURVE",
"55 688 OFFCURVE",
"55 673 CURVE SMOOTH",
"55 27 LINE SMOOTH",
"55 12 OFFCURVE",
"67 0 OFFCURVE",
"82 0 CURVE SMOOTH"
);
}
);
width = 740;
}
);
leftKerningGroup = I;
rightKerningGroup = I;
unicode = 004E;
userData = {
com.typemytype.robofont.guides = (
{
angle = 0;
isGlobal = 0;
magnetic = 5;
x = 0;
y = 9;
},
{
angle = 0;
isGlobal = 0;
magnetic = 5;
x = 0;
y = 691;
},
{
angle = 90;
isGlobal = 0;
magnetic = 5;
x = 540;
y = 0;
},
{
angle = 90;
isGlobal = 0;
magnetic = 5;
x = 125;
y = 0;
}
);
};
},
{
color = 6;
glyphname = Eng;
layers = (
{
hints = (
{
horizontal = 1;
place = "{0, 0}";
type = Tag;
}
);
layerId = "EC64484B-0978-4CB1-9EE9-C40A2D8C4059";
paths = (
{
closed = 1;
nodes = (
"359 -225 LINE SMOOTH",
"541 -225 OFFCURVE",
"685 -145 OFFCURVE",
"685 26 CURVE SMOOTH",
"685 673 LINE SMOOTH",
"685 688 OFFCURVE",
"673 700 OFFCURVE",
"658 700 CURVE SMOOTH",
"477 700 LINE SMOOTH",
"462 700 OFFCURVE",
"450 688 OFFCURVE",
"450 673 CURVE SMOOTH",
"450 400 LINE",
"281 677 LINE SMOOTH",
"277 684 OFFCURVE",
"267 700 OFFCURVE",
"240 700 CURVE SMOOTH",
"82 700 LINE SMOOTH",
"67 700 OFFCURVE",
"55 688 OFFCURVE",
"55 673 CURVE SMOOTH",
"55 27 LINE SMOOTH",
"55 12 OFFCURVE",
"67 0 OFFCURVE",
"82 0 CURVE SMOOTH",
"263 0 LINE SMOOTH",
"278 0 OFFCURVE",
"290 12 OFFCURVE",
"290 27 CURVE SMOOTH",
"290 278 LINE",
"450 38 LINE",
"450 36 LINE",
"450 2 OFFCURVE",
"426 -22 OFFCURVE",
"383 -22 CURVE SMOOTH",
"343 -22 LINE SMOOTH",
"328 -22 OFFCURVE",
"316 -34 OFFCURVE",
"316 -49 CURVE",
"316 -198 LINE SMOOTH",
"316 -213 OFFCURVE",
"328 -225 OFFCURVE",
"343 -225 CURVE SMOOTH"
);
}
);
width = 740;
}
);
leftKerningGroup = I;
rightKerningGroup = I;
unicode = 014A;
},
{
color = 6;
glyphname = O;
layers = (
{
anchors = (
{
name = bottom;
position = "{371, 0}";
},
{
name = center;
position = "{371, 350}";
},
{
name = ogonek;
position = "{668, 10}";
},
{
name = top;
position = "{371, 700}";
},
{
name = topleft;
position = "{20, 700}";
},
{
name = topright;
position = "{722, 700}";
}
);
layerId = "EC64484B-0978-4CB1-9EE9-C40A2D8C4059";
paths = (
{
closed = 1;
nodes = (
"567 -10 OFFCURVE",
"697 81 OFFCURVE",
"705 260 CURVE SMOOTH",
"707 314 OFFCURVE",
"707 379 OFFCURVE",
"705 436 CURVE SMOOTH",
"698 611 OFFCURVE",
"567 710 OFFCURVE",
"371 710 CURVE SMOOTH",
"175 710 OFFCURVE",
"44 611 OFFCURVE",
"37 436 CURVE SMOOTH",
"35 379 OFFCURVE",
"35 314 OFFCURVE",
"37 260 CURVE SMOOTH",
"45 81 OFFCURVE",
"175 -10 OFFCURVE",
"371 -10 CURVE SMOOTH"
);
},
{
closed = 1;
nodes = (
"327 185 OFFCURVE",
"299 210 OFFCURVE",
"297 266 CURVE SMOOTH",
"295 323 OFFCURVE",
"295 379 OFFCURVE",
"297 434 CURVE SMOOTH",
"299 490 OFFCURVE",
"328 515 OFFCURVE",
"371 515 CURVE SMOOTH",
"414 515 OFFCURVE",
"443 490 OFFCURVE",
"445 434 CURVE SMOOTH",
"447 379 OFFCURVE",
"447 323 OFFCURVE",
"445 266 CURVE SMOOTH",
"443 210 OFFCURVE",
"415 185 OFFCURVE",
"371 185 CURVE SMOOTH"
);
}
);
width = 742;
}
);
leftKerningGroup = O;
rightKerningGroup = O;
unicode = 004F;
userData = {
com.typemytype.robofont.guides = (
{
angle = 0;
isGlobal = 0;
magnetic = 5;
x = 0;
y = "-10";
},
{
angle = 0;
isGlobal = 0;
magnetic = 5;
x = 0;
y = 710;
},
{
angle = 0;
isGlobal = 0;
magnetic = 5;
x = 0;
y = 335;
},
{
angle = 0;
isGlobal = 0;
magnetic = 5;
x = 0;
y = 434;
},
{
angle = 0;
isGlobal = 0;
magnetic = 5;
x = 0;
y = 266;
},
{
angle = 90;
isGlobal = 0;
magnetic = 5;
x = 496;
y = 0;
}
);
};
},
{
color = 6;
glyphname = OE;
layers = (
{
anchors = (
{
name = bottom;
position = "{501, 0}";
},
{
name = top;
position = "{501, 700}";
}
);
hints = (
{
horizontal = 1;
place = "{0, 0}";
type = Tag;
}
);
layerId = "EC64484B-0978-4CB1-9EE9-C40A2D8C4059";
paths = (
{
closed = 1;
nodes = (
"937 0 LINE",
"952 0 OFFCURVE",
"964 12 OFFCURVE",
"964 27 CURVE",
"964 168 LINE",
"964 183 OFFCURVE",
"952 195 OFFCURVE",
"937 195 CURVE",
"649 195 LINE",
"649 258 LINE",
"907 258 LINE",
"922 258 OFFCURVE",
"934 270 OFFCURVE",
"934 285 CURVE",
"934 415 LINE",
"934 430 OFFCURVE",
"922 442 OFFCURVE",
"907 442 CURVE",
"649 442 LINE",
"649 505 LINE",
"929 505 LINE",
"944 505 OFFCURVE",
"956 517 OFFCURVE",
"956 532 CURVE",
"956 673 LINE",
"956 688 OFFCURVE",
"944 700 OFFCURVE",
"929 700 CURVE",
"369 700 LINE",
"182 700 OFFCURVE",
"42 604 OFFCURVE",
"35 425 CURVE SMOOTH",
"33 368 OFFCURVE",
"33 330 OFFCURVE",
"35 276 CURVE SMOOTH",
"43 87 OFFCURVE",
"173 0 OFFCURVE",
"364 0 CURVE"
);
},
{
closed = 1;
nodes = (
"325 195 OFFCURVE",
"292 220 OFFCURVE",
"289 276 CURVE SMOOTH",
"286 333 OFFCURVE",
"286 370 OFFCURVE",
"289 425 CURVE SMOOTH",
"292 481 OFFCURVE",
"329 505 OFFCURVE",
"374 505 CURVE",
"410 505 LINE",
"410 195 LINE",
"369 195 LINE"
);
}
);
width = 1002;
}
);
leftKerningGroup = O;
rightKerningGroup = E;
unicode = 0152;
userData = {
com.typemytype.robofont.guides = (
{
angle = 90;
isGlobal = 0;
magnetic = 5;
x = 842;
y = 0;
},
{
angle = 90;
isGlobal = 0;
magnetic = 5;
x = 66;
y = 0;
},
{
angle = 90;
isGlobal = 0;
magnetic = 5;
x = 439;
y = 0;
},
{
angle = 90;
isGlobal = 0;
magnetic = 5;
x = 502;
y = 0;
}
);
};
},
{
color = 6;
glyphname = P;
layers = (
{
anchors = (
{
name = bottom;
position = "{353, 0}";
},
{
name = top;
position = "{353, 700}";
}
);
hints = (
{
horizontal = 1;
place = "{0, 0}";
type = Tag;
}
);
layerId = "EC64484B-0978-4CB1-9EE9-C40A2D8C4059";
paths = (
{
closed = 1;
nodes = (
"288 0 LINE SMOOTH",
"303 0 OFFCURVE",
"315 12 OFFCURVE",
"315 27 CURVE SMOOTH",
"315 218 LINE",
"385 218 LINE SMOOTH",
"566 218 OFFCURVE",
"686 289 OFFCURVE",
"686 455 CURVE SMOOTH",
"686 621 OFFCURVE",
"566 700 OFFCURVE",
"385 700 CURVE SMOOTH",
"82 700 LINE SMOOTH",
"67 700 OFFCURVE",
"55 688 OFFCURVE",
"55 673 CURVE SMOOTH",
"55 27 LINE SMOOTH",
"55 12 OFFCURVE",
"67 0 OFFCURVE",
"82 0 CURVE SMOOTH"
);
},
{
closed = 1;
nodes = (
"310 514 LINE",
"380 514 LINE SMOOTH",
"416 514 OFFCURVE",
"426 482 OFFCURVE",
"426 457 CURVE SMOOTH",
"426 418 OFFCURVE",
"401 403 OFFCURVE",
"380 403 CURVE SMOOTH",
"310 403 LINE"
);
}
);
width = 705;
}
);
leftKerningGroup = I;
unicode = 0050;
userData = {
com.typemytype.robofont.guides = (
{
angle = 0;
isGlobal = 0;
magnetic = 5;
x = 0;
y = 493;
},
{
angle = 0;
isGlobal = 0;
magnetic = 5;
x = 0;
y = 403;
},
{
angle = 0;
isGlobal = 0;
magnetic = 5;
x = 0;
y = 218;
},
{
angle = 0;
isGlobal = 0;
magnetic = 5;
x = 0;
y = 310;
},
{
angle = 0;
isGlobal = 0;
magnetic = 5;
x = 0;
y = 9;
},
{
angle = 0;
isGlobal = 0;
magnetic = 5;
x = 0;
y = 691;
},
{
angle = 90;
isGlobal = 0;
magnetic = 5;
x = 345;
y = 0;
},
{
angle = 90;
isGlobal = 0;
magnetic = 5;
x = 94;
y = 0;
},
{
angle = 90;
isGlobal = 0;
magnetic = 5;
x = 139;
y = 0;
}
);
};
},
{
color = 6;
glyphname = Thorn;
layers = (
{
anchors = (
{
name = bottom;
position = "{353, 0}";
},
{
name = top;
position = "{353, 700}";
}
);
hints = (
{
horizontal = 1;
place = "{0, 0}";
type = Tag;
}
);
layerId = "EC64484B-0978-4CB1-9EE9-C40A2D8C4059";
paths = (
{
closed = 1;
nodes = (
"288 0 LINE SMOOTH",
"303 0 OFFCURVE",
"315 12 OFFCURVE",
"315 27 CURVE SMOOTH",
"315 119 LINE",
"380 119 LINE SMOOTH",
"566 119 OFFCURVE",
"686 190 OFFCURVE",
"686 356 CURVE SMOOTH",
"686 522 OFFCURVE",
"566 601 OFFCURVE",
"380 601 CURVE",
"315 601 LINE",
"315 673 LINE SMOOTH",
"315 688 OFFCURVE",
"303 700 OFFCURVE",
"288 700 CURVE SMOOTH",
"82 700 LINE",
"67 700 OFFCURVE",
"55 688 OFFCURVE",
"55 673 CURVE SMOOTH",
"55 27 LINE SMOOTH",
"55 12 OFFCURVE",
"67 0 OFFCURVE",
"82 0 CURVE SMOOTH"
);
},
{
closed = 1;
nodes = (
"310 415 LINE",
"380 415 LINE SMOOTH",
"416 415 OFFCURVE",
"426 383 OFFCURVE",
"426 358 CURVE SMOOTH",
"426 319 OFFCURVE",
"401 304 OFFCURVE",
"380 304 CURVE SMOOTH",
"310 304 LINE"
);
}
);
width = 705;
}
);
leftKerningGroup = I;
unicode = 00DE;
userData = {
com.typemytype.robofont.guides = (
{
angle = 0;
isGlobal = 0;
magnetic = 5;
x = 0;
y = 119;
},
{
angle = 0;
isGlobal = 0;
magnetic = 5;
x = 0;
y = 601;
},
{
angle = 0;
isGlobal = 0;
magnetic = 5;
x = 0;
y = 570;
},
{
angle = 0;
isGlobal = 0;
magnetic = 5;
x = 0;
y = 350;
}
);
};
},
{
color = 6;
glyphname = Q;
layers = (
{
anchors = (
{
name = bottom;
position = "{371, 0}";
},
{
name = top;
position = "{371, 700}";
}
);
hints = (
{
horizontal = 1;
place = "{0, 0}";
type = Tag;
}
);
layerId = "EC64484B-0978-4CB1-9EE9-C40A2D8C4059";
paths = (
{
closed = 1;
nodes = (
"694 -65 LINE",
"706 -65 OFFCURVE",
"716 -55 OFFCURVE",
"714 -43 CURVE SMOOTH",
"714 -40 OFFCURVE",
"712 -36 OFFCURVE",
"711 -34 CURVE",
"632 79 LINE",
"675 123 OFFCURVE",
"700 184 OFFCURVE",
"704 260 CURVE SMOOTH",
"706 314 OFFCURVE",
"706 379 OFFCURVE",
"704 436 CURVE SMOOTH",
"697 611 OFFCURVE",
"566 710 OFFCURVE",
"370 710 CURVE SMOOTH",
"174 710 OFFCURVE",
"43 611 OFFCURVE",
"36 436 CURVE SMOOTH",
"34 379 OFFCURVE",
"34 314 OFFCURVE",
"36 260 CURVE SMOOTH",
"44 81 OFFCURVE",
"174 -10 OFFCURVE",
"370 -10 CURVE SMOOTH",
"390 -10 OFFCURVE",
"410 -9 OFFCURVE",
"428 -7 CURVE",
"456 -42 LINE",
"462 -50 OFFCURVE",
"473 -65 OFFCURVE",
"498 -65 CURVE"
);
},
{
closed = 1;
nodes = (
"326 185 OFFCURVE",
"298 210 OFFCURVE",
"296 266 CURVE SMOOTH",
"294 323 OFFCURVE",
"294 379 OFFCURVE",
"296 434 CURVE SMOOTH",
"298 490 OFFCURVE",
"327 515 OFFCURVE",
"370 515 CURVE SMOOTH",
"413 515 OFFCURVE",
"442 490 OFFCURVE",
"444 434 CURVE SMOOTH",
"446 379 OFFCURVE",
"446 323 OFFCURVE",
"444 266 CURVE SMOOTH",
"442 210 OFFCURVE",
"414 185 OFFCURVE",
"370 185 CURVE SMOOTH"
);
}
);
width = 742;
}
);
leftKerningGroup = O;
rightKerningGroup = O;
unicode = 0051;
userData = {
com.typemytype.robofont.guides = (
{
angle = 0;
isGlobal = 0;
magnetic = 5;
x = 0;
y = 710;
},
{
angle = 0;
isGlobal = 0;
magnetic = 5;
x = 0;
y = "-10";
},
{
angle = 0;
isGlobal = 0;
magnetic = 5;
x = 0;
y = "-56";
},
{
angle = 90;
isGlobal = 0;
magnetic = 5;
x = 82;
y = 0;
},
{
angle = 90;
isGlobal = 0;
magnetic = 5;
x = 750;
y = 0;
},
{
angle = 90;
isGlobal = 0;
magnetic = 5;
x = 580;
y = 0;
}
);
};
},
{
color = 6;
glyphname = R;
layers = (
{
anchors = (
{
name = bottom;
position = "{369, 0}";
},
{
name = top;
position = "{341, 700}";
}
);
layerId = "EC64484B-0978-4CB1-9EE9-C40A2D8C4059";
paths = (
{
closed = 1;
nodes = (
"278 0 LINE SMOOTH",
"293 0 OFFCURVE",
"305 12 OFFCURVE",
"305 27 CURVE SMOOTH",
"305 218 LINE",
"346 218 LINE",
"432 27 LINE SMOOTH",
"436 18 OFFCURVE",
"448 0 OFFCURVE",
"475 0 CURVE SMOOTH",
"680 0 LINE SMOOTH",
"692 0 OFFCURVE",
"702 10 OFFCURVE",
"702 22 CURVE SMOOTH",
"702 27 OFFCURVE",
"701 29 OFFCURVE",
"699 33 CURVE SMOOTH",
"576 261 LINE",
"639 301 OFFCURVE",
"684 367 OFFCURVE",
"684 457 CURVE SMOOTH",
"684 608 OFFCURVE",
"570 700 OFFCURVE",
"378 700 CURVE SMOOTH",
"82 700 LINE SMOOTH",
"67 700 OFFCURVE",
"55 688 OFFCURVE",
"55 673 CURVE SMOOTH",
"55 27 LINE SMOOTH",
"55 12 OFFCURVE",
"67 0 OFFCURVE",
"82 0 CURVE SMOOTH"
);
},
{
closed = 1;
nodes = (
"305 514 LINE",
"378 514 LINE SMOOTH",
"411 514 OFFCURVE",
"424 485 OFFCURVE",
"424 459 CURVE SMOOTH",
"424 432 OFFCURVE",
"409 408 OFFCURVE",
"378 408 CURVE SMOOTH",
"305 408 LINE"
);
}
);
width = 722;
}
);
leftKerningGroup = I;
rightKerningGroup = R;
unicode = 0052;
userData = {
com.typemytype.robofont.guides = (
{
angle = 0;
isGlobal = 0;
magnetic = 5;
x = 0;
y = 691;
},
{
angle = 0;
isGlobal = 0;
magnetic = 5;
x = 0;
y = 9;
},
{
angle = 90;
isGlobal = 0;
magnetic = 5;
x = 616;
y = 0;
},
{
angle = 90;
isGlobal = 0;
magnetic = 5;
x = 574;
y = 0;
},
{
angle = 90;
isGlobal = 0;
magnetic = 5;
x = 94;
y = 0;
},
{
angle = 90;
isGlobal = 0;
magnetic = 5;
x = 139;
y = 0;
}
);
};
},
{
color = 6;
glyphname = S;
layers = (
{
anchors = (
{
name = bottom;
position = "{349, 0}";
},
{
name = top;
position = "{349, 700}";
}
);
layerId = "EC64484B-0978-4CB1-9EE9-C40A2D8C4059";
paths = (
{
closed = 1;
nodes = (
"536 -10 OFFCURVE",
"679 80 OFFCURVE",
"679 226 CURVE SMOOTH",
"679 356 OFFCURVE",
"603 419 OFFCURVE",
"403 444 CURVE SMOOTH",
"313 455 OFFCURVE",
"292 468 OFFCURVE",
"292 487 CURVE SMOOTH",
"292 504 OFFCURVE",
"306 515 OFFCURVE",
"340 515 CURVE SMOOTH",
"368 515 OFFCURVE",
"386 503 OFFCURVE",
"393 497 CURVE SMOOTH",
"405 486 OFFCURVE",
"414 481 OFFCURVE",
"433 481 CURVE SMOOTH",
"633 481 LINE SMOOTH",
"644 481 OFFCURVE",
"654 491 OFFCURVE",
"654 503 CURVE SMOOTH",
"651 590 OFFCURVE",
"540 710 OFFCURVE",
"340 710 CURVE SMOOTH",
"158 710 OFFCURVE",
"35 616 OFFCURVE",
"35 480 CURVE SMOOTH",
"35 347 OFFCURVE",
"135 281 OFFCURVE",
"293 260 CURVE SMOOTH",
"392 247 OFFCURVE",
"422 237 OFFCURVE",
"422 213 CURVE SMOOTH",
"422 195 OFFCURVE",
"392 185 OFFCURVE",
"347 185 CURVE SMOOTH",
"314 185 OFFCURVE",
"292 193 OFFCURVE",
"273 208 CURVE SMOOTH",
"259 219 OFFCURVE",
"251 225 OFFCURVE",
"230 225 CURVE SMOOTH",
"40 225 LINE SMOOTH",
"28 225 OFFCURVE",
"18 215 OFFCURVE",
"18 203 CURVE SMOOTH",
"21 92 OFFCURVE",
"126 -10 OFFCURVE",
"347 -10 CURVE SMOOTH"
);
}
);
width = 697;
}
);
leftKerningGroup = S;
rightKerningGroup = S;
unicode = 0053;
userData = {
com.typemytype.robofont.guides = (
{
angle = 0;
isGlobal = 0;
magnetic = 5;
x = 0;
y = 355;
},
{
angle = 90;
isGlobal = 0;
magnetic = 5;
x = 306;
y = 0;
}
);
};
},
{
color = 6;
glyphname = Scedilla;
layers = (
{
hints = (
{
horizontal = 1;
place = "{0, 0}";
type = Tag;
}
);
layerId = "EC64484B-0978-4CB1-9EE9-C40A2D8C4059";
paths = (
{
closed = 1;
nodes = (
"405 -220 OFFCURVE",
"444 -183 OFFCURVE",
"444 -130 CURVE SMOOTH",
"444 -77 OFFCURVE",
"414 -40 OFFCURVE",
"363 -40 CURVE SMOOTH",
"359 -40 OFFCURVE",
"341 -42 OFFCURVE",
"333 -45 CURVE",
"351 -10 LINE",
"538 -8 OFFCURVE",
"679 81 OFFCURVE",
"679 226 CURVE SMOOTH",
"679 356 OFFCURVE",
"603 419 OFFCURVE",
"403 444 CURVE SMOOTH",
"313 455 OFFCURVE",
"292 468 OFFCURVE",
"292 487 CURVE SMOOTH",
"292 504 OFFCURVE",
"306 515 OFFCURVE",
"340 515 CURVE SMOOTH",
"368 515 OFFCURVE",
"386 503 OFFCURVE",
"393 497 CURVE SMOOTH",
"405 486 OFFCURVE",
"414 481 OFFCURVE",
"433 481 CURVE",
"633 481 LINE",
"644 481 OFFCURVE",
"654 491 OFFCURVE",
"654 503 CURVE SMOOTH",
"651 590 OFFCURVE",
"540 710 OFFCURVE",
"340 710 CURVE SMOOTH",
"158 710 OFFCURVE",
"35 616 OFFCURVE",
"35 480 CURVE SMOOTH",
"35 347 OFFCURVE",
"135 281 OFFCURVE",
"293 260 CURVE SMOOTH",
"392 247 OFFCURVE",
"422 237 OFFCURVE",
"422 213 CURVE SMOOTH",
"422 195 OFFCURVE",
"392 185 OFFCURVE",
"347 185 CURVE SMOOTH",
"314 185 OFFCURVE",
"292 193 OFFCURVE",
"273 208 CURVE SMOOTH",
"259 219 OFFCURVE",
"251 225 OFFCURVE",
"230 225 CURVE",
"40 225 LINE",
"28 225 OFFCURVE",
"18 215 OFFCURVE",
"18 203 CURVE SMOOTH",
"20 102 OFFCURVE",
"107 9 OFFCURVE",
"288 -7 CURVE",
"268 -52 LINE",
"259 -71 OFFCURVE",
"261 -76 OFFCURVE",
"270 -85 CURVE",
"291 -106 LINE",
"304 -119 OFFCURVE",
"327 -106 OFFCURVE",
"345 -106 CURVE SMOOTH",
"365 -106 OFFCURVE",
"373 -118 OFFCURVE",
"373 -130 CURVE SMOOTH",
"373 -142 OFFCURVE",
"364 -154 OFFCURVE",
"345 -154 CURVE SMOOTH",
"311 -154 OFFCURVE",
"306 -136 OFFCURVE",
"289 -151 CURVE",
"268 -169 LINE",
"245 -189 OFFCURVE",
"292 -220 OFFCURVE",
"345 -220 CURVE SMOOTH"
);
}
);
width = 697;
}
);
leftKerningGroup = S;
rightKerningGroup = S;
unicode = 015E;
userData = {
com.typemytype.robofont.guides = (
{
angle = 90;
isGlobal = 0;
magnetic = 5;
x = 306;
y = 0;
}
);
};
},
{
color = 6;
glyphname = T;
layers = (
{
anchors = (
{
name = bottom;
position = "{337, 0}";
},
{
name = center;
position = "{337, 350}";
},
{
name = top;
position = "{337, 700}";
}
);
hints = (
{
horizontal = 1;
place = "{0, 0}";
type = Tag;
}
);
layerId = "EC64484B-0978-4CB1-9EE9-C40A2D8C4059";
paths = (
{
closed = 1;
nodes = (
"437 0 LINE SMOOTH",
"452 0 OFFCURVE",
"464 12 OFFCURVE",
"464 27 CURVE SMOOTH",
"464 485 LINE",
"630 485 LINE SMOOTH",
"645 485 OFFCURVE",
"657 497 OFFCURVE",
"657 512 CURVE SMOOTH",
"657 673 LINE SMOOTH",
"657 688 OFFCURVE",
"645 700 OFFCURVE",
"630 700 CURVE SMOOTH",
"44 700 LINE SMOOTH",
"29 700 OFFCURVE",
"17 688 OFFCURVE",
"17 673 CURVE SMOOTH",
"17 512 LINE SMOOTH",
"17 497 OFFCURVE",
"29 485 OFFCURVE",
"44 485 CURVE SMOOTH",
"210 485 LINE",
"210 27 LINE SMOOTH",
"210 12 OFFCURVE",
"222 0 OFFCURVE",
"237 0 CURVE SMOOTH"
);
}
);
width = 674;
}
);
leftKerningGroup = T;
rightKerningGroup = T;
unicode = 0054;
userData = {
com.typemytype.robofont.guides = (
{
angle = 0;
isGlobal = 0;
magnetic = 5;
x = 0;
y = 495;
},
{
angle = 0;
isGlobal = 0;
magnetic = 5;
x = 0;
y = 9;
},
{
angle = 0;
isGlobal = 0;
magnetic = 5;
x = 0;
y = 691;
},
{
angle = 0;
isGlobal = 0;
magnetic = 5;
x = 0;
y = 649;
},
{
angle = 90;
isGlobal = 0;
magnetic = 5;
x = 279;
y = 0;
},
{
angle = 90;
isGlobal = 0;
magnetic = 5;
x = 324;
y = 0;
},
{
angle = 90;
isGlobal = 0;
magnetic = 5;
x = 59;
y = 0;
},
{
angle = 90;
isGlobal = 0;
magnetic = 5;
x = 544;
y = 0;
}
);
};
},
{
color = 6;
glyphname = Tbar;
layers = (
{
hints = (
{
horizontal = 1;
place = "{0, 0}";
type = Tag;
}
);
layerId = "EC64484B-0978-4CB1-9EE9-C40A2D8C4059";
paths = (
{
closed = 1;
nodes = (
"441 0 LINE SMOOTH",
"456 0 OFFCURVE",
"468 12 OFFCURVE",
"468 27 CURVE SMOOTH",
"468 258 LINE",
"558 258 LINE SMOOTH",
"573 258 OFFCURVE",
"585 270 OFFCURVE",
"585 285 CURVE SMOOTH",
"585 356 LINE SMOOTH",
"585 371 OFFCURVE",
"573 383 OFFCURVE",
"558 383 CURVE SMOOTH",
"468 383 LINE",
"468 485 LINE",
"634 485 LINE SMOOTH",
"649 485 OFFCURVE",
"661 497 OFFCURVE",
"661 512 CURVE SMOOTH",
"661 673 LINE SMOOTH",
"661 688 OFFCURVE",
"649 700 OFFCURVE",
"634 700 CURVE SMOOTH",
"48 700 LINE SMOOTH",
"33 700 OFFCURVE",
"21 688 OFFCURVE",
"21 673 CURVE SMOOTH",
"21 512 LINE SMOOTH",
"21 497 OFFCURVE",
"33 485 OFFCURVE",
"48 485 CURVE SMOOTH",
"214 485 LINE",
"214 383 LINE",
"124 383 LINE SMOOTH",
"109 383 OFFCURVE",
"97 371 OFFCURVE",
"97 356 CURVE SMOOTH",
"97 285 LINE SMOOTH",
"97 270 OFFCURVE",
"109 258 OFFCURVE",
"124 258 CURVE SMOOTH",
"214 258 LINE",
"214 27 LINE SMOOTH",
"214 12 OFFCURVE",
"226 0 OFFCURVE",
"241 0 CURVE SMOOTH"
);
}
);
width = 682;
}
);
leftKerningGroup = T;
rightKerningGroup = T;
unicode = 0166;
userData = {
com.typemytype.robofont.guides = (
{
angle = 0;
isGlobal = 0;
magnetic = 5;
x = 0;
y = 380;
},
{
angle = 90;
isGlobal = 0;
magnetic = 5;
x = 301;
y = 0;
},
{
angle = 90;
isGlobal = 0;
magnetic = 5;
x = 50;
y = 0;
}
);
};
},
{
color = 6;
glyphname = U;
layers = (
{
anchors = (
{
name = bottom;
position = "{373, 0}";
},
{
name = ogonek;
position = "{469, 115}";
},
{
name = top;
position = "{373, 700}";
},
{
name = topright;
position = "{726, 700}";
}
);
layerId = "EC64484B-0978-4CB1-9EE9-C40A2D8C4059";
paths = (
{
closed = 1;
nodes = (
"564 -10 OFFCURVE",
"697 75 OFFCURVE",
"697 264 CURVE SMOOTH",
"697 673 LINE SMOOTH",
"697 688 OFFCURVE",
"685 700 OFFCURVE",
"670 700 CURVE SMOOTH",
"474 700 LINE SMOOTH",
"459 700 OFFCURVE",
"447 688 OFFCURVE",
"447 673 CURVE SMOOTH",
"447 268 LINE SMOOTH",
"447 218 OFFCURVE",
"422 191 OFFCURVE",
"373 191 CURVE SMOOTH",
"324 191 OFFCURVE",
"299 218 OFFCURVE",
"299 268 CURVE SMOOTH",
"299 673 LINE SMOOTH",
"299 688 OFFCURVE",
"287 700 OFFCURVE",
"272 700 CURVE SMOOTH",
"76 700 LINE SMOOTH",
"61 700 OFFCURVE",
"49 688 OFFCURVE",
"49 673 CURVE SMOOTH",
"49 264 LINE SMOOTH",
"49 75 OFFCURVE",
"182 -10 OFFCURVE",
"374 -10 CURVE SMOOTH"
);
}
);
width = 746;
}
);
leftKerningGroup = U;
rightKerningGroup = U;
unicode = 0055;
userData = {
com.typemytype.robofont.guides = (
{
angle = 0;
isGlobal = 0;
magnetic = 5;
x = 0;
y = 267;
},
{
angle = 90;
isGlobal = 0;
magnetic = 5;
x = 333;
y = 0;
},
{
angle = 90;
isGlobal = 0;
magnetic = 5;
x = 535;
y = 0;
},
{
angle = 90;
isGlobal = 0;
magnetic = 5;
x = 580;
y = 0;
},
{
angle = 90;
isGlobal = 0;
magnetic = 5;
x = 84;
y = 0;
},
{
angle = 90;
isGlobal = 0;
magnetic = 5;
x = 129;
y = 0;
}
);
};
},
{
color = 6;
glyphname = Uogonek;
layers = (
{
hints = (
{
horizontal = 1;
place = "{0, 0}";
type = Tag;
},
{
horizontal = 1;
place = "{0, 0}";
type = Tag;
}
);
layerId = "EC64484B-0978-4CB1-9EE9-C40A2D8C4059";
paths = (
{
closed = 1;
nodes = (
"471 -220 LINE",
"486 -220 OFFCURVE",
"498 -208 OFFCURVE",
"498 -193 CURVE",
"498 -125 LINE",
"498 -110 OFFCURVE",
"486 -98 OFFCURVE",
"471 -98 CURVE",
"461 -98 LINE",
"422 -98 OFFCURVE",
"411 -70 OFFCURVE",
"411 -49 CURVE SMOOTH",
"411 -30 OFFCURVE",
"416 -11 OFFCURVE",
"448 -5 CURVE SMOOTH",
"596 21 OFFCURVE",
"697 100 OFFCURVE",
"697 264 CURVE",
"697 673 LINE",
"697 688 OFFCURVE",
"685 700 OFFCURVE",
"670 700 CURVE",
"474 700 LINE",
"459 700 OFFCURVE",
"447 688 OFFCURVE",
"447 673 CURVE",
"447 268 LINE",
"447 218 OFFCURVE",
"422 191 OFFCURVE",
"373 191 CURVE SMOOTH",
"324 191 OFFCURVE",
"299 218 OFFCURVE",
"299 268 CURVE",
"299 673 LINE",
"299 688 OFFCURVE",
"287 700 OFFCURVE",
"272 700 CURVE",
"76 700 LINE",
"61 700 OFFCURVE",
"49 688 OFFCURVE",
"49 673 CURVE",
"49 264 LINE",
"49 104 OFFCURVE",
"144 19 OFFCURVE",
"289 -3 CURVE",
"286 -18 OFFCURVE",
"285 -33 OFFCURVE",
"285 -49 CURVE SMOOTH",
"285 -144 OFFCURVE",
"336 -220 OFFCURVE",
"457 -220 CURVE"
);
}
);
width = 746;
}
);
leftKerningGroup = U;
rightKerningGroup = U;
unicode = 0172;
userData = {
com.typemytype.robofont.guides = (
{
angle = 0;
isGlobal = 0;
magnetic = 5;
x = 0;
y = "-187";
},
{
angle = 90;
isGlobal = 0;
magnetic = 5;
x = 332;
y = 0;
}
);
};
},
{
color = 6;
glyphname = V;
layers = (
{
anchors = (
{
name = bottom;
position = "{363, 0}";
},
{
name = top;
position = "{363, 700}";
}
);
hints = (
{
horizontal = 1;
place = "{0, 0}";
type = Tag;
}
);
layerId = "EC64484B-0978-4CB1-9EE9-C40A2D8C4059";
paths = (
{
closed = 1;
nodes = (
"477 0 LINE SMOOTH",
"504 0 OFFCURVE",
"518 18 OFFCURVE",
"522 33 CURVE SMOOTH",
"710 671 LINE SMOOTH",
"711 675 OFFCURVE",
"711 676 OFFCURVE",
"711 678 CURVE SMOOTH",
"711 690 OFFCURVE",
"701 700 OFFCURVE",
"689 700 CURVE SMOOTH",
"503 700 LINE SMOOTH",
"476 700 OFFCURVE",
"462 682 OFFCURVE",
"458 667 CURVE SMOOTH",
"363 295 LINE",
"268 667 LINE SMOOTH",
"264 682 OFFCURVE",
"250 700 OFFCURVE",
"223 700 CURVE SMOOTH",
"37 700 LINE SMOOTH",
"25 700 OFFCURVE",
"15 690 OFFCURVE",
"15 678 CURVE SMOOTH",
"15 676 OFFCURVE",
"15 675 OFFCURVE",
"16 671 CURVE SMOOTH",
"204 33 LINE SMOOTH",
"208 18 OFFCURVE",
"222 0 OFFCURVE",
"249 0 CURVE SMOOTH"
);
}
);
width = 726;
}
);
unicode = 0056;
userData = {
com.typemytype.robofont.guides = (
{
angle = 0;
isGlobal = 0;
magnetic = 5;
x = 0;
y = 24;
}
);
};
},
{
color = 6;
glyphname = W;
layers = (
{
anchors = (
{
name = bottom;
position = "{428, 0}";
},
{
name = top;
position = "{428, 700}";
}
);
layerId = "EC64484B-0978-4CB1-9EE9-C40A2D8C4059";
paths = (
{
closed = 1;
nodes = (
"305 0 LINE SMOOTH",
"332 0 OFFCURVE",
"343 19 OFFCURVE",
"346 27 CURVE SMOOTH",
"428 232 LINE",
"510 27 LINE SMOOTH",
"513 19 OFFCURVE",
"524 0 OFFCURVE",
"551 0 CURVE SMOOTH",
"694 0 LINE SMOOTH",
"721 0 OFFCURVE",
"738 20 OFFCURVE",
"740 38 CURVE",
"832 675 LINE",
"832 676 OFFCURVE",
"832 677 OFFCURVE",
"832 678 CURVE SMOOTH",
"832 690 OFFCURVE",
"822 700 OFFCURVE",
"810 700 CURVE SMOOTH",
"624 700 LINE SMOOTH",
"601 700 OFFCURVE",
"590 693 OFFCURVE",
"588 673 CURVE SMOOTH",
"554 392 LINE",
"513 516 LINE SMOOTH",
"510 525 OFFCURVE",
"503 545 OFFCURVE",
"479 545 CURVE SMOOTH",
"377 545 LINE SMOOTH",
"353 545 OFFCURVE",
"346 525 OFFCURVE",
"343 516 CURVE SMOOTH",
"302 391 LINE",
"268 673 LINE SMOOTH",
"266 693 OFFCURVE",
"255 700 OFFCURVE",
"232 700 CURVE SMOOTH",
"46 700 LINE SMOOTH",
"34 700 OFFCURVE",
"24 690 OFFCURVE",
"24 678 CURVE SMOOTH",
"24 677 OFFCURVE",
"24 676 OFFCURVE",
"24 675 CURVE",
"116 38 LINE",
"118 20 OFFCURVE",
"135 0 OFFCURVE",
"162 0 CURVE SMOOTH"
);
}
);
width = 856;
}
);
leftKerningGroup = W;
rightKerningGroup = W;
unicode = 0057;
userData = {
com.typemytype.robofont.guides = (
{
angle = 0;
isGlobal = 0;
magnetic = 5;
x = 0;
y = 545;
},
{
angle = 0;
isGlobal = 0;
magnetic = 5;
x = 0;
y = 670;
},
{
angle = 0;
isGlobal = 0;
magnetic = 5;
x = 0;
y = 24;
}
);
};
},
{
color = 6;
glyphname = X;
layers = (
{
anchors = (
{
name = bottom;
position = "{370, 0}";
},
{
name = top;
position = "{370, 700}";
}
);
hints = (
{
horizontal = 1;
place = "{0, 0}";
type = Tag;
}
);
layerId = "EC64484B-0978-4CB1-9EE9-C40A2D8C4059";
paths = (
{
closed = 1;
nodes = (
"240 0 LINE SMOOTH",
"266 0 OFFCURVE",
"278 18 OFFCURVE",
"281 23 CURVE SMOOTH",
"364 157 LINE",
"451 23 LINE SMOOTH",
"454 18 OFFCURVE",
"466 0 OFFCURVE",
"492 0 CURVE SMOOTH",
"717 0 LINE SMOOTH",
"729 0 OFFCURVE",
"739 10 OFFCURVE",
"739 22 CURVE SMOOTH",
"739 24 OFFCURVE",
"739 28 OFFCURVE",
"736 33 CURVE SMOOTH",
"523 361 LINE",
"716 667 LINE SMOOTH",
"719 672 OFFCURVE",
"719 673 OFFCURVE",
"719 678 CURVE SMOOTH",
"719 690 OFFCURVE",
"709 700 OFFCURVE",
"697 700 CURVE SMOOTH",
"490 700 LINE SMOOTH",
"464 700 OFFCURVE",
"452 682 OFFCURVE",
"448 675 CURVE SMOOTH",
"372 553 LINE",
"302 675 LINE SMOOTH",
"298 682 OFFCURVE",
"286 700 OFFCURVE",
"260 700 CURVE SMOOTH",
"43 700 LINE SMOOTH",
"31 700 OFFCURVE",
"21 690 OFFCURVE",
"21 678 CURVE SMOOTH",
"21 673 OFFCURVE",
"22 671 OFFCURVE",
"24 667 CURVE SMOOTH",
"213 358 LINE",
"3 33 LINE SMOOTH",
"0 28 OFFCURVE",
"0 24 OFFCURVE",
"0 22 CURVE SMOOTH",
"0 10 OFFCURVE",
"10 0 OFFCURVE",
"22 0 CURVE SMOOTH"
);
}
);
width = 739;
}
);
unicode = 0058;
userData = {
com.typemytype.robofont.guides = (
{
angle = 0;
isGlobal = 0;
magnetic = 5;
x = 0;
y = 350;
},
{
angle = 90;
isGlobal = 0;
magnetic = 5;
x = 28;
y = 0;
},
{
angle = 90;
isGlobal = 0;
magnetic = 5;
x = 580;
y = 0;
}
);
};
},
{
color = 6;
glyphname = Y;
layers = (
{
anchors = (
{
name = bottom;
position = "{355, 0}";
},
{
name = top;
position = "{355, 700}";
},
{
name = topleft;
position = "{20, 700}";
}
);
layerId = "EC64484B-0978-4CB1-9EE9-C40A2D8C4059";
paths = (
{
closed = 1;
nodes = (
"453 0 LINE SMOOTH",
"468 0 OFFCURVE",
"480 12 OFFCURVE",
"480 27 CURVE SMOOTH",
"480 224 LINE",
"705 669 LINE SMOOTH",
"706 671 OFFCURVE",
"707 675 OFFCURVE",
"707 678 CURVE SMOOTH",
"707 690 OFFCURVE",
"697 700 OFFCURVE",
"685 700 CURVE SMOOTH",
"497 700 LINE SMOOTH",
"470 700 OFFCURVE",
"458 681 OFFCURVE",
"455 675 CURVE SMOOTH",
"355 474 LINE",
"255 675 LINE SMOOTH",
"252 681 OFFCURVE",
"240 700 OFFCURVE",
"213 700 CURVE SMOOTH",
"25 700 LINE SMOOTH",
"13 700 OFFCURVE",
"3 690 OFFCURVE",
"3 678 CURVE SMOOTH",
"3 675 OFFCURVE",
"4 671 OFFCURVE",
"5 669 CURVE SMOOTH",
"230 224 LINE",
"230 27 LINE SMOOTH",
"230 12 OFFCURVE",
"242 0 OFFCURVE",
"257 0 CURVE SMOOTH"
);
}
);
width = 710;
}
);
leftKerningGroup = Y;
rightKerningGroup = Y;
unicode = 0059;
userData = {
com.typemytype.robofont.guides = (
{
angle = 90;
isGlobal = 0;
magnetic = 5;
x = 310;
y = 0;
}
);
};
},
{
color = 6;
glyphname = Z;
layers = (
{
anchors = (
{
name = bottom;
position = "{347, 0}";
},
{
name = center;
position = "{347, 350}";
},
{
name = top;
position = "{337, 700}";
}
);
layerId = "EC64484B-0978-4CB1-9EE9-C40A2D8C4059";
paths = (
{
closed = 1;
nodes = (
"633 0 LINE SMOOTH",
"648 0 OFFCURVE",
"660 12 OFFCURVE",
"660 27 CURVE SMOOTH",
"660 178 LINE SMOOTH",
"660 193 OFFCURVE",
"648 205 OFFCURVE",
"633 205 CURVE SMOOTH",
"369 205 LINE",
"634 498 LINE SMOOTH",
"642 506 OFFCURVE",
"647 517 OFFCURVE",
"647 531 CURVE SMOOTH",
"647 673 LINE SMOOTH",
"647 688 OFFCURVE",
"635 700 OFFCURVE",
"620 700 CURVE SMOOTH",
"72 700 LINE SMOOTH",
"57 700 OFFCURVE",
"45 688 OFFCURVE",
"45 673 CURVE SMOOTH",
"45 524 LINE SMOOTH",
"45 509 OFFCURVE",
"57 497 OFFCURVE",
"72 497 CURVE SMOOTH",
"330 497 LINE",
"50 206 LINE SMOOTH",
"45 201 OFFCURVE",
"35 190 OFFCURVE",
"35 171 CURVE SMOOTH",
"35 27 LINE SMOOTH",
"35 12 OFFCURVE",
"47 0 OFFCURVE",
"62 0 CURVE SMOOTH"
);
}
);
width = 693;
}
);
leftKerningGroup = Z;
rightKerningGroup = Z;
unicode = 005A;
userData = {
com.typemytype.robofont.guides = (
{
angle = 0;
isGlobal = 0;
magnetic = 5;
x = 0;
y = 51;
},
{
angle = 0;
isGlobal = 0;
magnetic = 5;
x = 0;
y = 9;
},
{
angle = 0;
isGlobal = 0;
magnetic = 5;
x = 0;
y = 691;
},
{
angle = 0;
isGlobal = 0;
magnetic = 5;
x = 0;
y = 649;
},
{
angle = 90;
isGlobal = 0;
magnetic = 5;
x = 189;
y = 0;
},
{
angle = 90;
isGlobal = 0;
magnetic = 5;
x = 815;
y = 0;
},
{
angle = 90;
isGlobal = 0;
magnetic = 5;
x = 732;
y = 0;
},
{
angle = 90;
isGlobal = 0;
magnetic = 5;
x = "-431";
y = 0;
},
{
angle = 90;
isGlobal = 0;
magnetic = 5;
x = 74;
y = 0;
},
{
angle = 90;
isGlobal = 0;
magnetic = 5;
x = 541;
y = 0;
}
);
};
},
{
color = 6;
glyphname = a;
layers = (
{
anchors = (
{
name = bottom;
position = "{311, 0}";
},
{
name = ogonek;
position = "{580, 122}";
},
{
name = top;
position = "{310, 520}";
}
);
hints = (
{
horizontal = 1;
place = "{0, 0}";
type = Tag;
},
{
horizontal = 1;
place = "{0, 0}";
type = Tag;
}
);
layerId = "EC64484B-0978-4CB1-9EE9-C40A2D8C4059";
paths = (
{
closed = 1;
nodes = (
"273 -10 OFFCURVE",
"324 15 OFFCURVE",
"353 55 CURVE",
"353 27 LINE SMOOTH",
"353 12 OFFCURVE",
"365 0 OFFCURVE",
"380 0 CURVE SMOOTH",
"555 0 LINE SMOOTH",
"570 0 OFFCURVE",
"582 12 OFFCURVE",
"582 27 CURVE SMOOTH",
"582 314 LINE SMOOTH",
"582 451 OFFCURVE",
"495 530 OFFCURVE",
"314 530 CURVE SMOOTH",
"127 530 OFFCURVE",
"54 431 OFFCURVE",
"51 380 CURVE SMOOTH",
"50 367 OFFCURVE",
"60 358 OFFCURVE",
"73 358 CURVE",
"243 358 LINE",
"255 358 OFFCURVE",
"264 362 OFFCURVE",
"271 369 CURVE SMOOTH",
"284 382 OFFCURVE",
"293 390 OFFCURVE",
"312 390 CURVE SMOOTH",
"340 390 OFFCURVE",
"342 375 OFFCURVE",
"342 340 CURVE",
"342 339 LINE",
"236 322 LINE",
"103 299 OFFCURVE",
"17 246 OFFCURVE",
"17 149 CURVE SMOOTH",
"17 59 OFFCURVE",
"96 -10 OFFCURVE",
"211 -10 CURVE SMOOTH"
);
},
{
closed = 1;
nodes = (
"255 138 OFFCURVE",
"242 151 OFFCURVE",
"242 166 CURVE SMOOTH",
"242 180 OFFCURVE",
"251 195 OFFCURVE",
"286 203 CURVE SMOOTH",
"345 216 LINE",
"345 215 LINE",
"345 162 OFFCURVE",
"319 138 OFFCURVE",
"280 138 CURVE SMOOTH"
);
}
);
width = 622;
}
);
leftKerningGroup = a;
rightKerningGroup = a;
unicode = 0061;
},
{
color = 6;
glyphname = aogonek;
layers = (
{
hints = (
{
horizontal = 1;
place = "{0, 0}";
type = Tag;
},
{
horizontal = 1;
place = "{0, 0}";
type = Tag;
},
{
horizontal = 1;
place = "{0, 0}";
type = Tag;
},
{
horizontal = 1;
place = "{0, 0}";
type = Tag;
}
);
layerId = "EC64484B-0978-4CB1-9EE9-C40A2D8C4059";
paths = (
{
closed = 1;
nodes = (
"555 -220 LINE",
"570 -220 OFFCURVE",
"582 -208 OFFCURVE",
"582 -193 CURVE",
"582 -125 LINE",
"582 -110 OFFCURVE",
"570 -98 OFFCURVE",
"555 -98 CURVE",
"545 -98 LINE",
"506 -98 OFFCURVE",
"495 -70 OFFCURVE",
"495 -49 CURVE SMOOTH",
"495 -29 OFFCURVE",
"505 -2 OFFCURVE",
"539 0 CURVE",
"555 0 LINE",
"570 0 OFFCURVE",
"582 12 OFFCURVE",
"582 27 CURVE",
"582 314 LINE",
"582 451 OFFCURVE",
"495 530 OFFCURVE",
"314 530 CURVE SMOOTH",
"127 530 OFFCURVE",
"54 431 OFFCURVE",
"51 380 CURVE SMOOTH",
"50 367 OFFCURVE",
"60 358 OFFCURVE",
"73 358 CURVE",
"240 358 LINE",
"241 358 OFFCURVE",
"242 358 OFFCURVE",
"243 358 CURVE",
"275 358 OFFCURVE",
"278 390 OFFCURVE",
"312 390 CURVE SMOOTH",
"340 390 OFFCURVE",
"342 375 OFFCURVE",
"342 340 CURVE",
"342 339 LINE",
"236 322 LINE",
"103 299 OFFCURVE",
"17 246 OFFCURVE",
"17 149 CURVE SMOOTH",
"17 59 OFFCURVE",
"96 -10 OFFCURVE",
"211 -10 CURVE SMOOTH",
"273 -10 OFFCURVE",
"324 15 OFFCURVE",
"353 55 CURVE",
"353 27 LINE",
"353 14 OFFCURVE",
"361 3 OFFCURVE",
"373 0 CURVE",
"370 -14 OFFCURVE",
"369 -33 OFFCURVE",
"369 -49 CURVE SMOOTH",
"369 -144 OFFCURVE",
"420 -220 OFFCURVE",
"541 -220 CURVE"
);
},
{
closed = 1;
nodes = (
"255 138 OFFCURVE",
"242 151 OFFCURVE",
"242 166 CURVE SMOOTH",
"242 180 OFFCURVE",
"251 195 OFFCURVE",
"286 203 CURVE",
"345 216 LINE",
"345 215 LINE",
"345 162 OFFCURVE",
"319 138 OFFCURVE",
"280 138 CURVE SMOOTH"
);
}
);
width = 622;
}
);
leftKerningGroup = a;
leftMetricsKey = a;
rightKerningGroup = a;
rightMetricsKey = a;
unicode = 0105;
userData = {
com.typemytype.robofont.guides = (
{
angle = 0;
isGlobal = 0;
magnetic = 5;
x = 0;
y = 22;
},
{
angle = 0;
isGlobal = 0;
magnetic = 5;
x = 0;
y = "-220";
},
{
angle = 90;
isGlobal = 0;
magnetic = 5;
x = 472;
y = 0;
}
);
};
},
{
color = 6;
glyphname = ae;
layers = (
{
anchors = (
{
name = bottom;
position = "{468, 0}";
},
{
name = top;
position = "{468, 520}";
}
);
hints = (
{
horizontal = 1;
place = "{0, 0}";
type = Tag;
},
{
horizontal = 1;
place = "{0, 0}";
type = Tag;
},
{
horizontal = 1;
place = "{0, 0}";
type = Tag;
}
);
layerId = "EC64484B-0978-4CB1-9EE9-C40A2D8C4059";
paths = (
{
closed = 1;
nodes = (
"290 -10 OFFCURVE",
"367 -1 OFFCURVE",
"428 51 CURVE",
"476 11 OFFCURVE",
"544 -10 OFFCURVE",
"625 -10 CURVE SMOOTH",
"810 -10 OFFCURVE",
"896 94 OFFCURVE",
"896 145 CURVE SMOOTH",
"896 158 OFFCURVE",
"887 167 OFFCURVE",
"874 167 CURVE SMOOTH",
"685 167 LINE SMOOTH",
"669 167 OFFCURVE",
"664 165 OFFCURVE",
"652 153 CURVE SMOOTH",
"641 142 OFFCURVE",
"635 135 OFFCURVE",
"623 135 CURVE SMOOTH",
"594 135 OFFCURVE",
"584 156 OFFCURVE",
"584 196 CURVE SMOOTH",
"584 201 LINE",
"882 201 LINE SMOOTH",
"897 201 OFFCURVE",
"909 213 OFFCURVE",
"909 228 CURVE SMOOTH",
"909 258 LINE SMOOTH",
"909 405 OFFCURVE",
"820 530 OFFCURVE",
"624 530 CURVE SMOOTH",
"565 530 OFFCURVE",
"514 516 OFFCURVE",
"471 493 CURVE",
"438 517 OFFCURVE",
"388 530 OFFCURVE",
"314 530 CURVE SMOOTH",
"127 530 OFFCURVE",
"51 431 OFFCURVE",
"51 380 CURVE SMOOTH",
"51 367 OFFCURVE",
"60 358 OFFCURVE",
"73 358 CURVE SMOOTH",
"240 358 LINE",
"241 358 OFFCURVE",
"242 358 OFFCURVE",
"243 358 CURVE SMOOTH",
"275 358 OFFCURVE",
"278 390 OFFCURVE",
"312 390 CURVE SMOOTH",
"339 390 OFFCURVE",
"342 376 OFFCURVE",
"342 342 CURVE",
"342 339 LINE",
"236 322 LINE",
"103 299 OFFCURVE",
"17 246 OFFCURVE",
"17 149 CURVE SMOOTH",
"17 59 OFFCURVE",
"95 -10 OFFCURVE",
"231 -10 CURVE SMOOTH"
);
},
{
closed = 1;
nodes = (
"255 138 OFFCURVE",
"242 151 OFFCURVE",
"242 166 CURVE SMOOTH",
"242 180 OFFCURVE",
"251 195 OFFCURVE",
"286 203 CURVE SMOOTH",
"345 216 LINE",
"345 215 LINE",
"345 162 OFFCURVE",
"319 138 OFFCURVE",
"280 138 CURVE SMOOTH"
);
},
{
closed = 1;
nodes = (
"584 330 LINE SMOOTH",
"584 371 OFFCURVE",
"598 390 OFFCURVE",
"624 390 CURVE SMOOTH",
"649 390 OFFCURVE",
"664 371 OFFCURVE",
"664 330 CURVE SMOOTH",
"664 326 LINE",
"584 326 LINE"
);
}
);
width = 935;
}
);
leftKerningGroup = a;
rightKerningGroup = e;
unicode = 00E6;
userData = {
com.typemytype.robofont.guides = (
{
angle = 0;
isGlobal = 0;
magnetic = 5;
x = 0;
y = "-10";
},
{
angle = 0;
isGlobal = 0;
magnetic = 5;
x = 0;
y = 530;
},
{
angle = 90;
isGlobal = 0;
magnetic = 5;
x = 473;
y = 0;
},
{
angle = 90;
isGlobal = 0;
magnetic = 5;
x = "-379";
y = 0;
},
{
angle = 90;
isGlobal = 0;
magnetic = 5;
x = 453;
y = 0;
}
);
};
},
{
color = 6;
glyphname = b;
layers = (
{
anchors = (
{
name = bottom;
position = "{331, 0}";
},
{
name = top;
position = "{331, 750}";
}
);
hints = (
{
horizontal = 1;
place = "{0, 0}";
type = Tag;
},
{
horizontal = 1;
place = "{0, 0}";
type = Tag;
}
);
layerId = "EC64484B-0978-4CB1-9EE9-C40A2D8C4059";
paths = (
{
closed = 1;
nodes = (
"533 -10 OFFCURVE",
"622 54 OFFCURVE",
"629 221 CURVE SMOOTH",
"630 251 OFFCURVE",
"630 270 OFFCURVE",
"629 300 CURVE SMOOTH",
"623 457 OFFCURVE",
"533 530 OFFCURVE",
"417 530 CURVE SMOOTH",
"361 530 OFFCURVE",
"316 512 OFFCURVE",
"284 483 CURVE",
"284 683 LINE SMOOTH",
"284 698 OFFCURVE",
"272 710 OFFCURVE",
"257 710 CURVE SMOOTH",
"72 710 LINE SMOOTH",
"57 710 OFFCURVE",
"45 698 OFFCURVE",
"45 683 CURVE SMOOTH",
"45 27 LINE SMOOTH",
"45 12 OFFCURVE",
"57 0 OFFCURVE",
"72 0 CURVE SMOOTH",
"242 0 LINE SMOOTH",
"257 0 OFFCURVE",
"269 12 OFFCURVE",
"269 27 CURVE SMOOTH",
"269 50 LINE",
"301 14 OFFCURVE",
"348 -10 OFFCURVE",
"417 -10 CURVE SMOOTH"
);
},
{
closed = 1;
nodes = (
"297 169 OFFCURVE",
"286 191 OFFCURVE",
"284 227 CURVE SMOOTH",
"282 257 OFFCURVE",
"282 271 OFFCURVE",
"284 301 CURVE SMOOTH",
"286 333 OFFCURVE",
"300 351 OFFCURVE",
"334 351 CURVE SMOOTH",
"371 351 OFFCURVE",
"380 329 OFFCURVE",
"384 293 CURVE SMOOTH",
"386 273 OFFCURVE",
"386 247 OFFCURVE",
"384 227 CURVE SMOOTH",
"380 191 OFFCURVE",
"371 169 OFFCURVE",
"334 169 CURVE SMOOTH"
);
}
);
width = 661;
}
);
leftKerningGroup = h;
rightKerningGroup = b;
unicode = 0062;
userData = {
com.typemytype.robofont.guides = (
{
angle = 0;
isGlobal = 0;
magnetic = 5;
x = 0;
y = 530;
},
{
angle = 0;
isGlobal = 0;
magnetic = 5;
x = 0;
y = "-10";
},
{
angle = 0;
isGlobal = 0;
magnetic = 5;
x = 0;
y = 710;
},
{
angle = 0;
isGlobal = 0;
magnetic = 5;
x = 0;
y = 288;
},
{
angle = 0;
isGlobal = 0;
magnetic = 5;
x = 0;
y = 232;
},
{
angle = 0;
isGlobal = 0;
magnetic = 5;
x = 0;
y = 451;
},
{
angle = 0;
isGlobal = 0;
magnetic = 5;
x = 0;
y = 69;
},
{
angle = 90;
isGlobal = 0;
magnetic = 5;
x = 121;
y = 0;
},
{
angle = 90;
isGlobal = 0;
magnetic = 5;
x = 79;
y = 0;
}
);
};
},
{
color = 6;
glyphname = c;
layers = (
{
anchors = (
{
name = bottom;
position = "{311, 0}";
},
{
name = top;
position = "{311, 520}";
}
);
hints = (
{
horizontal = 1;
place = "{0, 0}";
type = Tag;
},
{
horizontal = 1;
place = "{0, 0}";
type = Tag;
}
);
layerId = "EC64484B-0978-4CB1-9EE9-C40A2D8C4059";
paths = (
{
closed = 1;
nodes = (
"531 -10 OFFCURVE",
"600 141 OFFCURVE",
"603 184 CURVE SMOOTH",
"604 199 OFFCURVE",
"591 211 OFFCURVE",
"576 211 CURVE SMOOTH",
"381 211 LINE SMOOTH",
"366 211 OFFCURVE",
"357 203 OFFCURVE",
"352 191 CURVE SMOOTH",
"344 172 OFFCURVE",
"339 161 OFFCURVE",
"315 161 CURVE SMOOTH",
"284 161 OFFCURVE",
"277 181 OFFCURVE",
"275 224 CURVE SMOOTH",
"274 243 OFFCURVE",
"274 266 OFFCURVE",
"275 295 CURVE SMOOTH",
"276 335 OFFCURVE",
"284 359 OFFCURVE",
"315 359 CURVE SMOOTH",
"335 359 OFFCURVE",
"343 348 OFFCURVE",
"352 329 CURVE SMOOTH",
"358 317 OFFCURVE",
"366 309 OFFCURVE",
"381 309 CURVE SMOOTH",
"576 309 LINE SMOOTH",
"591 309 OFFCURVE",
"604 321 OFFCURVE",
"603 336 CURVE SMOOTH",
"600 389 OFFCURVE",
"521 530 OFFCURVE",
"310 530 CURVE SMOOTH",
"157 530 OFFCURVE",
"37 448 OFFCURVE",
"30 300 CURVE SMOOTH",
"29 277 OFFCURVE",
"29 240 OFFCURVE",
"30 219 CURVE SMOOTH",
"38 71 OFFCURVE",
"157 -10 OFFCURVE",
"310 -10 CURVE SMOOTH"
);
}
);
width = 622;
}
);
leftKerningGroup = o;
rightKerningGroup = c;
unicode = 0063;
userData = {
com.typemytype.robofont.guides = (
{
angle = 0;
isGlobal = 0;
magnetic = 5;
x = 0;
y = "-10";
},
{
angle = 0;
isGlobal = 0;
magnetic = 5;
x = 0;
y = 295;
},
{
angle = 0;
isGlobal = 0;
magnetic = 5;
x = 0;
y = 225;
},
{
angle = 90;
isGlobal = 0;
magnetic = 5;
x = 445;
y = 0;
},
{
angle = 90;
isGlobal = 0;
magnetic = 5;
x = 484;
y = 0;
},
{
angle = 90;
isGlobal = 0;
magnetic = 5;
x = 137;
y = 0;
},
{
angle = 90;
isGlobal = 0;
magnetic = 5;
x = 270;
y = 0;
}
);
};
},
{
color = 6;
glyphname = ccedilla;
layers = (
{
hints = (
{
horizontal = 1;
place = "{0, 0}";
type = Tag;
},
{
horizontal = 1;
place = "{0, 0}";
type = Tag;
}
);
layerId = "EC64484B-0978-4CB1-9EE9-C40A2D8C4059";
paths = (
{
closed = 1;
nodes = (
"371 -220 OFFCURVE",
"410 -183 OFFCURVE",
"410 -130 CURVE SMOOTH",
"410 -77 OFFCURVE",
"380 -40 OFFCURVE",
"329 -40 CURVE SMOOTH",
"325 -40 OFFCURVE",
"307 -42 OFFCURVE",
"299 -45 CURVE",
"317 -10 LINE",
"532 -7 OFFCURVE",
"600 141 OFFCURVE",
"603 184 CURVE SMOOTH",
"604 199 OFFCURVE",
"591 211 OFFCURVE",
"576 211 CURVE",
"381 211 LINE",
"366 211 OFFCURVE",
"357 203 OFFCURVE",
"352 191 CURVE SMOOTH",
"344 172 OFFCURVE",
"339 161 OFFCURVE",
"315 161 CURVE SMOOTH",
"284 161 OFFCURVE",
"277 181 OFFCURVE",
"275 224 CURVE SMOOTH",
"274 243 OFFCURVE",
"274 266 OFFCURVE",
"275 295 CURVE SMOOTH",
"276 335 OFFCURVE",
"284 359 OFFCURVE",
"315 359 CURVE SMOOTH",
"335 359 OFFCURVE",
"343 348 OFFCURVE",
"352 329 CURVE SMOOTH",
"358 317 OFFCURVE",
"366 309 OFFCURVE",
"381 309 CURVE",
"576 309 LINE",
"591 309 OFFCURVE",
"604 321 OFFCURVE",
"603 336 CURVE SMOOTH",
"600 389 OFFCURVE",
"521 530 OFFCURVE",
"310 530 CURVE SMOOTH",
"157 530 OFFCURVE",
"37 448 OFFCURVE",
"30 300 CURVE SMOOTH",
"29 277 OFFCURVE",
"29 240 OFFCURVE",
"30 219 CURVE SMOOTH",
"37 89 OFFCURVE",
"129 11 OFFCURVE",
"254 -6 CURVE",
"234 -52 LINE",
"225 -71 OFFCURVE",
"227 -76 OFFCURVE",
"236 -85 CURVE",
"257 -106 LINE",
"270 -119 OFFCURVE",
"293 -106 OFFCURVE",
"311 -106 CURVE SMOOTH",
"331 -106 OFFCURVE",
"339 -118 OFFCURVE",
"339 -130 CURVE SMOOTH",
"339 -142 OFFCURVE",
"330 -154 OFFCURVE",
"311 -154 CURVE SMOOTH",
"277 -154 OFFCURVE",
"272 -136 OFFCURVE",
"255 -151 CURVE",
"234 -169 LINE",
"211 -189 OFFCURVE",
"258 -220 OFFCURVE",
"311 -220 CURVE SMOOTH"
);
}
);
width = 622;
}
);
leftKerningGroup = o;
rightKerningGroup = c;
unicode = 00E7;
},
{
color = 6;
glyphname = d;
layers = (
{
anchors = (
{
name = bottom;
position = "{331, 0}";
},
{
name = center;
position = "{466, 612}";
},
{
name = top;
position = "{331, 750}";
},
{
name = topright;
position = "{781, 710}";
}
);
hints = (
{
horizontal = 1;
place = "{0, 0}";
type = Tag;
},
{
horizontal = 1;
place = "{0, 0}";
type = Tag;
}
);
layerId = "EC64484B-0978-4CB1-9EE9-C40A2D8C4059";
paths = (
{
closed = 1;
nodes = (
"313 -10 OFFCURVE",
"360 14 OFFCURVE",
"392 50 CURVE",
"392 27 LINE SMOOTH",
"392 12 OFFCURVE",
"404 0 OFFCURVE",
"419 0 CURVE SMOOTH",
"589 0 LINE SMOOTH",
"604 0 OFFCURVE",
"616 12 OFFCURVE",
"616 27 CURVE SMOOTH",
"616 683 LINE SMOOTH",
"616 698 OFFCURVE",
"604 710 OFFCURVE",
"589 710 CURVE SMOOTH",
"404 710 LINE SMOOTH",
"389 710 OFFCURVE",
"377 698 OFFCURVE",
"377 683 CURVE SMOOTH",
"377 483 LINE",
"345 512 OFFCURVE",
"300 530 OFFCURVE",
"244 530 CURVE SMOOTH",
"128 530 OFFCURVE",
"38 457 OFFCURVE",
"32 300 CURVE SMOOTH",
"31 270 OFFCURVE",
"31 251 OFFCURVE",
"32 221 CURVE SMOOTH",
"39 54 OFFCURVE",
"128 -10 OFFCURVE",
"244 -10 CURVE SMOOTH"
);
},
{
closed = 1;
nodes = (
"290 169 OFFCURVE",
"281 191 OFFCURVE",
"277 227 CURVE SMOOTH",
"275 247 OFFCURVE",
"275 273 OFFCURVE",
"277 293 CURVE SMOOTH",
"281 329 OFFCURVE",
"290 351 OFFCURVE",
"327 351 CURVE SMOOTH",
"361 351 OFFCURVE",
"375 333 OFFCURVE",
"377 301 CURVE SMOOTH",
"379 271 OFFCURVE",
"379 257 OFFCURVE",
"377 227 CURVE SMOOTH",
"375 191 OFFCURVE",
"364 169 OFFCURVE",
"327 169 CURVE SMOOTH"
);
}
);
width = 661;
}
);
leftKerningGroup = d;
rightKerningGroup = d;
unicode = 0064;
userData = {
com.typemytype.robofont.guides = (
{
angle = 0;
isGlobal = 0;
magnetic = 5;
x = 0;
y = 650;
},
{
angle = 0;
isGlobal = 0;
magnetic = 5;
x = 0;
y = 530;
},
{
angle = 90;
isGlobal = 0;
magnetic = 5;
x = 438;
y = 0;
},
{
angle = 90;
isGlobal = 0;
magnetic = 5;
x = 499;
y = 0;
}
);
};
},
{
color = 6;
glyphname = dcroat;
layers = (
{
hints = (
{
horizontal = 1;
place = "{0, 0}";
type = Tag;
},
{
horizontal = 1;
place = "{0, 0}";
type = Tag;
}
);
layerId = "EC64484B-0978-4CB1-9EE9-C40A2D8C4059";
paths = (
{
closed = 1;
nodes = (
"313 -10 OFFCURVE",
"362 18 OFFCURVE",
"392 57 CURVE",
"392 27 LINE SMOOTH",
"392 12 OFFCURVE",
"404 0 OFFCURVE",
"419 0 CURVE SMOOTH",
"589 0 LINE SMOOTH",
"604 0 OFFCURVE",
"616 12 OFFCURVE",
"616 27 CURVE SMOOTH",
"616 548 LINE",
"646 548 LINE SMOOTH",
"661 548 OFFCURVE",
"673 560 OFFCURVE",
"673 575 CURVE SMOOTH",
"673 626 LINE SMOOTH",
"673 641 OFFCURVE",
"661 653 OFFCURVE",
"646 653 CURVE SMOOTH",
"616 653 LINE",
"616 683 LINE SMOOTH",
"616 698 OFFCURVE",
"604 710 OFFCURVE",
"589 710 CURVE SMOOTH",
"404 710 LINE SMOOTH",
"389 710 OFFCURVE",
"377 698 OFFCURVE",
"377 683 CURVE SMOOTH",
"377 653 LINE",
"347 653 LINE SMOOTH",
"332 653 OFFCURVE",
"320 641 OFFCURVE",
"320 626 CURVE SMOOTH",
"320 575 LINE SMOOTH",
"320 560 OFFCURVE",
"332 548 OFFCURVE",
"347 548 CURVE SMOOTH",
"377 548 LINE",
"377 483 LINE",
"345 512 OFFCURVE",
"300 530 OFFCURVE",
"244 530 CURVE SMOOTH",
"128 530 OFFCURVE",
"38 457 OFFCURVE",
"32 300 CURVE SMOOTH",
"31 270 OFFCURVE",
"31 251 OFFCURVE",
"32 221 CURVE SMOOTH",
"39 54 OFFCURVE",
"128 -10 OFFCURVE",
"244 -10 CURVE SMOOTH"
);
},
{
closed = 1;
nodes = (
"290 169 OFFCURVE",
"281 191 OFFCURVE",
"277 227 CURVE SMOOTH",
"275 247 OFFCURVE",
"275 273 OFFCURVE",
"277 293 CURVE SMOOTH",
"281 329 OFFCURVE",
"290 351 OFFCURVE",
"327 351 CURVE SMOOTH",
"361 351 OFFCURVE",
"375 333 OFFCURVE",
"377 301 CURVE SMOOTH",
"379 271 OFFCURVE",
"379 257 OFFCURVE",
"377 227 CURVE SMOOTH",
"375 191 OFFCURVE",
"364 169 OFFCURVE",
"327 169 CURVE SMOOTH"
);
}
);
width = 662;
}
);
leftKerningGroup = d;
rightKerningGroup = d;
unicode = 0111;
userData = {
com.typemytype.robofont.guides = (
{
angle = 0;
isGlobal = 0;
magnetic = 5;
x = 0;
y = 600;
}
);
};
},
{
color = 6;
glyphname = eth;
layers = (
{
hints = (
{
horizontal = 1;
place = "{0, 0}";
type = Tag;
}
);
layerId = "EC64484B-0978-4CB1-9EE9-C40A2D8C4059";
paths = (
{
closed = 1;
nodes = (
"489 -10 OFFCURVE",
"597 68 OFFCURVE",
"606 225 CURVE SMOOTH",
"607 245 OFFCURVE",
"607 268 OFFCURVE",
"606 288 CURVE SMOOTH",
"599 424 OFFCURVE",
"560 524 OFFCURVE",
"498 601 CURVE",
"539 617 LINE",
"555 623 OFFCURVE",
"561 632 OFFCURVE",
"561 650 CURVE",
"561 678 LINE",
"561 690 OFFCURVE",
"552 699 OFFCURVE",
"540 699 CURVE SMOOTH",
"538 699 OFFCURVE",
"534 698 OFFCURVE",
"529 696 CURVE",
"439 661 LINE",
"429 670 OFFCURVE",
"417 678 OFFCURVE",
"406 687 CURVE SMOOTH",
"396 694 OFFCURVE",
"380 700 OFFCURVE",
"353 700 CURVE",
"165 700 LINE",
"153 700 OFFCURVE",
"143 690 OFFCURVE",
"143 678 CURVE SMOOTH",
"143 673 OFFCURVE",
"147 665 OFFCURVE",
"156 659 CURVE SMOOTH",
"188 637 OFFCURVE",
"219 613 OFFCURVE",
"246 586 CURVE",
"172 557 LINE",
"156 551 OFFCURVE",
"150 542 OFFCURVE",
"150 524 CURVE",
"150 496 LINE",
"150 484 OFFCURVE",
"159 475 OFFCURVE",
"171 475 CURVE SMOOTH",
"173 475 OFFCURVE",
"177 476 OFFCURVE",
"182 478 CURVE",
"300 524 LINE",
"312 506 OFFCURVE",
"322 488 OFFCURVE",
"330 470 CURVE",
"325 470 OFFCURVE",
"321 470 OFFCURVE",
"316 470 CURVE",
"153 470 OFFCURVE",
"26 392 OFFCURVE",
"26 230 CURVE SMOOTH",
"26 68 OFFCURVE",
"142 -10 OFFCURVE",
"316 -10 CURVE SMOOTH"
);
},
{
closed = 1;
nodes = (
"279 150 OFFCURVE",
"272 171 OFFCURVE",
"271 204 CURVE SMOOTH",
"270 224 OFFCURVE",
"270 236 OFFCURVE",
"271 256 CURVE SMOOTH",
"273 288 OFFCURVE",
"279 310 OFFCURVE",
"316 310 CURVE SMOOTH",
"353 310 OFFCURVE",
"359 288 OFFCURVE",
"361 256 CURVE SMOOTH",
"362 236 OFFCURVE",
"362 223 OFFCURVE",
"361 203 CURVE SMOOTH",
"360 171 OFFCURVE",
"350 150 OFFCURVE",
"316 150 CURVE SMOOTH"
);
}
);
width = 638;
}
);
unicode = 00F0;
userData = {
com.typemytype.robofont.guides = (
{
angle = 0;
isGlobal = 0;
magnetic = 5;
x = 0;
y = 512;
},
{
angle = 90;
isGlobal = 0;
magnetic = 5;
x = 214;
y = 0;
},
{
angle = 90;
isGlobal = 0;
magnetic = 5;
x = 484;
y = 0;
}
);
};
},
{
color = 6;
glyphname = e;
layers = (
{
anchors = (
{
name = bottom;
position = "{312, 0}";
},
{
name = ogonek;
position = "{561, 10}";
},
{
name = top;
position = "{312, 520}";
}
);
hints = (
{
horizontal = 1;
place = "{0, 0}";
type = Tag;
}
);
layerId = "EC64484B-0978-4CB1-9EE9-C40A2D8C4059";
paths = (
{
closed = 1;
nodes = (
"499 -10 OFFCURVE",
"582 94 OFFCURVE",
"585 145 CURVE SMOOTH",
"586 158 OFFCURVE",
"576 167 OFFCURVE",
"563 167 CURVE SMOOTH",
"374 167 LINE SMOOTH",
"358 167 OFFCURVE",
"353 165 OFFCURVE",
"341 153 CURVE SMOOTH",
"330 142 OFFCURVE",
"324 135 OFFCURVE",
"312 135 CURVE SMOOTH",
"283 135 OFFCURVE",
"273 156 OFFCURVE",
"273 196 CURVE SMOOTH",
"273 198 OFFCURVE",
"273 199 OFFCURVE",
"273 201 CURVE",
"571 201 LINE SMOOTH",
"586 201 OFFCURVE",
"598 213 OFFCURVE",
"598 228 CURVE SMOOTH",
"598 258 LINE SMOOTH",
"598 405 OFFCURVE",
"509 530 OFFCURVE",
"313 530 CURVE SMOOTH",
"142 530 OFFCURVE",
"31 438 OFFCURVE",
"28 266 CURVE SMOOTH",
"28 264 OFFCURVE",
"28 261 OFFCURVE",
"28 259 CURVE SMOOTH",
"28 72 OFFCURVE",
"139 -10 OFFCURVE",
"314 -10 CURVE SMOOTH"
);
},
{
closed = 1;
nodes = (
"273 327 LINE",
"273 371 OFFCURVE",
"287 390 OFFCURVE",
"313 390 CURVE SMOOTH",
"339 390 OFFCURVE",
"353 371 OFFCURVE",
"353 327 CURVE",
"353 326 LINE",
"273 326 LINE"
);
}
);
width = 623;
}
);
leftKerningGroup = o;
rightKerningGroup = e;
unicode = 0065;
userData = {
com.typemytype.robofont.guides = (
{
angle = 0;
isGlobal = 0;
magnetic = 5;
x = 0;
y = "-10";
},
{
angle = 90;
isGlobal = 0;
magnetic = 5;
x = 275;
y = 0;
},
{
angle = 90;
isGlobal = 0;
magnetic = 5;
x = 496;
y = 0;
},
{
angle = 90;
isGlobal = 0;
magnetic = 5;
x = 61;
y = 0;
},
{
angle = 90;
isGlobal = 0;
magnetic = 5;
x = 122;
y = 0;
},
{
angle = 90;
isGlobal = 0;
magnetic = 5;
x = 430;
y = 0;
}
);
};
},
{
color = 6;
glyphname = eogonek;
layers = (
{
anchors = (
{
name = top;
position = "{312, 520}";
}
);
hints = (
{
horizontal = 1;
place = "{0, 0}";
type = Tag;
},
{
horizontal = 1;
place = "{0, 0}";
type = Tag;
},
{
horizontal = 1;
place = "{0, 0}";
type = Tag;
}
);
layerId = "EC64484B-0978-4CB1-9EE9-C40A2D8C4059";
paths = (
{
closed = 1;
nodes = (
"382 -220 LINE",
"397 -220 OFFCURVE",
"409 -208 OFFCURVE",
"409 -193 CURVE",
"409 -125 LINE",
"409 -110 OFFCURVE",
"397 -98 OFFCURVE",
"382 -98 CURVE",
"372 -98 LINE",
"333 -98 OFFCURVE",
"322 -70 OFFCURVE",
"322 -49 CURVE SMOOTH",
"322 -28 OFFCURVE",
"338 -12 OFFCURVE",
"380 -5 CURVE",
"519 15 OFFCURVE",
"582 100 OFFCURVE",
"585 145 CURVE SMOOTH",
"586 158 OFFCURVE",
"576 167 OFFCURVE",
"563 167 CURVE",
"374 167 LINE",
"358 167 OFFCURVE",
"353 165 OFFCURVE",
"341 153 CURVE SMOOTH",
"330 142 OFFCURVE",
"324 135 OFFCURVE",
"312 135 CURVE SMOOTH",
"283 135 OFFCURVE",
"273 156 OFFCURVE",
"273 196 CURVE",
"273 201 LINE",
"571 201 LINE",
"586 201 OFFCURVE",
"598 213 OFFCURVE",
"598 228 CURVE",
"598 258 LINE",
"598 405 OFFCURVE",
"509 530 OFFCURVE",
"313 530 CURVE SMOOTH",
"142 530 OFFCURVE",
"30 437 OFFCURVE",
"28 264 CURVE SMOOTH",
"28 262 OFFCURVE",
"28 261 OFFCURVE",
"28 259 CURVE SMOOTH",
"28 116 OFFCURVE",
"93 34 OFFCURVE",
"202 3 CURVE",
"198 -13 OFFCURVE",
"196 -30 OFFCURVE",
"196 -49 CURVE SMOOTH",
"196 -144 OFFCURVE",
"247 -220 OFFCURVE",
"368 -220 CURVE SMOOTH"
);
},
{
closed = 1;
nodes = (
"273 327 LINE",
"273 371 OFFCURVE",
"287 390 OFFCURVE",
"313 390 CURVE SMOOTH",
"339 390 OFFCURVE",
"353 371 OFFCURVE",
"353 327 CURVE",
"353 326 LINE",
"273 326 LINE"
);
}
);
width = 623;
}
);
leftKerningGroup = o;
rightKerningGroup = e;
unicode = 0119;
userData = {
com.typemytype.robofont.guides = (
{
angle = 0;
isGlobal = 0;
magnetic = 5;
x = 0;
y = 259;
},
{
angle = 0;
isGlobal = 0;
magnetic = 5;
x = 0;
y = "-220";
},
{
angle = 90;
isGlobal = 0;
magnetic = 5;
x = 339;
y = 0;
}
);
};
},
{
color = 6;
glyphname = f;
layers = (
{
anchors = (
{
name = bottom;
position = "{246, 0}";
},
{
name = top;
position = "{246, 750}";
}
);
hints = (
{
horizontal = 1;
place = "{0, 0}";
type = Tag;
}
);
layerId = "EC64484B-0978-4CB1-9EE9-C40A2D8C4059";
paths = (
{
closed = 1;
nodes = (
"313 0 LINE SMOOTH",
"328 0 OFFCURVE",
"340 12 OFFCURVE",
"340 27 CURVE SMOOTH",
"340 345 LINE",
"454 345 LINE SMOOTH",
"469 345 OFFCURVE",
"481 357 OFFCURVE",
"481 372 CURVE SMOOTH",
"481 493 LINE SMOOTH",
"481 508 OFFCURVE",
"469 520 OFFCURVE",
"454 520 CURVE SMOOTH",
"340 520 LINE",
"340 532 LINE SMOOTH",
"340 553 OFFCURVE",
"353 565 OFFCURVE",
"383 565 CURVE SMOOTH",
"464 565 LINE SMOOTH",
"479 565 OFFCURVE",
"491 577 OFFCURVE",
"491 592 CURVE SMOOTH",
"491 713 LINE SMOOTH",
"491 728 OFFCURVE",
"479 740 OFFCURVE",
"464 740 CURVE SMOOTH",
"371 740 LINE SMOOTH",
"226 740 OFFCURVE",
"111 701 OFFCURVE",
"111 537 CURVE SMOOTH",
"111 520 LINE",
"42 520 LINE SMOOTH",
"27 520 OFFCURVE",
"15 508 OFFCURVE",
"15 493 CURVE SMOOTH",
"15 372 LINE SMOOTH",
"15 357 OFFCURVE",
"27 345 OFFCURVE",
"42 345 CURVE SMOOTH",
"111 345 LINE",
"111 27 LINE SMOOTH",
"111 12 OFFCURVE",
"123 0 OFFCURVE",
"138 0 CURVE SMOOTH"
);
}
);
width = 492;
}
);
leftKerningGroup = f;
rightKerningGroup = f;
unicode = 0066;
userData = {
com.typemytype.robofont.guides = (
{
angle = 0;
isGlobal = 0;
magnetic = 5;
x = 0;
y = 345;
},
{
angle = 0;
isGlobal = 0;
magnetic = 5;
x = 0;
y = 9;
},
{
angle = 0;
isGlobal = 0;
magnetic = 5;
x = 0;
y = 740;
},
{
angle = 90;
isGlobal = 0;
magnetic = 5;
x = 297;
y = 0;
},
{
angle = 90;
isGlobal = 0;
magnetic = 5;
x = 371;
y = 0;
}
);
};
},
{
color = 6;
glyphname = g;
layers = (
{
anchors = (
{
name = bottom;
position = "{333, -225}";
},
{
name = top;
position = "{327, 520}";
}
);
hints = (
{
horizontal = 1;
place = "{0, 0}";
type = Tag;
},
{
horizontal = 1;
place = "{0, 0}";
type = Tag;
},
{
horizontal = 1;
place = "{0, 0}";
type = Tag;
}
);
layerId = "EC64484B-0978-4CB1-9EE9-C40A2D8C4059";
paths = (
{
closed = 1;
nodes = (
"496 -220 OFFCURVE",
"621 -151 OFFCURVE",
"621 17 CURVE",
"620 493 LINE",
"620 508 OFFCURVE",
"608 520 OFFCURVE",
"593 520 CURVE",
"418 520 LINE",
"403 520 OFFCURVE",
"391 508 OFFCURVE",
"391 493 CURVE",
"391 462 LINE",
"359 502 OFFCURVE",
"308 530 OFFCURVE",
"243 530 CURVE SMOOTH",
"117 530 OFFCURVE",
"39 457 OFFCURVE",
"31 300 CURVE",
"30 280 OFFCURVE",
"30 269 OFFCURVE",
"31 249 CURVE",
"40 82 OFFCURVE",
"117 23 OFFCURVE",
"243 23 CURVE SMOOTH",
"301 23 OFFCURVE",
"345 39 OFFCURVE",
"376 66 CURVE",
"376 0 LINE",
"376 -40 OFFCURVE",
"362 -59 OFFCURVE",
"333 -59 CURVE SMOOTH",
"309 -59 OFFCURVE",
"300 -51 OFFCURVE",
"291 -34 CURVE SMOOTH",
"285 -22 OFFCURVE",
"278 -14 OFFCURVE",
"263 -14 CURVE",
"68 -14 LINE",
"53 -14 OFFCURVE",
"40 -26 OFFCURVE",
"41 -41 CURVE SMOOTH",
"44 -84 OFFCURVE",
"112 -220 OFFCURVE",
"338 -220 CURVE SMOOTH"
);
},
{
closed = 1;
nodes = (
"289 197 OFFCURVE",
"279 219 OFFCURVE",
"276 255 CURVE SMOOTH",
"275 265 OFFCURVE",
"275 283 OFFCURVE",
"276 293 CURVE",
"279 329 OFFCURVE",
"289 351 OFFCURVE",
"326 351 CURVE SMOOTH",
"360 351 OFFCURVE",
"373 333 OFFCURVE",
"376 301 CURVE SMOOTH",
"377 291 OFFCURVE",
"377 257 OFFCURVE",
"376 247 CURVE SMOOTH",
"373 215 OFFCURVE",
"360 197 OFFCURVE",
"326 197 CURVE SMOOTH"
);
}
);
width = 666;
}
);
leftKerningGroup = g;
rightKerningGroup = u;
unicode = 0067;
userData = {
com.typemytype.robofont.guides = (
{
angle = 0;
isGlobal = 0;
magnetic = 5;
x = 0;
y = 530;
},
{
angle = 0;
isGlobal = 0;
magnetic = 5;
x = 0;
y = "-220";
},
{
angle = 0;
isGlobal = 0;
magnetic = 5;
x = 0;
y = 288;
},
{
angle = 0;
isGlobal = 0;
magnetic = 5;
x = 0;
y = 232;
},
{
angle = 90;
isGlobal = 0;
magnetic = 5;
x = 56;
y = 0;
},
{
angle = 90;
isGlobal = 0;
magnetic = 5;
x = 270;
y = 0;
}
);
};
},
{
color = 6;
glyphname = h;
layers = (
{
anchors = (
{
name = bottom;
position = "{343, 0}";
},
{
name = center;
position = "{187, 599}";
},
{
name = top;
position = "{343, 676}";
}
);
layerId = "EC64484B-0978-4CB1-9EE9-C40A2D8C4059";
paths = (
{
closed = 1;
nodes = (
"267 0 LINE SMOOTH",
"282 0 OFFCURVE",
"294 12 OFFCURVE",
"294 27 CURVE SMOOTH",
"294 296 LINE SMOOTH",
"294 332 OFFCURVE",
"313 351 OFFCURVE",
"345 351 CURVE SMOOTH",
"377 351 OFFCURVE",
"395 332 OFFCURVE",
"395 296 CURVE SMOOTH",
"395 27 LINE SMOOTH",
"395 12 OFFCURVE",
"407 0 OFFCURVE",
"422 0 CURVE SMOOTH",
"618 0 LINE SMOOTH",
"633 0 OFFCURVE",
"645 12 OFFCURVE",
"645 27 CURVE SMOOTH",
"645 303 LINE SMOOTH",
"645 461 OFFCURVE",
"547 530 OFFCURVE",
"446 530 CURVE SMOOTH",
"384 530 OFFCURVE",
"329 506 OFFCURVE",
"294 468 CURVE",
"294 683 LINE SMOOTH",
"294 698 OFFCURVE",
"282 710 OFFCURVE",
"267 710 CURVE SMOOTH",
"72 710 LINE SMOOTH",
"57 710 OFFCURVE",
"45 698 OFFCURVE",
"45 683 CURVE SMOOTH",
"45 27 LINE SMOOTH",
"45 12 OFFCURVE",
"57 0 OFFCURVE",
"72 0 CURVE SMOOTH"
);
}
);
width = 685;
}
);
leftKerningGroup = h;
rightKerningGroup = n;
unicode = 0068;
userData = {
com.typemytype.robofont.guides = (
{
angle = 0;
isGlobal = 0;
magnetic = 5;
x = 0;
y = 9;
},
{
angle = 0;
isGlobal = 0;
magnetic = 5;
x = 0;
y = 301;
},
{
angle = 0;
isGlobal = 0;
magnetic = 5;
x = 0;
y = 414;
},
{
angle = 0;
isGlobal = 0;
magnetic = 5;
x = 0;
y = 710;
},
{
angle = 90;
isGlobal = 0;
magnetic = 5;
x = 79;
y = 0;
},
{
angle = 90;
isGlobal = 0;
magnetic = 5;
x = 291;
y = 0;
}
);
};
},
{
color = 3;
glyphname = hbar;
layers = (
{
components = (
{
name = h;
}
);
hints = (
{
horizontal = 1;
place = "{0, 0}";
type = Tag;
}
);
layerId = "EC64484B-0978-4CB1-9EE9-C40A2D8C4059";
paths = (
{
closed = 1;
nodes = (
"339 538 LINE SMOOTH",
"354 538 OFFCURVE",
"366 550 OFFCURVE",
"366 565 CURVE SMOOTH",
"366 616 LINE SMOOTH",
"366 631 OFFCURVE",
"354 643 OFFCURVE",
"339 643 CURVE SMOOTH",
"20 643 LINE SMOOTH",
"5 643 OFFCURVE",
"-7 631 OFFCURVE",
"-7 616 CURVE SMOOTH",
"-7 565 LINE SMOOTH",
"-7 550 OFFCURVE",
"5 538 OFFCURVE",
"20 538 CURVE SMOOTH"
);
}
);
width = 685;
}
);
leftKerningGroup = h;
rightKerningGroup = n;
rightMetricsKey = h;
unicode = 0127;
userData = {
com.typemytype.robofont.guides = (
{
angle = 90;
isGlobal = 0;
magnetic = 5;
x = 189;
y = 0;
},
{
angle = 90;
isGlobal = 0;
magnetic = 5;
x = 110;
y = 0;
}
);
};
},
{
color = 6;
glyphname = i;
layers = (
{
anchors = (
{
name = bottom;
position = "{162, 0}";
},
{
name = top;
position = "{166, 772}";
}
);
hints = (
{
horizontal = 1;
place = "{0, 0}";
type = Tag;
}
);
layerId = "EC64484B-0978-4CB1-9EE9-C40A2D8C4059";
paths = (
{
closed = 1;
nodes = (
"251 0 LINE SMOOTH",
"266 0 OFFCURVE",
"278 12 OFFCURVE",
"278 27 CURVE SMOOTH",
"278 493 LINE SMOOTH",
"278 508 OFFCURVE",
"266 520 OFFCURVE",
"251 520 CURVE SMOOTH",
"72 520 LINE SMOOTH",
"57 520 OFFCURVE",
"45 508 OFFCURVE",
"45 493 CURVE SMOOTH",
"45 27 LINE SMOOTH",
"45 12 OFFCURVE",
"57 0 OFFCURVE",
"72 0 CURVE SMOOTH"
);
},
{
closed = 1;
nodes = (
"246 575 LINE SMOOTH",
"261 575 OFFCURVE",
"273 587 OFFCURVE",
"273 602 CURVE SMOOTH",
"273 723 LINE SMOOTH",
"273 738 OFFCURVE",
"261 750 OFFCURVE",
"246 750 CURVE SMOOTH",
"77 750 LINE SMOOTH",
"62 750 OFFCURVE",
"50 738 OFFCURVE",
"50 723 CURVE SMOOTH",
"50 602 LINE SMOOTH",
"50 587 OFFCURVE",
"62 575 OFFCURVE",
"77 575 CURVE SMOOTH"
);
}
);
width = 323;
}
);
leftKerningGroup = i;
rightKerningGroup = i;
unicode = 0069;
userData = {
com.typemytype.robofont.guides = (
{
angle = 0;
isGlobal = 0;
magnetic = 5;
x = 0;
y = 510;
},
{
angle = 0;
isGlobal = 0;
magnetic = 5;
x = 0;
y = 22;
},
{
angle = 0;
isGlobal = 0;
magnetic = 5;
x = 0;
y = 627;
},
{
angle = 90;
isGlobal = 0;
magnetic = 5;
x = 79;
y = 0;
},
{
angle = 90;
isGlobal = 0;
magnetic = 5;
x = 121;
y = 0;
},
{
angle = 90;
isGlobal = 0;
magnetic = 5;
x = 70;
y = 0;
},
{
angle = 90;
isGlobal = 0;
magnetic = 5;
x = 131;
y = 0;
}
);
};
},
{
color = 6;
glyphname = idotless;
layers = (
{
anchors = (
{
name = bottom;
position = "{162, 0}";
},
{
name = ogonek;
position = "{291, 10}";
},
{
name = top;
position = "{162, 520}";
}
);
hints = (
{
horizontal = 1;
place = "{0, 0}";
type = Tag;
}
);
layerId = "EC64484B-0978-4CB1-9EE9-C40A2D8C4059";
paths = (
{
closed = 1;
nodes = (
"251 0 LINE",
"266 0 OFFCURVE",
"278 12 OFFCURVE",
"278 27 CURVE SMOOTH",
"278 493 LINE SMOOTH",
"278 508 OFFCURVE",
"266 520 OFFCURVE",
"251 520 CURVE SMOOTH",
"72 520 LINE SMOOTH",
"57 520 OFFCURVE",
"45 508 OFFCURVE",
"45 493 CURVE SMOOTH",
"45 27 LINE SMOOTH",
"45 12 OFFCURVE",
"57 0 OFFCURVE",
"72 0 CURVE SMOOTH"
);
}
);
width = 323;
}
);
leftKerningGroup = i;
rightKerningGroup = i;
unicode = 0131;
},
{
color = 6;
glyphname = iogonek;
layers = (
{
hints = (
{
horizontal = 1;
place = "{0, 0}";
type = Tag;
},
{
horizontal = 1;
place = "{0, 0}";
type = Tag;
}
);
layerId = "EC64484B-0978-4CB1-9EE9-C40A2D8C4059";
paths = (
{
closed = 1;
nodes = (
"251 -192 LINE SMOOTH",
"266 -192 OFFCURVE",
"278 -180 OFFCURVE",
"278 -165 CURVE SMOOTH",
"278 -107 LINE SMOOTH",
"278 -92 OFFCURVE",
"266 -80 OFFCURVE",
"251 -80 CURVE",
"241 -80 LINE SMOOTH",
"202 -80 OFFCURVE",
"191 -61 OFFCURVE",
"191 -40 CURVE SMOOTH",
"191 -19 OFFCURVE",
"202 0 OFFCURVE",
"241 0 CURVE SMOOTH",
"251 0 LINE SMOOTH",
"266 0 OFFCURVE",
"278 12 OFFCURVE",
"278 27 CURVE SMOOTH",
"278 493 LINE SMOOTH",
"278 508 OFFCURVE",
"266 520 OFFCURVE",
"251 520 CURVE SMOOTH",
"72 520 LINE SMOOTH",
"57 520 OFFCURVE",
"45 508 OFFCURVE",
"45 493 CURVE SMOOTH",
"45 27 LINE SMOOTH",
"45 12 OFFCURVE",
"57 0 OFFCURVE",
"72 0 CURVE SMOOTH",
"79 0 LINE",
"76 -12 OFFCURVE",
"75 -26 OFFCURVE",
"75 -40 CURVE SMOOTH",
"75 -125 OFFCURVE",
"126 -192 OFFCURVE",
"237 -192 CURVE SMOOTH"
);
},
{
closed = 1;
nodes = (
"246 575 LINE SMOOTH",
"261 575 OFFCURVE",
"273 587 OFFCURVE",
"273 602 CURVE SMOOTH",
"273 723 LINE SMOOTH",
"273 738 OFFCURVE",
"261 750 OFFCURVE",
"246 750 CURVE SMOOTH",
"77 750 LINE SMOOTH",
"62 750 OFFCURVE",
"50 738 OFFCURVE",
"50 723 CURVE SMOOTH",
"50 602 LINE SMOOTH",
"50 587 OFFCURVE",
"62 575 OFFCURVE",
"77 575 CURVE SMOOTH"
);
}
);
width = 323;
}
);
leftKerningGroup = i;
rightKerningGroup = i;
unicode = 012F;
userData = {
com.typemytype.robofont.guides = (
{
angle = 0;
isGlobal = 0;
magnetic = 5;
x = 0;
y = 22;
},
{
angle = 90;
isGlobal = 0;
magnetic = 5;
x = 131;
y = 0;
}
);
};
},
{
color = 6;
glyphname = j;
layers = (
{
anchors = (
{
name = top;
position = "{179, 772}";
}
);
layerId = "EC64484B-0978-4CB1-9EE9-C40A2D8C4059";
paths = (
{
closed = 1;
nodes = (
"45 -190 LINE SMOOTH",
"190 -190 OFFCURVE",
"300 -121 OFFCURVE",
"300 29 CURVE SMOOTH",
"300 493 LINE SMOOTH",
"300 508 OFFCURVE",
"288 520 OFFCURVE",
"273 520 CURVE SMOOTH",
"85 520 LINE SMOOTH",
"70 520 OFFCURVE",
"58 508 OFFCURVE",
"58 493 CURVE SMOOTH",
"58 35 LINE SMOOTH",
"58 4 OFFCURVE",
"45 -15 OFFCURVE",
"15 -15 CURVE SMOOTH",
"-43 -15 LINE SMOOTH",
"-58 -15 OFFCURVE",
"-70 -27 OFFCURVE",
"-70 -42 CURVE SMOOTH",
"-70 -163 LINE SMOOTH",
"-70 -178 OFFCURVE",
"-58 -190 OFFCURVE",
"-43 -190 CURVE SMOOTH"
);
},
{
closed = 1;
nodes = (
"268 575 LINE SMOOTH",
"283 575 OFFCURVE",
"295 587 OFFCURVE",
"295 602 CURVE SMOOTH",
"295 723 LINE SMOOTH",
"295 738 OFFCURVE",
"283 750 OFFCURVE",
"268 750 CURVE SMOOTH",
"90 750 LINE SMOOTH",
"75 750 OFFCURVE",
"63 738 OFFCURVE",
"63 723 CURVE SMOOTH",
"63 602 LINE SMOOTH",
"63 587 OFFCURVE",
"75 575 OFFCURVE",
"90 575 CURVE SMOOTH"
);
}
);
width = 345;
}
);
rightKerningGroup = i;
unicode = 006A;
userData = {
com.typemytype.robofont.guides = (
{
angle = 0;
isGlobal = 0;
magnetic = 5;
x = 0;
y = 740;
},
{
angle = 0;
isGlobal = 0;
magnetic = 5;
x = 0;
y = "-190";
},
{
angle = 90;
isGlobal = 0;
magnetic = 5;
x = "-46";
y = 0;
}
);
};
},
{
color = 6;
glyphname = jdotless;
layers = (
{
anchors = (
{
name = bottom;
position = "{241, -225}";
},
{
name = top;
position = "{241, 520}";
}
);
hints = (
{
horizontal = 1;
place = "{0, 0}";
type = Tag;
}
);
layerId = "EC64484B-0978-4CB1-9EE9-C40A2D8C4059";
paths = (
{
closed = 1;
nodes = (
"182 -190 LINE",
"327 -190 OFFCURVE",
"437 -94 OFFCURVE",
"437 70 CURVE SMOOTH",
"437 493 LINE SMOOTH",
"437 508 OFFCURVE",
"425 520 OFFCURVE",
"410 520 CURVE SMOOTH",
"52 520 LINE SMOOTH",
"37 520 OFFCURVE",
"25 508 OFFCURVE",
"25 493 CURVE SMOOTH",
"25 364 LINE SMOOTH",
"25 349 OFFCURVE",
"37 337 OFFCURVE",
"52 337 CURVE SMOOTH",
"193 337 LINE",
"193 70 LINE SMOOTH",
"193 39 OFFCURVE",
"180 20 OFFCURVE",
"150 20 CURVE SMOOTH",
"49 20 LINE SMOOTH",
"34 20 OFFCURVE",
"22 8 OFFCURVE",
"22 -7 CURVE SMOOTH",
"22 -163 LINE SMOOTH",
"22 -178 OFFCURVE",
"34 -190 OFFCURVE",
"49 -190 CURVE SMOOTH"
);
}
);
width = 482;
}
);
leftKerningGroup = dotlessj;
rightKerningGroup = i;
unicode = 0237;
userData = {
com.typemytype.robofont.guides = (
{
angle = 0;
isGlobal = 0;
magnetic = 5;
x = 0;
y = "-190";
},
{
angle = 90;
isGlobal = 0;
magnetic = 5;
x = 45;
y = 0;
}
);
};
},
{
color = 6;
glyphname = k;
layers = (
{
anchors = (
{
name = bottom;
position = "{322, 0}";
},
{
name = top;
position = "{322, 750}";
}
);
hints = (
{
horizontal = 1;
place = "{0, 0}";
type = Tag;
}
);
layerId = "EC64484B-0978-4CB1-9EE9-C40A2D8C4059";
paths = (
{
closed = 1;
nodes = (
"247 0 LINE SMOOTH",
"262 0 OFFCURVE",
"274 12 OFFCURVE",
"274 27 CURVE SMOOTH",
"274 187 LINE",
"376 17 LINE SMOOTH",
"378 14 OFFCURVE",
"387 0 OFFCURVE",
"407 0 CURVE SMOOTH",
"617 0 LINE SMOOTH",
"630 0 OFFCURVE",
"641 11 OFFCURVE",
"641 24 CURVE SMOOTH",
"641 30 OFFCURVE",
"639 34 OFFCURVE",
"637 37 CURVE SMOOTH",
"475 286 LINE",
"612 481 LINE SMOOTH",
"614 484 OFFCURVE",
"617 490 OFFCURVE",
"617 496 CURVE SMOOTH",
"617 509 OFFCURVE",
"606 520 OFFCURVE",
"593 520 CURVE SMOOTH",
"391 520 LINE SMOOTH",
"373 520 OFFCURVE",
"365 508 OFFCURVE",
"362 503 CURVE SMOOTH",
"274 359 LINE",
"274 683 LINE SMOOTH",
"274 698 OFFCURVE",
"262 710 OFFCURVE",
"247 710 CURVE SMOOTH",
"72 710 LINE SMOOTH",
"57 710 OFFCURVE",
"45 698 OFFCURVE",
"45 683 CURVE SMOOTH",
"45 27 LINE SMOOTH",
"45 12 OFFCURVE",
"57 0 OFFCURVE",
"72 0 CURVE SMOOTH"
);
}
);
width = 643;
}
);
leftKerningGroup = h;
rightKerningGroup = k;
unicode = 006B;
userData = {
com.typemytype.robofont.guides = (
{
angle = 0;
isGlobal = 0;
magnetic = 5;
x = 0;
y = 520;
},
{
angle = 0;
isGlobal = 0;
magnetic = 5;
x = 0;
y = 710;
},
{
angle = 0;
isGlobal = 0;
magnetic = 5;
x = 0;
y = 260;
},
{
angle = 90;
isGlobal = 0;
magnetic = 5;
x = 460;
y = 0;
},
{
angle = 90;
isGlobal = 0;
magnetic = 5;
x = 430;
y = 0;
}
);
};
},
{
color = 6;
glyphname = kgreenlandic;
layers = (
{
anchors = (
{
name = bottom;
position = "{322, 0}";
},
{
name = top;
position = "{322, 520}";
}
);
hints = (
{
horizontal = 1;
place = "{0, 0}";
type = Tag;
}
);
layerId = "EC64484B-0978-4CB1-9EE9-C40A2D8C4059";
paths = (
{
closed = 1;
nodes = (
"247 0 LINE SMOOTH",
"262 0 OFFCURVE",
"274 12 OFFCURVE",
"274 27 CURVE SMOOTH",
"274 187 LINE",
"376 17 LINE SMOOTH",
"378 14 OFFCURVE",
"387 0 OFFCURVE",
"407 0 CURVE SMOOTH",
"617 0 LINE SMOOTH",
"630 0 OFFCURVE",
"641 11 OFFCURVE",
"641 24 CURVE SMOOTH",
"641 30 OFFCURVE",
"639 34 OFFCURVE",
"637 37 CURVE SMOOTH",
"485 266 LINE",
"612 481 LINE SMOOTH",
"614 484 OFFCURVE",
"617 490 OFFCURVE",
"617 496 CURVE SMOOTH",
"617 509 OFFCURVE",
"606 520 OFFCURVE",
"593 520 CURVE SMOOTH",
"401 520 LINE SMOOTH",
"383 520 OFFCURVE",
"375 508 OFFCURVE",
"372 503 CURVE SMOOTH",
"274 329 LINE",
"274 493 LINE SMOOTH",
"274 508 OFFCURVE",
"262 520 OFFCURVE",
"247 520 CURVE SMOOTH",
"72 520 LINE SMOOTH",
"57 520 OFFCURVE",
"45 508 OFFCURVE",
"45 493 CURVE SMOOTH",
"45 27 LINE SMOOTH",
"45 12 OFFCURVE",
"57 0 OFFCURVE",
"72 0 CURVE SMOOTH"
);
}
);
width = 643;
}
);
leftKerningGroup = n;
rightKerningGroup = k;
unicode = 0138;
userData = {
com.typemytype.robofont.guides = (
{
angle = 0;
isGlobal = 0;
magnetic = 5;
x = 0;
y = 520;
},
{
angle = 0;
isGlobal = 0;
magnetic = 5;
x = 0;
y = 260;
}
);
};
},
{
color = 6;
glyphname = l;
layers = (
{
anchors = (
{
name = bottom;
position = "{162, 0}";
},
{
name = center;
position = "{162, 375}";
},
{
name = top;
position = "{162, 675}";
},
{
name = topright;
position = "{440, 710}";
}
);
layerId = "EC64484B-0978-4CB1-9EE9-C40A2D8C4059";
paths = (
{
closed = 1;
nodes = (
"251 0 LINE SMOOTH",
"266 0 OFFCURVE",
"278 12 OFFCURVE",
"278 27 CURVE SMOOTH",
"278 683 LINE SMOOTH",
"278 698 OFFCURVE",
"266 710 OFFCURVE",
"251 710 CURVE SMOOTH",
"72 710 LINE SMOOTH",
"57 710 OFFCURVE",
"45 698 OFFCURVE",
"45 683 CURVE SMOOTH",
"45 27 LINE SMOOTH",
"45 12 OFFCURVE",
"57 0 OFFCURVE",
"72 0 CURVE SMOOTH"
);
}
);
width = 323;
}
);
leftKerningGroup = l;
rightKerningGroup = l;
unicode = 006C;
userData = {
com.typemytype.robofont.guides = (
{
angle = 0;
isGlobal = 0;
magnetic = 5;
x = 0;
y = 9;
},
{
angle = 0;
isGlobal = 0;
magnetic = 5;
x = 0;
y = 710;
}
);
};
},
{
color = 6;
glyphname = lslash;
layers = (
{
hints = (
{
horizontal = 1;
place = "{0, 0}";
type = Tag;
}
);
layerId = "EC64484B-0978-4CB1-9EE9-C40A2D8C4059";
paths = (
{
closed = 1;
nodes = (
"290 0 LINE SMOOTH",
"305 0 OFFCURVE",
"317 12 OFFCURVE",
"317 27 CURVE SMOOTH",
"317 319 LINE",
"355 334 LINE SMOOTH",
"371 340 OFFCURVE",
"377 349 OFFCURVE",
"377 367 CURVE SMOOTH",
"377 475 LINE SMOOTH",
"377 487 OFFCURVE",
"368 496 OFFCURVE",
"356 496 CURVE SMOOTH",
"354 496 OFFCURVE",
"350 495 OFFCURVE",
"345 493 CURVE SMOOTH",
"317 482 LINE",
"317 683 LINE SMOOTH",
"317 698 OFFCURVE",
"305 710 OFFCURVE",
"290 710 CURVE SMOOTH",
"111 710 LINE SMOOTH",
"96 710 OFFCURVE",
"84 698 OFFCURVE",
"84 683 CURVE SMOOTH",
"84 391 LINE",
"46 377 LINE SMOOTH",
"30 371 OFFCURVE",
"24 362 OFFCURVE",
"24 344 CURVE SMOOTH",
"24 236 LINE SMOOTH",
"24 224 OFFCURVE",
"33 215 OFFCURVE",
"45 215 CURVE SMOOTH",
"47 215 OFFCURVE",
"51 216 OFFCURVE",
"56 218 CURVE SMOOTH",
"84 229 LINE",
"84 27 LINE SMOOTH",
"84 12 OFFCURVE",
"96 0 OFFCURVE",
"111 0 CURVE SMOOTH"
);
}
);
width = 400;
}
);
leftKerningGroup = l;
rightKerningGroup = l;
unicode = 0142;
userData = {
com.typemytype.robofont.guides = (
{
angle = 0;
isGlobal = 0;
magnetic = 5;
x = 0;
y = 355;
},
{
angle = 90;
isGlobal = 0;
magnetic = 5;
x = 231;
y = 0;
},
{
angle = 90;
isGlobal = 0;
magnetic = 5;
x = 100;
y = 0;
},
{
angle = 90;
isGlobal = 0;
magnetic = 5;
x = 30;
y = 0;
}
);
};
},
{
color = 6;
glyphname = m;
layers = (
{
anchors = (
{
name = bottom;
position = "{469, 0}";
},
{
name = top;
position = "{469, 520}";
}
);
hints = (
{
horizontal = 1;
place = "{0, 0}";
type = Tag;
},
{
horizontal = 1;
place = "{0, 0}";
type = Tag;
}
);
layerId = "EC64484B-0978-4CB1-9EE9-C40A2D8C4059";
paths = (
{
closed = 1;
nodes = (
"252 0 LINE SMOOTH",
"267 0 OFFCURVE",
"279 12 OFFCURVE",
"279 27 CURVE SMOOTH",
"279 302 LINE SMOOTH",
"279 333 OFFCURVE",
"294 351 OFFCURVE",
"319 351 CURVE SMOOTH",
"344 351 OFFCURVE",
"359 334 OFFCURVE",
"359 302 CURVE SMOOTH",
"359 27 LINE SMOOTH",
"359 12 OFFCURVE",
"371 0 OFFCURVE",
"386 0 CURVE SMOOTH",
"562 0 LINE SMOOTH",
"577 0 OFFCURVE",
"589 12 OFFCURVE",
"589 27 CURVE SMOOTH",
"589 302 LINE SMOOTH",
"589 334 OFFCURVE",
"603 351 OFFCURVE",
"628 351 CURVE SMOOTH",
"653 351 OFFCURVE",
"668 334 OFFCURVE",
"668 302 CURVE SMOOTH",
"668 27 LINE SMOOTH",
"668 12 OFFCURVE",
"680 0 OFFCURVE",
"695 0 CURVE SMOOTH",
"871 0 LINE SMOOTH",
"886 0 OFFCURVE",
"898 12 OFFCURVE",
"898 27 CURVE SMOOTH",
"898 307 LINE SMOOTH",
"898 465 OFFCURVE",
"815 530 OFFCURVE",
"714 530 CURVE SMOOTH",
"653 530 OFFCURVE",
"592 494 OFFCURVE",
"561 448 CURVE",
"534 506 OFFCURVE",
"482 533 OFFCURVE",
"403 530 CURVE SMOOTH",
"337 527 OFFCURVE",
"287 490 OFFCURVE",
"264 460 CURVE",
"264 493 LINE SMOOTH",
"264 508 OFFCURVE",
"252 520 OFFCURVE",
"237 520 CURVE SMOOTH",
"72 520 LINE SMOOTH",
"57 520 OFFCURVE",
"45 508 OFFCURVE",
"45 493 CURVE SMOOTH",
"45 27 LINE SMOOTH",
"45 12 OFFCURVE",
"57 0 OFFCURVE",
"72 0 CURVE SMOOTH"
);
}
);
width = 938;
}
);
leftKerningGroup = n;
rightKerningGroup = n;
unicode = 006D;
},
{
color = 6;
glyphname = n;
layers = (
{
anchors = (
{
name = bottom;
position = "{343, 0}";
},
{
name = top;
position = "{340, 520}";
}
);
hints = (
{
horizontal = 1;
place = "{0, 0}";
type = Tag;
},
{
horizontal = 1;
place = "{0, 0}";
type = Tag;
}
);
layerId = "EC64484B-0978-4CB1-9EE9-C40A2D8C4059";
paths = (
{
closed = 1;
nodes = (
"262 0 LINE SMOOTH",
"277 0 OFFCURVE",
"289 12 OFFCURVE",
"289 27 CURVE SMOOTH",
"289 296 LINE SMOOTH",
"289 332 OFFCURVE",
"307 351 OFFCURVE",
"339 351 CURVE SMOOTH",
"371 351 OFFCURVE",
"389 332 OFFCURVE",
"389 296 CURVE SMOOTH",
"389 27 LINE SMOOTH",
"389 12 OFFCURVE",
"401 0 OFFCURVE",
"416 0 CURVE SMOOTH",
"607 0 LINE SMOOTH",
"622 0 OFFCURVE",
"634 12 OFFCURVE",
"634 27 CURVE SMOOTH",
"634 303 LINE SMOOTH",
"634 461 OFFCURVE",
"541 530 OFFCURVE",
"440 530 CURVE SMOOTH",
"369 530 OFFCURVE",
"307 499 OFFCURVE",
"274 460 CURVE",
"274 493 LINE SMOOTH",
"274 508 OFFCURVE",
"262 520 OFFCURVE",
"247 520 CURVE SMOOTH",
"72 520 LINE SMOOTH",
"57 520 OFFCURVE",
"45 508 OFFCURVE",
"45 493 CURVE SMOOTH",
"45 27 LINE SMOOTH",
"45 12 OFFCURVE",
"57 0 OFFCURVE",
"72 0 CURVE SMOOTH"
);
}
);
width = 674;
}
);
leftKerningGroup = n;
rightKerningGroup = n;
unicode = 006E;
userData = {
com.typemytype.robofont.guides = (
{
angle = 0;
isGlobal = 0;
magnetic = 5;
x = 0;
y = 530;
},
{
angle = 0;
isGlobal = 0;
magnetic = 5;
x = 0;
y = 301;
},
{
angle = 0;
isGlobal = 0;
magnetic = 5;
x = 0;
y = 650;
},
{
angle = 0;
isGlobal = 0;
magnetic = 5;
x = 0;
y = 407;
},
{
angle = 0;
isGlobal = 0;
magnetic = 5;
x = 0;
y = 451;
},
{
angle = 90;
isGlobal = 0;
magnetic = 5;
x = 291;
y = 0;
},
{
angle = 90;
isGlobal = 0;
magnetic = 5;
x = 131;
y = 0;
}
);
};
},
{
color = 3;
glyphname = napostrophe;
layers = (
{
components = (
{
name = n;
}
);
layerId = "EC64484B-0978-4CB1-9EE9-C40A2D8C4059";
paths = (
{
closed = 1;
nodes = (
"30 550 LINE SMOOTH",
"56 550 OFFCURVE",
"68 569 OFFCURVE",
"73 582 CURVE SMOOTH",
"128 721 LINE SMOOTH",
"129 724 OFFCURVE",
"129 726 OFFCURVE",
"129 728 CURVE SMOOTH",
"129 740 OFFCURVE",
"119 750 OFFCURVE",
"107 750 CURVE SMOOTH",
"-33 750 LINE SMOOTH",
"-60 750 OFFCURVE",
"-73 729 OFFCURVE",
"-76 711 CURVE",
"-97 572 LINE",
"-97 560 OFFCURVE",
"-87 550 OFFCURVE",
"-75 550 CURVE SMOOTH"
);
}
);
width = 674;
}
);
leftKerningGroup = n;
rightKerningGroup = n;
rightMetricsKey = n;
unicode = 0149;
userData = {
com.typemytype.robofont.guides = (
{
angle = 0;
isGlobal = 0;
magnetic = 5;
x = 0;
y = 575;
},
{
angle = 90;
isGlobal = 0;
magnetic = 5;
x = 286;
y = 0;
}
);
};
},
{
color = 6;
glyphname = eng;
layers = (
{
hints = (
{
horizontal = 1;
place = "{0, 0}";
type = Tag;
},
{
horizontal = 1;
place = "{0, 0}";
type = Tag;
}
);
layerId = "EC64484B-0978-4CB1-9EE9-C40A2D8C4059";
paths = (
{
closed = 1;
nodes = (
"312 -225 LINE SMOOTH",
"494 -225 OFFCURVE",
"634 -142 OFFCURVE",
"634 48 CURVE SMOOTH",
"634 303 LINE SMOOTH",
"634 461 OFFCURVE",
"541 530 OFFCURVE",
"440 530 CURVE SMOOTH",
"369 530 OFFCURVE",
"307 499 OFFCURVE",
"274 460 CURVE",
"274 493 LINE SMOOTH",
"274 508 OFFCURVE",
"262 520 OFFCURVE",
"247 520 CURVE SMOOTH",
"72 520 LINE SMOOTH",
"57 520 OFFCURVE",
"45 508 OFFCURVE",
"45 493 CURVE SMOOTH",
"45 27 LINE SMOOTH",
"45 12 OFFCURVE",
"57 0 OFFCURVE",
"72 0 CURVE SMOOTH",
"262 0 LINE SMOOTH",
"277 0 OFFCURVE",
"289 12 OFFCURVE",
"289 27 CURVE SMOOTH",
"289 296 LINE SMOOTH",
"289 332 OFFCURVE",
"307 351 OFFCURVE",
"339 351 CURVE SMOOTH",
"371 351 OFFCURVE",
"389 332 OFFCURVE",
"389 296 CURVE SMOOTH",
"389 59 LINE SMOOTH",
"389 -2 OFFCURVE",
"365 -22 OFFCURVE",
"322 -22 CURVE SMOOTH",
"283 -22 LINE SMOOTH",
"268 -22 OFFCURVE",
"256 -34 OFFCURVE",
"256 -49 CURVE",
"256 -198 LINE SMOOTH",
"256 -213 OFFCURVE",
"268 -225 OFFCURVE",
"283 -225 CURVE SMOOTH"
);
}
);
width = 674;
}
);
leftKerningGroup = n;
rightKerningGroup = n;
unicode = 014B;
userData = {
com.typemytype.robofont.guides = (
{
angle = 0;
isGlobal = 0;
magnetic = 5;
x = 0;
y = "-300";
},
{
angle = 90;
isGlobal = 0;
magnetic = 5;
x = 225;
y = 0;
}
);
};
},
{
color = 6;
glyphname = o;
layers = (
{
anchors = (
{
name = bottom;
position = "{321, 0}";
},
{
name = center;
position = "{321, 260}";
},
{
name = ogonek;
position = "{578, 10}";
},
{
name = top;
position = "{321, 520}";
},
{
name = topright;
position = "{622, 520}";
}
);
hints = (
{
horizontal = 1;
place = "{0, 0}";
type = Tag;
}
);
layerId = "EC64484B-0978-4CB1-9EE9-C40A2D8C4059";
paths = (
{
closed = 1;
nodes = (
"505 -10 OFFCURVE",
"601 66 OFFCURVE",
"611 213 CURVE SMOOTH",
"613 243 OFFCURVE",
"613 277 OFFCURVE",
"611 307 CURVE SMOOTH",
"601 454 OFFCURVE",
"494 530 OFFCURVE",
"321 530 CURVE SMOOTH",
"148 530 OFFCURVE",
"41 454 OFFCURVE",
"31 307 CURVE SMOOTH",
"29 277 OFFCURVE",
"29 243 OFFCURVE",
"31 213 CURVE SMOOTH",
"41 66 OFFCURVE",
"137 -10 OFFCURVE",
"321 -10 CURVE SMOOTH"
);
},
{
closed = 1;
nodes = (
"283 150 OFFCURVE",
"279 171 OFFCURVE",
"276 218 CURVE SMOOTH",
"275 238 OFFCURVE",
"275 282 OFFCURVE",
"276 302 CURVE SMOOTH",
"279 346 OFFCURVE",
"283 370 OFFCURVE",
"321 370 CURVE SMOOTH",
"359 370 OFFCURVE",
"363 346 OFFCURVE",
"366 302 CURVE SMOOTH",
"367 282 OFFCURVE",
"367 238 OFFCURVE",
"366 218 CURVE SMOOTH",
"363 171 OFFCURVE",
"359 150 OFFCURVE",
"321 150 CURVE SMOOTH"
);
}
);
width = 642;
}
);
leftKerningGroup = o;
rightKerningGroup = o;
unicode = 006F;
userData = {
com.typemytype.robofont.guides = (
{
angle = 0;
isGlobal = 0;
magnetic = 5;
x = 0;
y = 302;
},
{
angle = 0;
isGlobal = 0;
magnetic = 5;
x = 0;
y = 218;
},
{
angle = 0;
isGlobal = 0;
magnetic = 5;
x = 0;
y = 411;
},
{
angle = 0;
isGlobal = 0;
magnetic = 5;
x = 0;
y = 109;
},
{
angle = 90;
isGlobal = 0;
magnetic = 5;
x = 278;
y = 0;
},
{
angle = 90;
isGlobal = 0;
magnetic = 5;
x = 56;
y = 0;
},
{
angle = 90;
isGlobal = 0;
magnetic = 5;
x = 500;
y = 0;
}
);
};
},
{
color = 6;
glyphname = oe;
layers = (
{
anchors = (
{
name = bottom;
position = "{482, 0}";
},
{
name = top;
position = "{482, 520}";
}
);
hints = (
{
horizontal = 1;
place = "{0, 0}";
type = Tag;
},
{
horizontal = 1;
place = "{0, 0}";
type = Tag;
},
{
horizontal = 1;
place = "{0, 0}";
type = Tag;
},
{
horizontal = 1;
place = "{0, 0}";
type = Tag;
}
);
layerId = "EC64484B-0978-4CB1-9EE9-C40A2D8C4059";
paths = (
{
closed = 1;
nodes = (
"391 -10 OFFCURVE",
"448 1 OFFCURVE",
"492 22 CURVE",
"536 0 OFFCURVE",
"591 -10 OFFCURVE",
"654 -10 CURVE SMOOTH",
"839 -10 OFFCURVE",
"922 94 OFFCURVE",
"925 145 CURVE SMOOTH",
"926 158 OFFCURVE",
"916 167 OFFCURVE",
"903 167 CURVE",
"714 167 LINE",
"698 167 OFFCURVE",
"693 165 OFFCURVE",
"681 153 CURVE SMOOTH",
"670 142 OFFCURVE",
"664 135 OFFCURVE",
"652 135 CURVE SMOOTH",
"623 135 OFFCURVE",
"613 156 OFFCURVE",
"613 196 CURVE",
"613 201 LINE",
"911 201 LINE",
"926 201 OFFCURVE",
"938 213 OFFCURVE",
"938 228 CURVE",
"938 258 LINE",
"938 405 OFFCURVE",
"849 530 OFFCURVE",
"653 530 CURVE SMOOTH",
"591 530 OFFCURVE",
"538 518 OFFCURVE",
"494 494 CURVE",
"448 518 OFFCURVE",
"389 530 OFFCURVE",
"321 530 CURVE SMOOTH",
"148 530 OFFCURVE",
"41 454 OFFCURVE",
"31 307 CURVE SMOOTH",
"29 277 OFFCURVE",
"29 243 OFFCURVE",
"31 213 CURVE SMOOTH",
"41 66 OFFCURVE",
"137 -10 OFFCURVE",
"321 -10 CURVE SMOOTH"
);
},
{
closed = 1;
nodes = (
"283 150 OFFCURVE",
"279 171 OFFCURVE",
"276 218 CURVE SMOOTH",
"275 238 OFFCURVE",
"275 282 OFFCURVE",
"276 302 CURVE SMOOTH",
"279 346 OFFCURVE",
"283 370 OFFCURVE",
"321 370 CURVE SMOOTH",
"359 370 OFFCURVE",
"363 346 OFFCURVE",
"366 302 CURVE SMOOTH",
"367 282 OFFCURVE",
"367 238 OFFCURVE",
"366 218 CURVE SMOOTH",
"363 171 OFFCURVE",
"359 150 OFFCURVE",
"321 150 CURVE SMOOTH"
);
},
{
closed = 1;
nodes = (
"613 327 LINE",
"613 371 OFFCURVE",
"627 390 OFFCURVE",
"653 390 CURVE SMOOTH",
"679 390 OFFCURVE",
"693 371 OFFCURVE",
"693 327 CURVE",
"693 326 LINE",
"613 326 LINE"
);
}
);
width = 963;
}
);
leftKerningGroup = o;
rightKerningGroup = e;
unicode = 0153;
userData = {
com.typemytype.robofont.guides = (
{
angle = 90;
isGlobal = 0;
magnetic = 5;
x = 51;
y = 0;
},
{
angle = 90;
isGlobal = 0;
magnetic = 5;
x = 495;
y = 0;
}
);
};
},
{
color = 6;
glyphname = p;
layers = (
{
anchors = (
{
name = bottom;
position = "{331, 0}";
},
{
name = top;
position = "{331, 520}";
}
);
hints = (
{
horizontal = 1;
place = "{0, 0}";
type = Tag;
},
{
horizontal = 1;
place = "{0, 0}";
type = Tag;
}
);
layerId = "EC64484B-0978-4CB1-9EE9-C40A2D8C4059";
paths = (
{
closed = 1;
nodes = (
"257 -190 LINE SMOOTH",
"272 -190 OFFCURVE",
"284 -178 OFFCURVE",
"284 -163 CURVE SMOOTH",
"284 50 LINE",
"314 7 OFFCURVE",
"361 -10 OFFCURVE",
"417 -10 CURVE SMOOTH",
"533 -10 OFFCURVE",
"623 63 OFFCURVE",
"629 220 CURVE SMOOTH",
"630 250 OFFCURVE",
"630 269 OFFCURVE",
"629 299 CURVE SMOOTH",
"622 466 OFFCURVE",
"533 530 OFFCURVE",
"417 530 CURVE SMOOTH",
"348 530 OFFCURVE",
"299 502 OFFCURVE",
"269 463 CURVE",
"269 493 LINE SMOOTH",
"269 508 OFFCURVE",
"257 520 OFFCURVE",
"242 520 CURVE SMOOTH",
"72 520 LINE SMOOTH",
"57 520 OFFCURVE",
"45 508 OFFCURVE",
"45 493 CURVE SMOOTH",
"45 -163 LINE SMOOTH",
"45 -178 OFFCURVE",
"57 -190 OFFCURVE",
"72 -190 CURVE SMOOTH"
);
},
{
closed = 1;
nodes = (
"300 169 OFFCURVE",
"286 187 OFFCURVE",
"284 219 CURVE SMOOTH",
"282 249 OFFCURVE",
"282 263 OFFCURVE",
"284 293 CURVE SMOOTH",
"286 329 OFFCURVE",
"297 351 OFFCURVE",
"334 351 CURVE SMOOTH",
"371 351 OFFCURVE",
"380 329 OFFCURVE",
"384 293 CURVE SMOOTH",
"386 273 OFFCURVE",
"386 247 OFFCURVE",
"384 227 CURVE SMOOTH",
"380 191 OFFCURVE",
"371 169 OFFCURVE",
"334 169 CURVE SMOOTH"
);
}
);
width = 661;
}
);
leftKerningGroup = n;
rightKerningGroup = b;
unicode = 0070;
userData = {
com.typemytype.robofont.guides = (
{
angle = 0;
isGlobal = 0;
magnetic = 5;
x = 0;
y = 530;
},
{
angle = 0;
isGlobal = 0;
magnetic = 5;
x = 0;
y = "-10";
},
{
angle = 0;
isGlobal = 0;
magnetic = 5;
x = 0;
y = 422;
},
{
angle = 0;
isGlobal = 0;
magnetic = 5;
x = 0;
y = "-190";
},
{
angle = 90;
isGlobal = 0;
magnetic = 5;
x = 419;
y = 0;
},
{
angle = 90;
isGlobal = 0;
magnetic = 5;
x = "-609";
y = 0;
},
{
angle = 90;
isGlobal = 0;
magnetic = 5;
x = 79;
y = 0;
},
{
angle = 90;
isGlobal = 0;
magnetic = 5;
x = 122;
y = 0;
},
{
angle = 90;
isGlobal = 0;
magnetic = 5;
x = 291;
y = 0;
}
);
};
},
{
color = 6;
glyphname = thorn;
layers = (
{
anchors = (
{
name = bottom;
position = "{331, 0}";
},
{
name = top;
position = "{331, 520}";
}
);
hints = (
{
horizontal = 1;
place = "{0, 0}";
type = Tag;
}
);
layerId = "EC64484B-0978-4CB1-9EE9-C40A2D8C4059";
paths = (
{
closed = 1;
nodes = (
"258 -190 LINE SMOOTH",
"273 -190 OFFCURVE",
"285 -178 OFFCURVE",
"285 -163 CURVE SMOOTH",
"285 50 LINE",
"315 7 OFFCURVE",
"362 -10 OFFCURVE",
"418 -10 CURVE SMOOTH",
"534 -10 OFFCURVE",
"624 63 OFFCURVE",
"630 220 CURVE SMOOTH",
"631 250 OFFCURVE",
"631 269 OFFCURVE",
"630 299 CURVE SMOOTH",
"623 466 OFFCURVE",
"534 530 OFFCURVE",
"418 530 CURVE SMOOTH",
"349 530 OFFCURVE",
"315 512 OFFCURVE",
"285 473 CURVE",
"285 683 LINE SMOOTH",
"285 698 OFFCURVE",
"273 710 OFFCURVE",
"258 710 CURVE SMOOTH",
"73 710 LINE SMOOTH",
"58 710 OFFCURVE",
"46 698 OFFCURVE",
"46 683 CURVE SMOOTH",
"46 -163 LINE SMOOTH",
"46 -178 OFFCURVE",
"58 -190 OFFCURVE",
"73 -190 CURVE SMOOTH"
);
},
{
closed = 1;
nodes = (
"301 169 OFFCURVE",
"287 187 OFFCURVE",
"285 219 CURVE SMOOTH",
"283 249 OFFCURVE",
"283 263 OFFCURVE",
"285 293 CURVE SMOOTH",
"287 329 OFFCURVE",
"298 351 OFFCURVE",
"335 351 CURVE SMOOTH",
"372 351 OFFCURVE",
"381 329 OFFCURVE",
"385 293 CURVE SMOOTH",
"387 273 OFFCURVE",
"387 247 OFFCURVE",
"385 227 CURVE SMOOTH",
"381 191 OFFCURVE",
"372 169 OFFCURVE",
"335 169 CURVE SMOOTH"
);
}
);
width = 662;
}
);
leftKerningGroup = h;
rightKerningGroup = b;
unicode = 00FE;
userData = {
com.typemytype.robofont.guides = (
{
angle = 0;
isGlobal = 0;
magnetic = 5;
x = 0;
y = 710;
}
);
};
},
{
color = 6;
glyphname = q;
layers = (
{
anchors = (
{
name = bottom;
position = "{331, 0}";
},
{
name = top;
position = "{331, 520}";
}
);
hints = (
{
horizontal = 1;
place = "{0, 0}";
type = Tag;
},
{
horizontal = 1;
place = "{0, 0}";
type = Tag;
}
);
layerId = "EC64484B-0978-4CB1-9EE9-C40A2D8C4059";
paths = (
{
closed = 1;
nodes = (
"589 -190 LINE SMOOTH",
"604 -190 OFFCURVE",
"616 -178 OFFCURVE",
"616 -163 CURVE SMOOTH",
"616 493 LINE SMOOTH",
"616 508 OFFCURVE",
"604 520 OFFCURVE",
"589 520 CURVE SMOOTH",
"419 520 LINE SMOOTH",
"404 520 OFFCURVE",
"392 508 OFFCURVE",
"392 493 CURVE SMOOTH",
"392 463 LINE",
"362 502 OFFCURVE",
"313 530 OFFCURVE",
"244 530 CURVE SMOOTH",
"128 530 OFFCURVE",
"39 466 OFFCURVE",
"32 299 CURVE SMOOTH",
"31 269 OFFCURVE",
"31 250 OFFCURVE",
"32 220 CURVE SMOOTH",
"38 63 OFFCURVE",
"128 -10 OFFCURVE",
"244 -10 CURVE SMOOTH",
"300 -10 OFFCURVE",
"347 7 OFFCURVE",
"377 50 CURVE",
"377 -163 LINE SMOOTH",
"377 -178 OFFCURVE",
"389 -190 OFFCURVE",
"404 -190 CURVE SMOOTH"
);
},
{
closed = 1;
nodes = (
"290 169 OFFCURVE",
"281 191 OFFCURVE",
"277 227 CURVE SMOOTH",
"275 247 OFFCURVE",
"275 273 OFFCURVE",
"277 293 CURVE SMOOTH",
"281 329 OFFCURVE",
"290 351 OFFCURVE",
"327 351 CURVE SMOOTH",
"364 351 OFFCURVE",
"375 329 OFFCURVE",
"377 293 CURVE SMOOTH",
"379 263 OFFCURVE",
"379 249 OFFCURVE",
"377 219 CURVE SMOOTH",
"375 187 OFFCURVE",
"361 169 OFFCURVE",
"327 169 CURVE SMOOTH"
);
}
);
width = 661;
}
);
leftKerningGroup = d;
rightKerningGroup = u;
unicode = 0071;
userData = {
com.typemytype.robofont.guides = (
{
angle = 0;
isGlobal = 0;
magnetic = 5;
x = 0;
y = 530;
},
{
angle = 0;
isGlobal = 0;
magnetic = 5;
x = 0;
y = "-10";
},
{
angle = 0;
isGlobal = 0;
magnetic = 5;
x = 0;
y = "-190";
}
);
};
},
{
color = 6;
glyphname = r;
layers = (
{
anchors = (
{
name = bottom;
position = "{164, 0}";
},
{
name = top;
position = "{277, 520}";
}
);
hints = (
{
horizontal = 1;
place = "{0, 0}";
type = Tag;
}
);
layerId = "EC64484B-0978-4CB1-9EE9-C40A2D8C4059";
paths = (
{
closed = 1;
nodes = (
"262 0 LINE SMOOTH",
"277 0 OFFCURVE",
"289 12 OFFCURVE",
"289 27 CURVE SMOOTH",
"289 250 LINE SMOOTH",
"289 290 OFFCURVE",
"309 310 OFFCURVE",
"349 310 CURVE SMOOTH",
"478 310 LINE SMOOTH",
"493 310 OFFCURVE",
"505 322 OFFCURVE",
"505 337 CURVE SMOOTH",
"505 493 LINE SMOOTH",
"505 508 OFFCURVE",
"493 520 OFFCURVE",
"478 520 CURVE SMOOTH",
"430 520 LINE SMOOTH",
"370 520 OFFCURVE",
"316 495 OFFCURVE",
"274 458 CURVE",
"274 493 LINE SMOOTH",
"274 508 OFFCURVE",
"262 520 OFFCURVE",
"247 520 CURVE SMOOTH",
"72 520 LINE SMOOTH",
"57 520 OFFCURVE",
"45 508 OFFCURVE",
"45 493 CURVE SMOOTH",
"45 27 LINE SMOOTH",
"45 12 OFFCURVE",
"57 0 OFFCURVE",
"72 0 CURVE SMOOTH"
);
}
);
width = 518;
}
);
leftKerningGroup = n;
rightKerningGroup = r;
unicode = 0072;
userData = {
com.typemytype.robofont.guides = (
{
angle = 0;
isGlobal = 0;
magnetic = 5;
x = 0;
y = 462;
}
);
};
},
{
color = 6;
glyphname = s;
layers = (
{
anchors = (
{
name = bottom;
position = "{295, 0}";
},
{
name = top;
position = "{295, 520}";
}
);
hints = (
{
horizontal = 1;
place = "{0, 0}";
type = Tag;
},
{
horizontal = 1;
place = "{0, 0}";
type = Tag;
}
);
layerId = "EC64484B-0978-4CB1-9EE9-C40A2D8C4059";
paths = (
{
closed = 1;
nodes = (
"469 -10 OFFCURVE",
"569 55 OFFCURVE",
"569 162 CURVE SMOOTH",
"569 230 OFFCURVE",
"518 309 OFFCURVE",
"374 330 CURVE SMOOTH",
"270 345 OFFCURVE",
"264 357 OFFCURVE",
"264 374 CURVE SMOOTH",
"264 383 OFFCURVE",
"274 390 OFFCURVE",
"284 390 CURVE SMOOTH",
"313 390 OFFCURVE",
"328 360 OFFCURVE",
"357 360 CURVE SMOOTH",
"360 360 OFFCURVE",
"364 360 OFFCURVE",
"367 360 CURVE",
"525 360 LINE SMOOTH",
"537 360 OFFCURVE",
"548 372 OFFCURVE",
"547 387 CURVE SMOOTH",
"544 444 OFFCURVE",
"450 530 OFFCURVE",
"285 530 CURVE SMOOTH",
"120 530 OFFCURVE",
"32 445 OFFCURVE",
"32 359 CURVE SMOOTH",
"32 254 OFFCURVE",
"122 209 OFFCURVE",
"215 192 CURVE SMOOTH",
"314 174 OFFCURVE",
"319 162 OFFCURVE",
"319 145 CURVE SMOOTH",
"319 135 OFFCURVE",
"307 130 OFFCURVE",
"296 130 CURVE SMOOTH",
"265 130 OFFCURVE",
"250 157 OFFCURVE",
"224 160 CURVE SMOOTH",
"223 160 OFFCURVE",
"221 160 OFFCURVE",
"220 160 CURVE SMOOTH",
"46 160 LINE SMOOTH",
"32 160 OFFCURVE",
"21 148 OFFCURVE",
"22 133 CURVE SMOOTH",
"25 80 OFFCURVE",
"97 -10 OFFCURVE",
"289 -10 CURVE SMOOTH"
);
}
);
width = 590;
}
);
leftKerningGroup = s;
rightKerningGroup = s;
unicode = 0073;
userData = {
com.typemytype.robofont.guides = (
{
angle = 0;
isGlobal = 0;
magnetic = 5;
x = 0;
y = 265;
},
{
angle = 0;
isGlobal = 0;
magnetic = 5;
x = 0;
y = 139;
},
{
angle = 90;
isGlobal = 0;
magnetic = 5;
x = 250;
y = 0;
}
);
};
},
{
color = 6;
glyphname = scedilla;
layers = (
{
hints = (
{
horizontal = 1;
place = "{0, 0}";
type = Tag;
}
);
layerId = "EC64484B-0978-4CB1-9EE9-C40A2D8C4059";
paths = (
{
closed = 1;
nodes = (
"359 -220 OFFCURVE",
"398 -183 OFFCURVE",
"398 -130 CURVE SMOOTH",
"398 -77 OFFCURVE",
"368 -40 OFFCURVE",
"317 -40 CURVE SMOOTH",
"313 -40 OFFCURVE",
"295 -42 OFFCURVE",
"287 -45 CURVE",
"305 -10 LINE",
"474 -6 OFFCURVE",
"569 58 OFFCURVE",
"569 162 CURVE SMOOTH",
"569 230 OFFCURVE",
"518 309 OFFCURVE",
"374 330 CURVE SMOOTH",
"270 345 OFFCURVE",
"264 357 OFFCURVE",
"264 374 CURVE SMOOTH",
"264 383 OFFCURVE",
"274 390 OFFCURVE",
"284 390 CURVE SMOOTH",
"313 390 OFFCURVE",
"328 360 OFFCURVE",
"357 360 CURVE SMOOTH",
"360 360 OFFCURVE",
"362 360 OFFCURVE",
"365 360 CURVE SMOOTH",
"525 360 LINE SMOOTH",
"537 360 OFFCURVE",
"548 372 OFFCURVE",
"547 387 CURVE SMOOTH",
"544 444 OFFCURVE",
"450 530 OFFCURVE",
"285 530 CURVE SMOOTH",
"120 530 OFFCURVE",
"32 445 OFFCURVE",
"32 359 CURVE SMOOTH",
"32 254 OFFCURVE",
"122 209 OFFCURVE",
"215 192 CURVE SMOOTH",
"314 174 OFFCURVE",
"319 162 OFFCURVE",
"319 145 CURVE SMOOTH",
"319 135 OFFCURVE",
"307 130 OFFCURVE",
"296 130 CURVE SMOOTH",
"263 130 OFFCURVE",
"249 160 OFFCURVE",
"220 160 CURVE SMOOTH",
"217 160 OFFCURVE",
"215 160 OFFCURVE",
"212 160 CURVE SMOOTH",
"46 160 LINE SMOOTH",
"32 160 OFFCURVE",
"21 148 OFFCURVE",
"22 133 CURVE SMOOTH",
"24 84 OFFCURVE",
"85 9 OFFCURVE",
"242 -7 CURVE",
"222 -52 LINE SMOOTH",
"213 -71 OFFCURVE",
"215 -76 OFFCURVE",
"224 -85 CURVE SMOOTH",
"245 -106 LINE SMOOTH",
"258 -119 OFFCURVE",
"281 -106 OFFCURVE",
"299 -106 CURVE SMOOTH",
"319 -106 OFFCURVE",
"327 -118 OFFCURVE",
"327 -130 CURVE SMOOTH",
"327 -142 OFFCURVE",
"318 -154 OFFCURVE",
"299 -154 CURVE SMOOTH",
"265 -154 OFFCURVE",
"260 -136 OFFCURVE",
"243 -151 CURVE SMOOTH",
"222 -169 LINE SMOOTH",
"199 -189 OFFCURVE",
"246 -220 OFFCURVE",
"299 -220 CURVE SMOOTH"
);
}
);
width = 590;
}
);
leftKerningGroup = s;
rightKerningGroup = s;
unicode = 015F;
},
{
color = 6;
glyphname = germandbls;
layers = (
{
anchors = (
{
name = bottom;
position = "{341, 0}";
},
{
name = top;
position = "{341, 520}";
}
);
hints = (
{
horizontal = 1;
place = "{0, 0}";
type = Tag;
}
);
layerId = "EC64484B-0978-4CB1-9EE9-C40A2D8C4059";
paths = (
{
closed = 1;
nodes = (
"250 0 LINE SMOOTH",
"265 0 OFFCURVE",
"277 12 OFFCURVE",
"277 27 CURVE",
"277 459 LINE SMOOTH",
"277 518 OFFCURVE",
"301 541 OFFCURVE",
"340 541 CURVE",
"379 541 OFFCURVE",
"403 518 OFFCURVE",
"403 489 CURVE SMOOTH",
"403 460 OFFCURVE",
"376 439 OFFCURVE",
"339 438 CURVE",
"336 438 LINE",
"311 438 OFFCURVE",
"307 426 OFFCURVE",
"307 411 CURVE SMOOTH",
"307 313 LINE SMOOTH",
"307 298 OFFCURVE",
"315 286 OFFCURVE",
"336 286 CURVE",
"338 286 LINE",
"384 286 OFFCURVE",
"409 262 OFFCURVE",
"409 227 CURVE SMOOTH",
"409 191 OFFCURVE",
"380 168 OFFCURVE",
"342 168 CURVE",
"340 168 LINE",
"319 169 OFFCURVE",
"307 156 OFFCURVE",
"307 141 CURVE SMOOTH",
"307 27 LINE SMOOTH",
"307 12 OFFCURVE",
"319 0 OFFCURVE",
"340 0 CURVE",
"375 0 LINE",
"569 0 OFFCURVE",
"655 113 OFFCURVE",
"655 216 CURVE SMOOTH",
"655 303 OFFCURVE",
"620 348 OFFCURVE",
"566 375 CURVE",
"607 407 OFFCURVE",
"625 447 OFFCURVE",
"625 502 CURVE SMOOTH",
"625 608 OFFCURVE",
"546 709 OFFCURVE",
"340 710 CURVE",
"134 709 OFFCURVE",
"45 598 OFFCURVE",
"45 452 CURVE SMOOTH",
"45 27 LINE SMOOTH",
"45 12 OFFCURVE",
"57 0 OFFCURVE",
"72 0 CURVE SMOOTH"
);
}
);
width = 682;
}
);
leftKerningGroup = h;
unicode = 00DF;
userData = {
com.typemytype.robofont.guides = (
{
angle = 0;
isGlobal = 0;
magnetic = 5;
x = 0;
y = 527;
},
{
angle = 0;
isGlobal = 0;
magnetic = 5;
x = 0;
y = 601;
},
{
angle = 90;
isGlobal = 0;
magnetic = 5;
x = 267;
y = 0;
},
{
angle = 90;
isGlobal = 0;
magnetic = 5;
x = 499;
y = 0;
}
);
};
},
{
color = 6;
glyphname = longs;
layers = (
{
anchors = (
{
name = bottom;
position = "{194, 0}";
},
{
name = top;
position = "{194, 520}";
}
);
hints = (
{
horizontal = 1;
place = "{0, 0}";
type = Tag;
}
);
layerId = "EC64484B-0978-4CB1-9EE9-C40A2D8C4059";
paths = (
{
closed = 1;
nodes = (
"314 0 LINE SMOOTH",
"329 0 OFFCURVE",
"341 12 OFFCURVE",
"341 27 CURVE SMOOTH",
"341 532 LINE",
"341 553 OFFCURVE",
"354 565 OFFCURVE",
"384 565 CURVE SMOOTH",
"465 565 LINE SMOOTH",
"480 565 OFFCURVE",
"492 577 OFFCURVE",
"492 592 CURVE SMOOTH",
"492 713 LINE SMOOTH",
"492 728 OFFCURVE",
"480 740 OFFCURVE",
"465 740 CURVE SMOOTH",
"372 740 LINE SMOOTH",
"227 740 OFFCURVE",
"112 701 OFFCURVE",
"112 537 CURVE SMOOTH",
"112 520 LINE",
"43 520 LINE SMOOTH",
"28 520 OFFCURVE",
"16 508 OFFCURVE",
"16 493 CURVE SMOOTH",
"16 372 LINE SMOOTH",
"16 357 OFFCURVE",
"28 345 OFFCURVE",
"43 345 CURVE SMOOTH",
"112 345 LINE",
"112 27 LINE SMOOTH",
"112 12 OFFCURVE",
"124 0 OFFCURVE",
"139 0 CURVE SMOOTH"
);
}
);
width = 387;
}
);
unicode = 017F;
},
{
color = 6;
glyphname = t;
layers = (
{
anchors = (
{
name = bottom;
position = "{311, 0}";
},
{
name = center;
position = "{242, 260}";
},
{
name = top;
position = "{266, 520}";
},
{
name = topright;
position = "{512, 810}";
}
);
hints = (
{
horizontal = 1;
place = "{0, 0}";
type = Tag;
}
);
layerId = "EC64484B-0978-4CB1-9EE9-C40A2D8C4059";
paths = (
{
closed = 1;
nodes = (
"480 0 LINE SMOOTH",
"495 0 OFFCURVE",
"507 12 OFFCURVE",
"507 27 CURVE SMOOTH",
"507 158 LINE SMOOTH",
"507 173 OFFCURVE",
"495 185 OFFCURVE",
"480 185 CURVE SMOOTH",
"389 185 LINE SMOOTH",
"359 185 OFFCURVE",
"346 204 OFFCURVE",
"346 235 CURVE SMOOTH",
"346 345 LINE",
"472 345 LINE SMOOTH",
"487 345 OFFCURVE",
"499 357 OFFCURVE",
"499 372 CURVE SMOOTH",
"499 493 LINE SMOOTH",
"499 508 OFFCURVE",
"487 520 OFFCURVE",
"472 520 CURVE SMOOTH",
"346 520 LINE",
"346 683 LINE SMOOTH",
"346 698 OFFCURVE",
"334 710 OFFCURVE",
"319 710 CURVE SMOOTH",
"144 710 LINE SMOOTH",
"129 710 OFFCURVE",
"117 698 OFFCURVE",
"117 683 CURVE SMOOTH",
"117 520 LINE",
"38 520 LINE SMOOTH",
"23 520 OFFCURVE",
"11 508 OFFCURVE",
"11 493 CURVE SMOOTH",
"11 372 LINE SMOOTH",
"11 357 OFFCURVE",
"23 345 OFFCURVE",
"38 345 CURVE SMOOTH",
"117 345 LINE",
"117 215 LINE SMOOTH",
"117 51 OFFCURVE",
"222 0 OFFCURVE",
"367 0 CURVE SMOOTH"
);
}
);
width = 532;
}
);
leftKerningGroup = t;
rightKerningGroup = t;
unicode = 0074;
userData = {
com.typemytype.robofont.guides = (
{
angle = 0;
isGlobal = 0;
magnetic = 5;
x = 0;
y = 175;
},
{
angle = 90;
isGlobal = 0;
magnetic = 5;
x = 342;
y = 0;
},
{
angle = 90;
isGlobal = 0;
magnetic = 5;
x = 35;
y = 0;
}
);
};
},
{
color = 6;
glyphname = tbar;
layers = (
{
hints = (
{
horizontal = 1;
place = "{0, 0}";
type = Tag;
}
);
layerId = "EC64484B-0978-4CB1-9EE9-C40A2D8C4059";
paths = (
{
closed = 1;
nodes = (
"481 0 LINE SMOOTH",
"496 0 OFFCURVE",
"508 12 OFFCURVE",
"508 27 CURVE SMOOTH",
"508 158 LINE SMOOTH",
"508 173 OFFCURVE",
"496 185 OFFCURVE",
"481 185 CURVE SMOOTH",
"390 185 LINE SMOOTH",
"360 185 OFFCURVE",
"347 204 OFFCURVE",
"347 235 CURVE SMOOTH",
"347 265 LINE",
"473 265 LINE SMOOTH",
"488 265 OFFCURVE",
"500 277 OFFCURVE",
"500 292 CURVE SMOOTH",
"500 343 LINE SMOOTH",
"500 358 OFFCURVE",
"488 370 OFFCURVE",
"473 370 CURVE SMOOTH",
"347 370 LINE",
"347 415 LINE",
"473 415 LINE SMOOTH",
"488 415 OFFCURVE",
"500 427 OFFCURVE",
"500 442 CURVE SMOOTH",
"500 493 LINE SMOOTH",
"500 508 OFFCURVE",
"488 520 OFFCURVE",
"473 520 CURVE SMOOTH",
"347 520 LINE",
"347 683 LINE SMOOTH",
"347 698 OFFCURVE",
"335 710 OFFCURVE",
"320 710 CURVE SMOOTH",
"145 710 LINE SMOOTH",
"130 710 OFFCURVE",
"118 698 OFFCURVE",
"118 683 CURVE SMOOTH",
"118 520 LINE",
"39 520 LINE SMOOTH",
"24 520 OFFCURVE",
"12 508 OFFCURVE",
"12 493 CURVE SMOOTH",
"12 442 LINE SMOOTH",
"12 427 OFFCURVE",
"24 415 OFFCURVE",
"39 415 CURVE SMOOTH",
"118 415 LINE",
"118 370 LINE",
"39 370 LINE SMOOTH",
"24 370 OFFCURVE",
"12 358 OFFCURVE",
"12 343 CURVE SMOOTH",
"12 292 LINE SMOOTH",
"12 277 OFFCURVE",
"24 265 OFFCURVE",
"39 265 CURVE SMOOTH",
"118 265 LINE",
"118 215 LINE SMOOTH",
"118 51 OFFCURVE",
"223 0 OFFCURVE",
"368 0 CURVE SMOOTH"
);
}
);
width = 533;
}
);
leftKerningGroup = t;
rightKerningGroup = t;
unicode = 0167;
userData = {
com.typemytype.robofont.guides = (
{
angle = 90;
isGlobal = 0;
magnetic = 5;
x = 342;
y = 0;
}
);
};
},
{
color = 6;
glyphname = u;
layers = (
{
anchors = (
{
name = bottom;
position = "{337, 0}";
},
{
name = ogonek;
position = "{607, 10}";
},
{
name = top;
position = "{337, 520}";
},
{
name = topright;
position = "{654, 520}";
}
);
layerId = "EC64484B-0978-4CB1-9EE9-C40A2D8C4059";
paths = (
{
closed = 1;
nodes = (
"305 -10 OFFCURVE",
"367 11 OFFCURVE",
"400 60 CURVE",
"400 27 LINE SMOOTH",
"400 12 OFFCURVE",
"412 0 OFFCURVE",
"427 0 CURVE SMOOTH",
"602 0 LINE SMOOTH",
"617 0 OFFCURVE",
"629 12 OFFCURVE",
"629 27 CURVE SMOOTH",
"629 493 LINE SMOOTH",
"629 508 OFFCURVE",
"617 520 OFFCURVE",
"602 520 CURVE SMOOTH",
"412 520 LINE SMOOTH",
"397 520 OFFCURVE",
"385 508 OFFCURVE",
"385 493 CURVE SMOOTH",
"385 224 LINE SMOOTH",
"385 188 OFFCURVE",
"367 169 OFFCURVE",
"335 169 CURVE SMOOTH",
"303 169 OFFCURVE",
"285 188 OFFCURVE",
"285 224 CURVE SMOOTH",
"285 493 LINE SMOOTH",
"285 508 OFFCURVE",
"273 520 OFFCURVE",
"258 520 CURVE SMOOTH",
"67 520 LINE SMOOTH",
"52 520 OFFCURVE",
"40 508 OFFCURVE",
"40 493 CURVE SMOOTH",
"40 217 LINE",
"40 59 OFFCURVE",
"133 -10 OFFCURVE",
"234 -10 CURVE SMOOTH"
);
}
);
width = 674;
}
);
leftKerningGroup = u;
rightKerningGroup = u;
unicode = 0075;
userData = {
com.typemytype.robofont.guides = (
{
angle = 0;
isGlobal = 0;
magnetic = 5;
x = 0;
y = "-10";
},
{
angle = 90;
isGlobal = 0;
magnetic = 5;
x = 432;
y = 0;
},
{
angle = 90;
isGlobal = 0;
magnetic = 5;
x = 126;
y = 0;
},
{
angle = 90;
isGlobal = 0;
magnetic = 5;
x = 65;
y = 0;
}
);
};
},
{
color = 6;
glyphname = uogonek;
layers = (
{
layerId = "EC64484B-0978-4CB1-9EE9-C40A2D8C4059";
paths = (
{
closed = 1;
nodes = (
"602 -220 LINE SMOOTH",
"617 -220 OFFCURVE",
"629 -208 OFFCURVE",
"629 -193 CURVE SMOOTH",
"629 -125 LINE SMOOTH",
"629 -110 OFFCURVE",
"617 -98 OFFCURVE",
"602 -98 CURVE SMOOTH",
"592 -98 LINE SMOOTH",
"553 -98 OFFCURVE",
"542 -70 OFFCURVE",
"542 -49 CURVE SMOOTH",
"542 -29 OFFCURVE",
"552 -2 OFFCURVE",
"586 0 CURVE",
"602 0 LINE SMOOTH",
"617 0 OFFCURVE",
"629 12 OFFCURVE",
"629 27 CURVE SMOOTH",
"629 493 LINE SMOOTH",
"629 508 OFFCURVE",
"617 520 OFFCURVE",
"602 520 CURVE SMOOTH",
"412 520 LINE SMOOTH",
"397 520 OFFCURVE",
"385 508 OFFCURVE",
"385 493 CURVE SMOOTH",
"385 224 LINE SMOOTH",
"385 188 OFFCURVE",
"367 169 OFFCURVE",
"335 169 CURVE SMOOTH",
"303 169 OFFCURVE",
"285 188 OFFCURVE",
"285 224 CURVE SMOOTH",
"285 493 LINE SMOOTH",
"285 508 OFFCURVE",
"273 520 OFFCURVE",
"258 520 CURVE SMOOTH",
"67 520 LINE SMOOTH",
"52 520 OFFCURVE",
"40 508 OFFCURVE",
"40 493 CURVE SMOOTH",
"40 217 LINE SMOOTH",
"40 59 OFFCURVE",
"133 -10 OFFCURVE",
"234 -10 CURVE SMOOTH",
"305 -10 OFFCURVE",
"367 11 OFFCURVE",
"400 60 CURVE",
"400 27 LINE SMOOTH",
"400 14 OFFCURVE",
"409 3 OFFCURVE",
"421 0 CURVE",
"418 -15 OFFCURVE",
"416 -32 OFFCURVE",
"416 -49 CURVE SMOOTH",
"416 -144 OFFCURVE",
"467 -220 OFFCURVE",
"588 -220 CURVE SMOOTH"
);
}
);
width = 674;
}
);
leftKerningGroup = u;
rightKerningGroup = u;
unicode = 0173;
userData = {
com.typemytype.robofont.guides = (
{
angle = 0;
isGlobal = 0;
magnetic = 5;
x = 0;
y = 213;
},
{
angle = 90;
isGlobal = 0;
magnetic = 5;
x = 493;
y = 0;
}
);
};
},
{
color = 6;
glyphname = v;
layers = (
{
anchors = (
{
name = bottom;
position = "{315, 0}";
},
{
name = top;
position = "{315, 520}";
}
);
layerId = "EC64484B-0978-4CB1-9EE9-C40A2D8C4059";
paths = (
{
closed = 1;
nodes = (
"395 0 LINE SMOOTH",
"415 0 OFFCURVE",
"422 13 OFFCURVE",
"428 25 CURVE",
"620 489 LINE SMOOTH",
"621 492 OFFCURVE",
"621 494 OFFCURVE",
"621 496 CURVE SMOOTH",
"621 509 OFFCURVE",
"610 520 OFFCURVE",
"597 520 CURVE SMOOTH",
"428 520 LINE SMOOTH",
"408 520 OFFCURVE",
"399 507 OFFCURVE",
"395 496 CURVE SMOOTH",
"315 263 LINE",
"235 496 LINE SMOOTH",
"231 507 OFFCURVE",
"222 520 OFFCURVE",
"202 520 CURVE SMOOTH",
"33 520 LINE SMOOTH",
"20 520 OFFCURVE",
"9 509 OFFCURVE",
"9 496 CURVE SMOOTH",
"9 494 OFFCURVE",
"9 492 OFFCURVE",
"10 489 CURVE SMOOTH",
"202 25 LINE",
"208 13 OFFCURVE",
"215 0 OFFCURVE",
"235 0 CURVE SMOOTH"
);
}
);
width = 630;
}
);
unicode = 0076;
userData = {
com.typemytype.robofont.guides = (
{
angle = 90;
isGlobal = 0;
magnetic = 5;
x = 267;
y = 0;
}
);
};
},
{
color = 6;
glyphname = w;
layers = (
{
anchors = (
{
name = bottom;
position = "{435, 0}";
},
{
name = top;
position = "{435, 520}";
}
);
layerId = "EC64484B-0978-4CB1-9EE9-C40A2D8C4059";
paths = (
{
closed = 1;
nodes = (
"330 0 LINE SMOOTH",
"350 0 OFFCURVE",
"359 13 OFFCURVE",
"363 25 CURVE SMOOTH",
"435 227 LINE",
"506 25 LINE SMOOTH",
"510 13 OFFCURVE",
"519 0 OFFCURVE",
"539 0 CURVE SMOOTH",
"673 0 LINE SMOOTH",
"693 0 OFFCURVE",
"702 13 OFFCURVE",
"706 25 CURVE SMOOTH",
"852 488 LINE SMOOTH",
"853 492 OFFCURVE",
"853 494 OFFCURVE",
"853 496 CURVE SMOOTH",
"853 509 OFFCURVE",
"842 520 OFFCURVE",
"829 520 CURVE SMOOTH",
"675 520 LINE SMOOTH",
"655 520 OFFCURVE",
"644 507 OFFCURVE",
"641 496 CURVE SMOOTH",
"580 288 LINE",
"515 496 LINE SMOOTH",
"512 507 OFFCURVE",
"501 520 OFFCURVE",
"481 520 CURVE SMOOTH",
"388 520 LINE SMOOTH",
"368 520 OFFCURVE",
"357 507 OFFCURVE",
"354 496 CURVE SMOOTH",
"289 288 LINE",
"228 496 LINE SMOOTH",
"225 507 OFFCURVE",
"214 520 OFFCURVE",
"194 520 CURVE SMOOTH",
"40 520 LINE SMOOTH",
"27 520 OFFCURVE",
"16 509 OFFCURVE",
"16 496 CURVE SMOOTH",
"16 494 OFFCURVE",
"16 492 OFFCURVE",
"17 488 CURVE SMOOTH",
"163 25 LINE SMOOTH",
"167 13 OFFCURVE",
"176 0 OFFCURVE",
"196 0 CURVE SMOOTH"
);
}
);
width = 869;
}
);
leftKerningGroup = w;
rightKerningGroup = w;
unicode = 0077;
userData = {
com.typemytype.robofont.guides = (
{
angle = 90;
isGlobal = 0;
magnetic = 5;
x = 45;
y = 0;
},
{
angle = 90;
isGlobal = 0;
magnetic = 5;
x = 737;
y = 0;
}
);
};
},
{
color = 6;
glyphname = x;
layers = (
{
anchors = (
{
name = bottom;
position = "{315, 0}";
},
{
name = top;
position = "{315, 520}";
}
);
layerId = "EC64484B-0978-4CB1-9EE9-C40A2D8C4059";
paths = (
{
closed = 1;
nodes = (
"215 0 LINE SMOOTH",
"233 0 OFFCURVE",
"241 11 OFFCURVE",
"245 17 CURVE SMOOTH",
"314 114 LINE",
"380 17 LINE SMOOTH",
"385 10 OFFCURVE",
"392 0 OFFCURVE",
"410 0 CURVE SMOOTH",
"602 0 LINE SMOOTH",
"615 0 OFFCURVE",
"626 11 OFFCURVE",
"626 24 CURVE SMOOTH",
"626 28 OFFCURVE",
"625 33 OFFCURVE",
"622 37 CURVE SMOOTH",
"457 269 LINE",
"604 483 LINE SMOOTH",
"606 486 OFFCURVE",
"608 490 OFFCURVE",
"608 497 CURVE SMOOTH",
"608 509 OFFCURVE",
"597 520 OFFCURVE",
"584 520 CURVE SMOOTH",
"409 520 LINE SMOOTH",
"389 520 OFFCURVE",
"381 507 OFFCURVE",
"377 501 CURVE SMOOTH",
"319 412 LINE",
"261 501 LINE SMOOTH",
"257 507 OFFCURVE",
"249 520 OFFCURVE",
"229 520 CURVE SMOOTH",
"46 520 LINE SMOOTH",
"33 520 OFFCURVE",
"22 509 OFFCURVE",
"22 496 CURVE SMOOTH",
"22 491 OFFCURVE",
"24 486 OFFCURVE",
"26 483 CURVE SMOOTH",
"170 268 LINE",
"8 37 LINE SMOOTH",
"5 33 OFFCURVE",
"4 27 OFFCURVE",
"4 24 CURVE SMOOTH",
"4 11 OFFCURVE",
"15 0 OFFCURVE",
"28 0 CURVE SMOOTH"
);
}
);
width = 630;
}
);
unicode = 0078;
userData = {
com.typemytype.robofont.guides = (
{
angle = 90;
isGlobal = 0;
magnetic = 5;
x = 255;
y = 0;
}
);
};
},
{
color = 6;
glyphname = y;
layers = (
{
anchors = (
{
name = bottom;
position = "{318, 0}";
},
{
name = top;
position = "{323, 520}";
}
);
layerId = "EC64484B-0978-4CB1-9EE9-C40A2D8C4059";
paths = (
{
closed = 1;
nodes = (
"312 -190 LINE SMOOTH",
"332 -190 OFFCURVE",
"342 -178 OFFCURVE",
"347 -166 CURVE SMOOTH",
"629 489 LINE",
"630 493 OFFCURVE",
"630 496 OFFCURVE",
"630 499 CURVE SMOOTH",
"630 510 OFFCURVE",
"619 520 OFFCURVE",
"607 520 CURVE SMOOTH",
"440 520 LINE SMOOTH",
"420 520 OFFCURVE",
"411 508 OFFCURVE",
"406 496 CURVE SMOOTH",
"321 268 LINE",
"239 496 LINE SMOOTH",
"235 507 OFFCURVE",
"227 520 OFFCURVE",
"207 520 CURVE SMOOTH",
"38 520 LINE SMOOTH",
"25 520 OFFCURVE",
"15 509 OFFCURVE",
"13 496 CURVE SMOOTH",
"13 494 OFFCURVE",
"13 492 OFFCURVE",
"14 489 CURVE SMOOTH",
"207 33 LINE",
"127 -159 LINE SMOOTH",
"125 -163 OFFCURVE",
"126 -166 OFFCURVE",
"126 -169 CURVE SMOOTH",
"126 -181 OFFCURVE",
"136 -190 OFFCURVE",
"148 -190 CURVE SMOOTH"
);
}
);
width = 636;
}
);
leftKerningGroup = y;
rightKerningGroup = y;
unicode = 0079;
},
{
color = 6;
glyphname = z;
layers = (
{
anchors = (
{
name = bottom;
position = "{295, 0}";
},
{
name = center;
position = "{295, 260}";
},
{
name = top;
position = "{297, 520}";
}
);
layerId = "EC64484B-0978-4CB1-9EE9-C40A2D8C4059";
paths = (
{
closed = 1;
nodes = (
"533 0 LINE SMOOTH",
"548 0 OFFCURVE",
"560 12 OFFCURVE",
"560 27 CURVE SMOOTH",
"560 145 LINE SMOOTH",
"560 160 OFFCURVE",
"548 172 OFFCURVE",
"533 172 CURVE SMOOTH",
"335 172 LINE",
"525 338 LINE SMOOTH",
"534 346 OFFCURVE",
"539 355 OFFCURVE",
"539 367 CURVE SMOOTH",
"539 493 LINE SMOOTH",
"539 508 OFFCURVE",
"527 520 OFFCURVE",
"512 520 CURVE SMOOTH",
"70 520 LINE SMOOTH",
"55 520 OFFCURVE",
"43 508 OFFCURVE",
"43 493 CURVE SMOOTH",
"43 375 LINE SMOOTH",
"43 360 OFFCURVE",
"55 348 OFFCURVE",
"70 348 CURVE SMOOTH",
"251 348 LINE",
"52 177 LINE SMOOTH",
"43 169 OFFCURVE",
"36 158 OFFCURVE",
"36 142 CURVE SMOOTH",
"36 27 LINE SMOOTH",
"36 12 OFFCURVE",
"48 0 OFFCURVE",
"63 0 CURVE SMOOTH"
);
}
);
width = 590;
}
);
leftKerningGroup = z;
rightKerningGroup = z;
unicode = 007A;
userData = {
com.typemytype.robofont.guides = (
{
angle = 0;
isGlobal = 0;
magnetic = 5;
x = 0;
y = 36;
},
{
angle = 90;
isGlobal = 0;
magnetic = 5;
x = 480;
y = 0;
},
{
angle = 90;
isGlobal = 0;
magnetic = 5;
x = 70;
y = 0;
}
);
};
},
{
color = 6;
glyphname = f_f;
layers = (
{
anchors = (
{
name = caret_1;
position = "{452, 0}";
}
);
layerId = "EC64484B-0978-4CB1-9EE9-C40A2D8C4059";
paths = (
{
closed = 1;
nodes = (
"313 0 LINE",
"328 0 OFFCURVE",
"340 12 OFFCURVE",
"340 27 CURVE",
"340 345 LINE",
"523 345 LINE",
"523 27 LINE",
"523 12 OFFCURVE",
"535 0 OFFCURVE",
"550 0 CURVE",
"725 0 LINE",
"740 0 OFFCURVE",
"752 12 OFFCURVE",
"752 27 CURVE",
"752 345 LINE",
"866 345 LINE",
"881 345 OFFCURVE",
"893 357 OFFCURVE",
"893 372 CURVE",
"893 493 LINE",
"893 508 OFFCURVE",
"881 520 OFFCURVE",
"866 520 CURVE",
"752 520 LINE",
"752 532 LINE",
"752 553 OFFCURVE",
"765 565 OFFCURVE",
"795 565 CURVE",
"876 565 LINE",
"891 565 OFFCURVE",
"903 577 OFFCURVE",
"903 592 CURVE",
"903 713 LINE",
"903 728 OFFCURVE",
"891 740 OFFCURVE",
"876 740 CURVE",
"783 740 LINE",
"638 740 OFFCURVE",
"523 701 OFFCURVE",
"523 537 CURVE",
"523 520 LINE",
"340 520 LINE",
"340 532 LINE",
"340 553 OFFCURVE",
"353 565 OFFCURVE",
"383 565 CURVE",
"464 565 LINE",
"479 565 OFFCURVE",
"491 577 OFFCURVE",
"491 592 CURVE",
"491 713 LINE",
"491 728 OFFCURVE",
"479 740 OFFCURVE",
"464 740 CURVE",
"371 740 LINE",
"226 740 OFFCURVE",
"111 701 OFFCURVE",
"111 537 CURVE",
"111 520 LINE",
"42 520 LINE",
"27 520 OFFCURVE",
"15 508 OFFCURVE",
"15 493 CURVE",
"15 372 LINE",
"15 357 OFFCURVE",
"27 345 OFFCURVE",
"42 345 CURVE",
"111 345 LINE",
"111 27 LINE",
"111 12 OFFCURVE",
"123 0 OFFCURVE",
"138 0 CURVE"
);
}
);
width = 904;
}
);
leftKerningGroup = f;
rightKerningGroup = f;
userData = {
com.typemytype.robofont.guides = (
{
angle = 0;
isGlobal = 0;
magnetic = 5;
x = 0;
y = 345;
},
{
angle = 0;
isGlobal = 0;
magnetic = 5;
x = 0;
y = 9;
},
{
angle = 0;
isGlobal = 0;
magnetic = 5;
x = 0;
y = 740;
},
{
angle = 90;
isGlobal = 0;
magnetic = 5;
x = 297;
y = 0;
},
{
angle = 90;
isGlobal = 0;
magnetic = 5;
x = 371;
y = 0;
}
);
};
},
{
color = 6;
glyphname = f_f_i;
layers = (
{
anchors = (
{
name = caret_1;
position = "{399, 0}";
},
{
name = caret_2;
position = "{798, 0}";
}
);
layerId = "EC64484B-0978-4CB1-9EE9-C40A2D8C4059";
paths = (
{
closed = 1;
nodes = (
"313 0 LINE",
"328 0 OFFCURVE",
"340 12 OFFCURVE",
"340 27 CURVE",
"340 345 LINE",
"523 345 LINE",
"523 27 LINE",
"523 12 OFFCURVE",
"535 0 OFFCURVE",
"550 0 CURVE",
"725 0 LINE",
"740 0 OFFCURVE",
"752 12 OFFCURVE",
"752 27 CURVE",
"752 345 LINE",
"923 345 LINE",
"923 27 LINE",
"923 12 OFFCURVE",
"935 0 OFFCURVE",
"950 0 CURVE",
"1125 0 LINE",
"1140 0 OFFCURVE",
"1152 12 OFFCURVE",
"1152 27 CURVE",
"1152 493 LINE",
"1152 508 OFFCURVE",
"1140 520 OFFCURVE",
"1125 520 CURVE",
"752 520 LINE",
"752 532 LINE",
"752 553 OFFCURVE",
"765 565 OFFCURVE",
"795 565 CURVE",
"1125 565 LINE",
"1140 565 OFFCURVE",
"1152 577 OFFCURVE",
"1152 592 CURVE",
"1152 713 LINE",
"1152 728 OFFCURVE",
"1140 740 OFFCURVE",
"1125 740 CURVE",
"783 740 LINE",
"638 740 OFFCURVE",
"523 701 OFFCURVE",
"523 537 CURVE",
"523 520 LINE",
"340 520 LINE",
"340 532 LINE",
"340 553 OFFCURVE",
"353 565 OFFCURVE",
"383 565 CURVE",
"464 565 LINE",
"479 565 OFFCURVE",
"491 577 OFFCURVE",
"491 592 CURVE",
"491 713 LINE",
"491 728 OFFCURVE",
"479 740 OFFCURVE",
"464 740 CURVE",
"371 740 LINE",
"226 740 OFFCURVE",
"111 701 OFFCURVE",
"111 537 CURVE",
"111 520 LINE",
"42 520 LINE",
"27 520 OFFCURVE",
"15 508 OFFCURVE",
"15 493 CURVE",
"15 372 LINE",
"15 357 OFFCURVE",
"27 345 OFFCURVE",
"42 345 CURVE",
"111 345 LINE",
"111 27 LINE",
"111 12 OFFCURVE",
"123 0 OFFCURVE",
"138 0 CURVE"
);
}
);
width = 1197;
}
);
leftKerningGroup = f;
rightKerningGroup = i;
userData = {
com.typemytype.robofont.guides = (
{
angle = 90;
isGlobal = 0;
magnetic = 5;
x = 712;
y = 0;
}
);
};
},
{
color = 6;
glyphname = f_f_l;
layers = (
{
anchors = (
{
name = caret_1;
position = "{403, 0}";
},
{
name = caret_2;
position = "{806, 0}";
}
);
layerId = "EC64484B-0978-4CB1-9EE9-C40A2D8C4059";
paths = (
{
closed = 1;
nodes = (
"313 0 LINE",
"328 0 OFFCURVE",
"340 12 OFFCURVE",
"340 27 CURVE",
"340 345 LINE",
"523 345 LINE",
"523 27 LINE",
"523 12 OFFCURVE",
"535 0 OFFCURVE",
"550 0 CURVE",
"725 0 LINE",
"740 0 OFFCURVE",
"752 12 OFFCURVE",
"752 27 CURVE",
"752 345 LINE",
"935 345 LINE",
"935 27 LINE",
"935 12 OFFCURVE",
"947 0 OFFCURVE",
"962 0 CURVE",
"1137 0 LINE",
"1152 0 OFFCURVE",
"1164 12 OFFCURVE",
"1164 27 CURVE",
"1164 713 LINE",
"1164 728 OFFCURVE",
"1152 740 OFFCURVE",
"1137 740 CURVE",
"962 740 LINE",
"947 740 OFFCURVE",
"935 728 OFFCURVE",
"935 713 CURVE",
"935 520 LINE",
"752 520 LINE",
"752 532 LINE",
"752 553 OFFCURVE",
"765 565 OFFCURVE",
"795 565 CURVE",
"856 565 LINE",
"871 565 OFFCURVE",
"883 577 OFFCURVE",
"883 592 CURVE",
"883 713 LINE",
"883 728 OFFCURVE",
"871 740 OFFCURVE",
"856 740 CURVE",
"783 740 LINE",
"638 740 OFFCURVE",
"523 701 OFFCURVE",
"523 537 CURVE",
"523 520 LINE",
"340 520 LINE",
"340 532 LINE",
"340 553 OFFCURVE",
"353 565 OFFCURVE",
"383 565 CURVE",
"464 565 LINE",
"479 565 OFFCURVE",
"491 577 OFFCURVE",
"491 592 CURVE",
"491 713 LINE",
"491 728 OFFCURVE",
"479 740 OFFCURVE",
"464 740 CURVE",
"371 740 LINE",
"226 740 OFFCURVE",
"111 701 OFFCURVE",
"111 537 CURVE",
"111 520 LINE",
"42 520 LINE",
"27 520 OFFCURVE",
"15 508 OFFCURVE",
"15 493 CURVE",
"15 372 LINE",
"15 357 OFFCURVE",
"27 345 OFFCURVE",
"42 345 CURVE",
"111 345 LINE",
"111 27 LINE",
"111 12 OFFCURVE",
"123 0 OFFCURVE",
"138 0 CURVE"
);
}
);
width = 1209;
}
);
leftKerningGroup = f;
rightKerningGroup = l;
},
{
color = 6;
glyphname = fi;
layers = (
{
anchors = (
{
name = caret_1;
position = "{392.5, 0}";
}
);
layerId = "EC64484B-0978-4CB1-9EE9-C40A2D8C4059";
paths = (
{
closed = 1;
nodes = (
"313 0 LINE SMOOTH",
"328 0 OFFCURVE",
"340 12 OFFCURVE",
"340 27 CURVE SMOOTH",
"340 345 LINE",
"511 345 LINE",
"511 27 LINE SMOOTH",
"511 12 OFFCURVE",
"523 0 OFFCURVE",
"538 0 CURVE SMOOTH",
"713 0 LINE SMOOTH",
"728 0 OFFCURVE",
"740 12 OFFCURVE",
"740 27 CURVE SMOOTH",
"740 493 LINE SMOOTH",
"740 508 OFFCURVE",
"728 520 OFFCURVE",
"713 520 CURVE SMOOTH",
"340 520 LINE",
"340 532 LINE SMOOTH",
"340 553 OFFCURVE",
"353 565 OFFCURVE",
"383 565 CURVE SMOOTH",
"713 565 LINE SMOOTH",
"728 565 OFFCURVE",
"740 577 OFFCURVE",
"740 592 CURVE SMOOTH",
"740 713 LINE SMOOTH",
"740 728 OFFCURVE",
"728 740 OFFCURVE",
"713 740 CURVE SMOOTH",
"371 740 LINE SMOOTH",
"226 740 OFFCURVE",
"111 701 OFFCURVE",
"111 537 CURVE SMOOTH",
"111 520 LINE",
"42 520 LINE SMOOTH",
"27 520 OFFCURVE",
"15 508 OFFCURVE",
"15 493 CURVE SMOOTH",
"15 372 LINE SMOOTH",
"15 357 OFFCURVE",
"27 345 OFFCURVE",
"42 345 CURVE SMOOTH",
"111 345 LINE",
"111 27 LINE SMOOTH",
"111 12 OFFCURVE",
"123 0 OFFCURVE",
"138 0 CURVE SMOOTH"
);
}
);
width = 785;
}
);
leftKerningGroup = f;
rightKerningGroup = i;
unicode = FB01;
userData = {
com.typemytype.robofont.guides = (
{
angle = 90;
isGlobal = 0;
magnetic = 5;
x = 430;
y = 0;
},
{
angle = 90;
isGlobal = 0;
magnetic = 5;
x = 35;
y = 0;
}
);
};
},
{
color = 6;
glyphname = fl;
layers = (
{
anchors = (
{
name = caret_1;
position = "{398.5, 0}";
}
);
layerId = "EC64484B-0978-4CB1-9EE9-C40A2D8C4059";
paths = (
{
closed = 1;
nodes = (
"313 0 LINE SMOOTH",
"328 0 OFFCURVE",
"340 12 OFFCURVE",
"340 27 CURVE SMOOTH",
"340 345 LINE",
"523 345 LINE",
"523 27 LINE SMOOTH",
"523 12 OFFCURVE",
"535 0 OFFCURVE",
"550 0 CURVE SMOOTH",
"725 0 LINE SMOOTH",
"740 0 OFFCURVE",
"752 12 OFFCURVE",
"752 27 CURVE SMOOTH",
"752 713 LINE SMOOTH",
"752 728 OFFCURVE",
"740 740 OFFCURVE",
"725 740 CURVE SMOOTH",
"550 740 LINE SMOOTH",
"535 740 OFFCURVE",
"523 728 OFFCURVE",
"523 713 CURVE SMOOTH",
"523 520 LINE",
"340 520 LINE",
"340 532 LINE SMOOTH",
"340 553 OFFCURVE",
"353 565 OFFCURVE",
"383 565 CURVE SMOOTH",
"444 565 LINE SMOOTH",
"459 565 OFFCURVE",
"471 577 OFFCURVE",
"471 592 CURVE SMOOTH",
"471 713 LINE SMOOTH",
"471 728 OFFCURVE",
"459 740 OFFCURVE",
"444 740 CURVE SMOOTH",
"371 740 LINE SMOOTH",
"226 740 OFFCURVE",
"111 701 OFFCURVE",
"111 537 CURVE SMOOTH",
"111 520 LINE",
"42 520 LINE SMOOTH",
"27 520 OFFCURVE",
"15 508 OFFCURVE",
"15 493 CURVE SMOOTH",
"15 372 LINE SMOOTH",
"15 357 OFFCURVE",
"27 345 OFFCURVE",
"42 345 CURVE SMOOTH",
"111 345 LINE",
"111 27 LINE SMOOTH",
"111 12 OFFCURVE",
"123 0 OFFCURVE",
"138 0 CURVE SMOOTH"
);
}
);
width = 797;
}
);
leftKerningGroup = f;
rightKerningGroup = l;
unicode = FB02;
userData = {
com.typemytype.robofont.guides = (
{
angle = 90;
isGlobal = 0;
magnetic = 5;
x = 35;
y = 0;
}
);
};
},
{
color = 6;
glyphname = ordfeminine;
layers = (
{
layerId = "EC64484B-0978-4CB1-9EE9-C40A2D8C4059";
paths = (
{
closed = 1;
nodes = (
"153 429 OFFCURVE",
"180 441 OFFCURVE",
"194 462 CURVE",
"194 448 LINE SMOOTH",
"194 441 OFFCURVE",
"201 434 OFFCURVE",
"209 434 CURVE SMOOTH",
"298 434 LINE SMOOTH",
"306 434 OFFCURVE",
"312 441 OFFCURVE",
"312 448 CURVE SMOOTH",
"312 594 LINE SMOOTH",
"312 670 OFFCURVE",
"268 705 OFFCURVE",
"175 705 CURVE SMOOTH",
"79 705 OFFCURVE",
"43 655 OFFCURVE",
"41 629 CURVE SMOOTH",
"40 622 OFFCURVE",
"45 617 OFFCURVE",
"51 617 CURVE SMOOTH",
"138 617 LINE SMOOTH",
"155 617 OFFCURVE",
"156 633 OFFCURVE",
"173 633 CURVE SMOOTH",
"188 633 OFFCURVE",
"189 626 OFFCURVE",
"189 607 CURVE",
"135 598 LINE SMOOTH",
"66 586 OFFCURVE",
"22 560 OFFCURVE",
"22 510 CURVE SMOOTH",
"22 464 OFFCURVE",
"63 429 OFFCURVE",
"122 429 CURVE SMOOTH"
);
},
{
closed = 1;
nodes = (
"145 505 OFFCURVE",
"137 510 OFFCURVE",
"137 518 CURVE SMOOTH",
"137 525 OFFCURVE",
"143 532 OFFCURVE",
"161 537 CURVE SMOOTH",
"189 544 LINE",
"189 516 OFFCURVE",
"177 505 OFFCURVE",
"157 505 CURVE SMOOTH"
);
}
);
width = 351;
}
);
unicode = 00AA;
},
{
color = 6;
glyphname = ordmasculine;
layers = (
{
layerId = "EC64484B-0978-4CB1-9EE9-C40A2D8C4059";
paths = (
{
closed = 1;
nodes = (
"274 429 OFFCURVE",
"320 470 OFFCURVE",
"324 540 CURVE SMOOTH",
"325 550 OFFCURVE",
"325 584 OFFCURVE",
"324 594 CURVE SMOOTH",
"320 664 OFFCURVE",
"268 705 OFFCURVE",
"175 705 CURVE SMOOTH",
"82 705 OFFCURVE",
"30 664 OFFCURVE",
"26 594 CURVE SMOOTH",
"25 584 OFFCURVE",
"25 550 OFFCURVE",
"26 540 CURVE SMOOTH",
"30 470 OFFCURVE",
"76 429 OFFCURVE",
"175 429 CURVE SMOOTH"
);
},
{
closed = 1;
nodes = (
"158 511 OFFCURVE",
"154 517 OFFCURVE",
"152 545 CURVE SMOOTH",
"151 555 OFFCURVE",
"151 579 OFFCURVE",
"152 589 CURVE SMOOTH",
"153 614 OFFCURVE",
"158 623 OFFCURVE",
"175 623 CURVE SMOOTH",
"192 623 OFFCURVE",
"197 614 OFFCURVE",
"198 589 CURVE SMOOTH",
"199 579 OFFCURVE",
"199 555 OFFCURVE",
"198 545 CURVE SMOOTH",
"196 517 OFFCURVE",
"192 511 OFFCURVE",
"175 511 CURVE SMOOTH"
);
}
);
width = 350;
}
);
unicode = 00BA;
userData = {
com.typemytype.robofont.guides = (
{
angle = 0;
isGlobal = 0;
magnetic = 5;
x = 0;
y = 589;
},
{
angle = 0;
isGlobal = 0;
magnetic = 5;
x = 0;
y = 545;
},
{
angle = 0;
isGlobal = 0;
magnetic = 5;
x = 0;
y = 429;
},
{
angle = 0;
isGlobal = 0;
magnetic = 5;
x = 0;
y = 705;
},
{
angle = 90;
isGlobal = 0;
magnetic = 5;
x = 134;
y = 0;
}
);
};
},
{
color = 6;
glyphname = "Be-cy";
layers = (
{
layerId = "EC64484B-0978-4CB1-9EE9-C40A2D8C4059";
paths = (
{
closed = 1;
nodes = (
"395 0 LINE SMOOTH",
"575 0 OFFCURVE",
"681 85 OFFCURVE",
"681 226 CURVE SMOOTH",
"681 365 OFFCURVE",
"570 447 OFFCURVE",
"395 447 CURVE SMOOTH",
"305 447 LINE",
"305 495 LINE",
"600 495 LINE SMOOTH",
"615 495 OFFCURVE",
"627 507 OFFCURVE",
"627 522 CURVE SMOOTH",
"627 673 LINE SMOOTH",
"627 688 OFFCURVE",
"615 700 OFFCURVE",
"600 700 CURVE SMOOTH",
"82 700 LINE SMOOTH",
"67 700 OFFCURVE",
"55 688 OFFCURVE",
"55 673 CURVE SMOOTH",
"55 27 LINE SMOOTH",
"55 12 OFFCURVE",
"67 0 OFFCURVE",
"82 0 CURVE SMOOTH"
);
},
{
closed = 1;
nodes = (
"305 280 LINE",
"375 280 LINE SMOOTH",
"403 280 OFFCURVE",
"421 253 OFFCURVE",
"421 226 CURVE SMOOTH",
"421 199 OFFCURVE",
"406 172 OFFCURVE",
"375 172 CURVE SMOOTH",
"305 172 LINE"
);
}
);
width = 672;
}
);
leftKerningGroup = afii10026;
unicode = 0411;
userData = {
com.typemytype.robofont.guides = (
{
angle = 0;
isGlobal = 0;
magnetic = 5;
x = 0;
y = 280;
},
{
angle = 0;
isGlobal = 0;
magnetic = 5;
x = 0;
y = 447;
},
{
angle = 90;
isGlobal = 0;
magnetic = 5;
x = 516;
y = 0;
}
);
};
},
{
color = 6;
glyphname = "Ge-cy";
layers = (
{
anchors = (
{
name = bottomright;
position = "{174, 0}";
},
{
name = top;
position = "{350, 700}";
}
);
layerId = "EC64484B-0978-4CB1-9EE9-C40A2D8C4059";
paths = (
{
closed = 1;
nodes = (
"278 0 LINE SMOOTH",
"293 0 OFFCURVE",
"305 12 OFFCURVE",
"305 27 CURVE SMOOTH",
"305 495 LINE",
"552 495 LINE SMOOTH",
"567 495 OFFCURVE",
"579 507 OFFCURVE",
"579 522 CURVE SMOOTH",
"579 673 LINE SMOOTH",
"579 688 OFFCURVE",
"567 700 OFFCURVE",
"552 700 CURVE SMOOTH",
"82 700 LINE SMOOTH",
"67 700 OFFCURVE",
"55 688 OFFCURVE",
"55 673 CURVE SMOOTH",
"55 27 LINE SMOOTH",
"55 12 OFFCURVE",
"67 0 OFFCURVE",
"82 0 CURVE SMOOTH"
);
}
);
width = 599;
}
);
leftKerningGroup = afii10026;
rightKerningGroup = afii10020;
unicode = 0413;
userData = {
com.typemytype.robofont.guides = (
{
angle = 90;
isGlobal = 0;
magnetic = 5;
x = 516;
y = 0;
}
);
};
},
{
color = 6;
glyphname = "Gheupturn-cy";
layers = (
{
layerId = "EC64484B-0978-4CB1-9EE9-C40A2D8C4059";
paths = (
{
closed = 1;
nodes = (
"356 840 LINE SMOOTH",
"341 840 OFFCURVE",
"329 828 OFFCURVE",
"329 813 CURVE SMOOTH",
"329 700 LINE",
"82 700 LINE SMOOTH",
"67 700 OFFCURVE",
"55 688 OFFCURVE",
"55 673 CURVE SMOOTH",
"55 27 LINE SMOOTH",
"55 12 OFFCURVE",
"67 0 OFFCURVE",
"82 0 CURVE SMOOTH",
"278 0 LINE SMOOTH",
"293 0 OFFCURVE",
"305 12 OFFCURVE",
"305 27 CURVE SMOOTH",
"305 495 LINE",
"552 495 LINE SMOOTH",
"567 495 OFFCURVE",
"579 507 OFFCURVE",
"579 522 CURVE SMOOTH",
"579 813 LINE SMOOTH",
"579 828 OFFCURVE",
"567 840 OFFCURVE",
"552 840 CURVE SMOOTH"
);
}
);
width = 599;
}
);
leftMetricsKey = "En-cy";
rightMetricsKey = "Ge-cy";
unicode = 0490;
},
{
color = 6;
glyphname = "Ghestroke-cy";
layers = (
{
layerId = "EC64484B-0978-4CB1-9EE9-C40A2D8C4059";
paths = (
{
closed = 1;
nodes = (
"268 0 LINE SMOOTH",
"283 0 OFFCURVE",
"295 12 OFFCURVE",
"295 27 CURVE SMOOTH",
"295 495 LINE",
"552 495 LINE SMOOTH",
"567 495 OFFCURVE",
"579 507 OFFCURVE",
"579 522 CURVE SMOOTH",
"579 673 LINE SMOOTH",
"579 688 OFFCURVE",
"567 700 OFFCURVE",
"552 700 CURVE SMOOTH",
"82 700 LINE SMOOTH",
"67 700 OFFCURVE",
"55 688 OFFCURVE",
"55 673 CURVE SMOOTH",
"55 27 LINE SMOOTH",
"55 12 OFFCURVE",
"67 0 OFFCURVE",
"82 0 CURVE SMOOTH"
);
},
{
closed = 1;
nodes = (
"385 269 LINE SMOOTH",
"400 269 OFFCURVE",
"412 281 OFFCURVE",
"412 296 CURVE SMOOTH",
"412 364 LINE SMOOTH",
"412 379 OFFCURVE",
"400 391 OFFCURVE",
"385 391 CURVE SMOOTH",
"10 391 LINE SMOOTH",
"-5 391 OFFCURVE",
"-17 379 OFFCURVE",
"-17 364 CURVE SMOOTH",
"-17 296 LINE SMOOTH",
"-17 281 OFFCURVE",
"-5 269 OFFCURVE",
"10 269 CURVE SMOOTH"
);
}
);
width = 599;
}
);
unicode = 0492;
},
{
color = 6;
glyphname = "Ghemiddlehook-cy";
layers = (
{
layerId = "EC64484B-0978-4CB1-9EE9-C40A2D8C4059";
paths = (
{
closed = 1;
nodes = (
"278 0 LINE SMOOTH",
"293 0 OFFCURVE",
"305 12 OFFCURVE",
"305 27 CURVE SMOOTH",
"305 495 LINE",
"552 495 LINE SMOOTH",
"567 495 OFFCURVE",
"579 507 OFFCURVE",
"579 522 CURVE SMOOTH",
"579 673 LINE SMOOTH",
"579 688 OFFCURVE",
"567 700 OFFCURVE",
"552 700 CURVE SMOOTH",
"82 700 LINE SMOOTH",
"67 700 OFFCURVE",
"55 688 OFFCURVE",
"55 673 CURVE SMOOTH",
"55 27 LINE SMOOTH",
"55 12 OFFCURVE",
"67 0 OFFCURVE",
"82 0 CURVE SMOOTH"
);
},
{
closed = 1;
nodes = (
"305 149 LINE",
"305 179 OFFCURVE",
"325 189 OFFCURVE",
"371 189 CURVE SMOOTH",
"418 189 OFFCURVE",
"438 172 OFFCURVE",
"438 132 CURVE SMOOTH",
"438 129 LINE SMOOTH",
"438 105 OFFCURVE",
"424 90 OFFCURVE",
"381 90 CURVE SMOOTH",
"371 90 LINE SMOOTH",
"356 90 OFFCURVE",
"344 78 OFFCURVE",
"344 63 CURVE SMOOTH",
"344 -63 LINE SMOOTH",
"344 -78 OFFCURVE",
"356 -90 OFFCURVE",
"371 -90 CURVE SMOOTH",
"381 -90 LINE SMOOTH",
"570 -90 OFFCURVE",
"688 -27 OFFCURVE",
"688 128 CURVE SMOOTH",
"688 153 LINE SMOOTH",
"688 317 OFFCURVE",
"609 397 OFFCURVE",
"435 397 CURVE SMOOTH",
"378 397 OFFCURVE",
"327 382 OFFCURVE",
"294 362 CURVE"
);
}
);
width = 718;
}
);
leftMetricsKey = "En-cy";
rightMetricsKey = "Dje-cy";
unicode = 0494;
},
{
color = 6;
glyphname = "De-cy";
layers = (
{
layerId = "EC64484B-0978-4CB1-9EE9-C40A2D8C4059";
paths = (
{
closed = 1;
nodes = (
"258 -140 LINE SMOOTH",
"273 -140 OFFCURVE",
"285 -128 OFFCURVE",
"285 -113 CURVE SMOOTH",
"285 0 LINE",
"565 0 LINE",
"565 -113 LINE SMOOTH",
"565 -128 OFFCURVE",
"577 -140 OFFCURVE",
"592 -140 CURVE SMOOTH",
"788 -140 LINE SMOOTH",
"803 -140 OFFCURVE",
"815 -128 OFFCURVE",
"815 -113 CURVE SMOOTH",
"815 193 LINE SMOOTH",
"815 208 OFFCURVE",
"803 220 OFFCURVE",
"788 220 CURVE SMOOTH",
"743 220 LINE",
"743 673 LINE SMOOTH",
"743 688 OFFCURVE",
"731 700 OFFCURVE",
"716 700 CURVE SMOOTH",
"178 700 LINE SMOOTH",
"163 700 OFFCURVE",
"151 688 OFFCURVE",
"151 673 CURVE SMOOTH",
"151 481 LINE SMOOTH",
"151 363 OFFCURVE",
"143 220 OFFCURVE",
"77 220 CURVE SMOOTH",
"62 220 LINE SMOOTH",
"47 220 OFFCURVE",
"35 208 OFFCURVE",
"35 193 CURVE SMOOTH",
"35 -113 LINE SMOOTH",
"35 -129 OFFCURVE",
"47 -140 OFFCURVE",
"62 -140 CURVE SMOOTH"
);
},
{
closed = 1;
nodes = (
"381 274 OFFCURVE",
"391 350 OFFCURVE",
"391 449 CURVE SMOOTH",
"391 480 LINE",
"493 480 LINE",
"493 220 LINE",
"362 220 LINE"
);
}
);
width = 845;
}
);
rightMetricsKey = "Tse-cy";
unicode = 0414;
userData = {
com.typemytype.robofont.guides = (
{
angle = 0;
isGlobal = 0;
magnetic = 5;
x = 0;
y = "-110";
}
);
};
},
{
color = 6;
glyphname = "Zhe-cy";
layers = (
{
anchors = (
{
name = bottomright;
position = "{954, 0}";
},
{
name = top;
position = "{568, 700}";
}
);
layerId = "EC64484B-0978-4CB1-9EE9-C40A2D8C4059";
paths = (
{
closed = 1;
nodes = (
"260 0 LINE SMOOTH",
"287 0 OFFCURVE",
"297 17 OFFCURVE",
"301 23 CURVE SMOOTH",
"424 243 LINE",
"448 243 LINE",
"448 27 LINE SMOOTH",
"448 11 OFFCURVE",
"460 0 OFFCURVE",
"475 0 CURVE SMOOTH",
"661 0 LINE SMOOTH",
"676 0 OFFCURVE",
"688 11 OFFCURVE",
"688 27 CURVE SMOOTH",
"688 243 LINE",
"712 243 LINE",
"835 23 LINE SMOOTH",
"839 17 OFFCURVE",
"849 0 OFFCURVE",
"876 0 CURVE SMOOTH",
"1104 0 LINE SMOOTH",
"1116 0 OFFCURVE",
"1126 10 OFFCURVE",
"1126 22 CURVE SMOOTH",
"1126 25 OFFCURVE",
"1125 30 OFFCURVE",
"1123 33 CURVE SMOOTH",
"926 365 LINE",
"1106 667 LINE SMOOTH",
"1108 670 OFFCURVE",
"1109 674 OFFCURVE",
"1109 678 CURVE SMOOTH",
"1109 690 OFFCURVE",
"1099 700 OFFCURVE",
"1087 700 CURVE SMOOTH",
"866 700 LINE SMOOTH",
"844 700 OFFCURVE",
"832 689 OFFCURVE",
"826 678 CURVE SMOOTH",
"704 463 LINE",
"688 463 LINE",
"688 673 LINE SMOOTH",
"688 688 OFFCURVE",
"676 700 OFFCURVE",
"661 700 CURVE SMOOTH",
"475 700 LINE SMOOTH",
"460 700 OFFCURVE",
"448 688 OFFCURVE",
"448 673 CURVE SMOOTH",
"448 463 LINE",
"432 463 LINE",
"310 678 LINE SMOOTH",
"304 689 OFFCURVE",
"292 700 OFFCURVE",
"270 700 CURVE SMOOTH",
"49 700 LINE SMOOTH",
"37 700 OFFCURVE",
"27 690 OFFCURVE",
"27 678 CURVE SMOOTH",
"27 674 OFFCURVE",
"28 670 OFFCURVE",
"30 667 CURVE SMOOTH",
"210 365 LINE",
"13 33 LINE SMOOTH",
"11 30 OFFCURVE",
"10 25 OFFCURVE",
"10 22 CURVE SMOOTH",
"10 10 OFFCURVE",
"20 0 OFFCURVE",
"32 0 CURVE SMOOTH"
);
}
);
width = 1136;
}
);
leftMetricsKey = "=|Ka-cy";
rightMetricsKey = "Ka-cy";
unicode = 0416;
},
{
color = 6;
glyphname = "Ze-cy";
layers = (
{
anchors = (
{
name = bottom;
position = "{358, 0}";
},
{
name = top;
position = "{358, 700}";
}
);
layerId = "EC64484B-0978-4CB1-9EE9-C40A2D8C4059";
paths = (
{
closed = 1;
nodes = (
"562 -10 OFFCURVE",
"687 77 OFFCURVE",
"687 209 CURVE SMOOTH",
"687 260 OFFCURVE",
"668 330 OFFCURVE",
"590 368 CURVE",
"655 403 OFFCURVE",
"668 460 OFFCURVE",
"668 501 CURVE SMOOTH",
"668 618 OFFCURVE",
"541 710 OFFCURVE",
"360 710 CURVE SMOOTH",
"119 710 OFFCURVE",
"50 589 OFFCURVE",
"40 501 CURVE SMOOTH",
"39 489 OFFCURVE",
"50 479 OFFCURVE",
"62 479 CURVE SMOOTH",
"260 479 LINE SMOOTH",
"278 479 OFFCURVE",
"284 484 OFFCURVE",
"292 495 CURVE SMOOTH",
"297 502 OFFCURVE",
"314 515 OFFCURVE",
"354 515 CURVE SMOOTH",
"400 515 OFFCURVE",
"412 496 OFFCURVE",
"412 474 CURVE SMOOTH",
"412 448 OFFCURVE",
"390 438 OFFCURVE",
"357 438 CURVE SMOOTH",
"282 438 LINE SMOOTH",
"267 438 OFFCURVE",
"255 424 OFFCURVE",
"255 409 CURVE SMOOTH",
"255 289 LINE SMOOTH",
"255 274 OFFCURVE",
"267 260 OFFCURVE",
"282 260 CURVE SMOOTH",
"357 260 LINE SMOOTH",
"404 260 OFFCURVE",
"427 249 OFFCURVE",
"427 221 CURVE SMOOTH",
"427 196 OFFCURVE",
"407 183 OFFCURVE",
"354 183 CURVE SMOOTH",
"318 183 OFFCURVE",
"300 190 OFFCURVE",
"287 203 CURVE SMOOTH",
"278 212 OFFCURVE",
"271 219 OFFCURVE",
"253 219 CURVE SMOOTH",
"57 219 LINE SMOOTH",
"45 219 OFFCURVE",
"34 209 OFFCURVE",
"35 197 CURVE SMOOTH",
"45 108 OFFCURVE",
"119 -10 OFFCURVE",
"360 -10 CURVE SMOOTH"
);
}
);
width = 715;
}
);
rightMetricsKey = "Ve-cy";
unicode = 0417;
userData = {
com.typemytype.robofont.guides = (
{
angle = 0;
isGlobal = 0;
magnetic = 5;
x = 0;
y = "-10";
},
{
angle = 0;
isGlobal = 0;
magnetic = 5;
x = 0;
y = 180;
},
{
angle = 90;
isGlobal = 0;
magnetic = 5;
x = 61;
y = 0;
},
{
angle = 90;
isGlobal = 0;
magnetic = 5;
x = 309;
y = 0;
}
);
};
},
{
color = 6;
glyphname = "Ii-cy";
layers = (
{
anchors = (
{
name = bottomright;
position = "{790, 0}";
},
{
name = top;
position = "{415, 700}";
}
);
layerId = "EC64484B-0978-4CB1-9EE9-C40A2D8C4059";
paths = (
{
closed = 1;
nodes = (
"255 0 LINE SMOOTH",
"278 0 OFFCURVE",
"288 11 OFFCURVE",
"296 23 CURVE",
"505 308 LINE",
"505 27 LINE SMOOTH",
"505 12 OFFCURVE",
"517 0 OFFCURVE",
"532 0 CURVE SMOOTH",
"728 0 LINE SMOOTH",
"743 0 OFFCURVE",
"755 12 OFFCURVE",
"755 27 CURVE SMOOTH",
"755 673 LINE SMOOTH",
"755 688 OFFCURVE",
"743 700 OFFCURVE",
"728 700 CURVE SMOOTH",
"555 700 LINE SMOOTH",
"536 700 OFFCURVE",
"523 692 OFFCURVE",
"514 677 CURVE",
"305 370 LINE",
"305 673 LINE SMOOTH",
"305 688 OFFCURVE",
"293 700 OFFCURVE",
"278 700 CURVE SMOOTH",
"82 700 LINE SMOOTH",
"67 700 OFFCURVE",
"55 688 OFFCURVE",
"55 673 CURVE SMOOTH",
"55 27 LINE SMOOTH",
"55 12 OFFCURVE",
"67 0 OFFCURVE",
"82 0 CURVE SMOOTH"
);
}
);
width = 810;
}
);
leftKerningGroup = afii10026;
leftMetricsKey = "En-cy";
rightKerningGroup = afii10026;
rightMetricsKey = "En-cy";
unicode = 0418;
},
{
color = 6;
glyphname = "Ka-cy";
layers = (
{
anchors = (
{
name = bottomright;
position = "{563, 0}";
},
{
name = top;
position = "{365, 700}";
}
);
layerId = "EC64484B-0978-4CB1-9EE9-C40A2D8C4059";
paths = (
{
closed = 1;
nodes = (
"278 0 LINE SMOOTH",
"293 0 OFFCURVE",
"305 12 OFFCURVE",
"305 27 CURVE SMOOTH",
"305 243 LINE",
"329 243 LINE",
"452 23 LINE SMOOTH",
"456 17 OFFCURVE",
"466 0 OFFCURVE",
"493 0 CURVE SMOOTH",
"721 0 LINE SMOOTH",
"733 0 OFFCURVE",
"743 10 OFFCURVE",
"743 22 CURVE SMOOTH",
"743 25 OFFCURVE",
"742 30 OFFCURVE",
"740 33 CURVE SMOOTH",
"543 365 LINE",
"723 667 LINE SMOOTH",
"725 670 OFFCURVE",
"726 674 OFFCURVE",
"726 678 CURVE SMOOTH",
"726 690 OFFCURVE",
"716 700 OFFCURVE",
"704 700 CURVE SMOOTH",
"483 700 LINE SMOOTH",
"461 700 OFFCURVE",
"449 689 OFFCURVE",
"443 678 CURVE SMOOTH",
"321 463 LINE",
"305 463 LINE",
"305 673 LINE SMOOTH",
"305 688 OFFCURVE",
"293 700 OFFCURVE",
"278 700 CURVE SMOOTH",
"82 700 LINE SMOOTH",
"67 700 OFFCURVE",
"55 688 OFFCURVE",
"55 673 CURVE SMOOTH",
"55 27 LINE SMOOTH",
"55 11 OFFCURVE",
"67 0 OFFCURVE",
"82 0 CURVE SMOOTH"
);
}
);
width = 753;
},
{
anchors = (
{
name = bottomright;
position = "{695, 0}";
},
{
name = top;
position = "{358, 700}";
}
);
associatedMasterId = "EC64484B-0978-4CB1-9EE9-C40A2D8C4059";
background = {
anchors = (
{
name = bottomright;
position = "{695, 0}";
},
{
name = top;
position = "{358, 700}";
}
);
paths = (
{
closed = 1;
nodes = (
"701 0 LINE SMOOTH",
"713 0 OFFCURVE",
"723 10 OFFCURVE",
"723 22 CURVE SMOOTH",
"723 25 OFFCURVE",
"722 30 OFFCURVE",
"720 33 CURVE",
"618 302 LINE SMOOTH",
"576 413 OFFCURVE",
"515 463 OFFCURVE",
"424 463 CURVE SMOOTH",
"292 463 LINE",
"292 248 LINE",
"339 248 LINE SMOOTH",
"363 248 OFFCURVE",
"378 233 OFFCURVE",
"391 200 CURVE SMOOTH",
"457 23 LINE SMOOTH",
"463 7 OFFCURVE",
"472 0 OFFCURVE",
"498 0 CURVE SMOOTH"
);
},
{
closed = 1;
nodes = (
"278 0 LINE SMOOTH",
"293 0 OFFCURVE",
"305 12 OFFCURVE",
"305 27 CURVE SMOOTH",
"305 673 LINE SMOOTH",
"305 688 OFFCURVE",
"293 700 OFFCURVE",
"278 700 CURVE SMOOTH",
"82 700 LINE SMOOTH",
"67 700 OFFCURVE",
"55 688 OFFCURVE",
"55 673 CURVE SMOOTH",
"55 27 LINE SMOOTH",
"55 12 OFFCURVE",
"67 0 OFFCURVE",
"82 0 CURVE SMOOTH"
);
},
{
closed = 1;
nodes = (
"567 335 LINE",
"695 667 LINE SMOOTH",
"702 685 OFFCURVE",
"697 700 OFFCURVE",
"676 700 CURVE SMOOTH",
"473 700 LINE SMOOTH",
"451 700 OFFCURVE",
"438 693 OFFCURVE",
"433 678 CURVE SMOOTH",
"311 335 LINE"
);
}
);
};
color = 6;
layerId = "D8C7E40E-65C5-412D-93E0-7B6E51038BD5";
name = "Sep 1 16, 19:04";
paths = (
{
closed = 1;
nodes = (
"278 0 LINE SMOOTH",
"293 0 OFFCURVE",
"305 12 OFFCURVE",
"305 27 CURVE SMOOTH",
"305 248 LINE",
"339 248 LINE SMOOTH",
"363 248 OFFCURVE",
"378 233 OFFCURVE",
"391 200 CURVE SMOOTH",
"457 23 LINE SMOOTH",
"464 6 OFFCURVE",
"473 0 OFFCURVE",
"498 0 CURVE SMOOTH",
"701 0 LINE SMOOTH",
"718 0 OFFCURVE",
"726 18 OFFCURVE",
"720 33 CURVE SMOOTH",
"618 302 LINE SMOOTH",
"606 333 OFFCURVE",
"594 357 OFFCURVE",
"582 375 CURVE",
"695 667 LINE SMOOTH",
"697 672 OFFCURVE",
"698 677 OFFCURVE",
"698 681 CURVE SMOOTH",
"698 693 OFFCURVE",
"691 700 OFFCURVE",
"676 700 CURVE SMOOTH",
"473 700 LINE SMOOTH",
"451 700 OFFCURVE",
"438 693 OFFCURVE",
"433 678 CURVE SMOOTH",
"357 463 LINE",
"305 463 LINE",
"305 673 LINE SMOOTH",
"305 688 OFFCURVE",
"293 700 OFFCURVE",
"278 700 CURVE SMOOTH",
"82 700 LINE SMOOTH",
"67 700 OFFCURVE",
"55 688 OFFCURVE",
"55 673 CURVE SMOOTH",
"55 27 LINE SMOOTH",
"55 12 OFFCURVE",
"67 0 OFFCURVE",
"82 0 CURVE SMOOTH"
);
}
);
width = 715;
}
);
leftKerningGroup = afii10026;
leftMetricsKey = "En-cy";
rightKerningGroup = afii10028;
unicode = 041A;
},
{
color = 6;
glyphname = "El-cy";
layers = (
{
layerId = "EC64484B-0978-4CB1-9EE9-C40A2D8C4059";
paths = (
{
closed = 1;
nodes = (
"731 0 LINE SMOOTH",
"746 0 OFFCURVE",
"758 12 OFFCURVE",
"758 27 CURVE SMOOTH",
"758 673 LINE SMOOTH",
"758 688 OFFCURVE",
"746 700 OFFCURVE",
"731 700 CURVE SMOOTH",
"163 700 LINE SMOOTH",
"148 700 OFFCURVE",
"136 688 OFFCURVE",
"136 673 CURVE SMOOTH",
"136 481 LINE SMOOTH",
"136 357 OFFCURVE",
"130 225 OFFCURVE",
"62 212 CURVE SMOOTH",
"46 209 OFFCURVE",
"35 200 OFFCURVE",
"35 185 CURVE SMOOTH",
"35 27 LINE SMOOTH",
"35 12 OFFCURVE",
"48 0 OFFCURVE",
"63 0 CURVE SMOOTH",
"340 0 OFFCURVE",
"376 127 OFFCURVE",
"376 449 CURVE SMOOTH",
"376 480 LINE",
"508 480 LINE",
"508 27 LINE SMOOTH",
"508 12 OFFCURVE",
"520 0 OFFCURVE",
"535 0 CURVE SMOOTH"
);
}
);
width = 813;
}
);
leftKerningGroup = afii10029;
rightKerningGroup = afii10026;
rightMetricsKey = "En-cy";
unicode = 041B;
userData = {
com.typemytype.robofont.guides = (
{
angle = 0;
isGlobal = 0;
magnetic = 5;
x = 0;
y = "-10";
}
);
};
},
{
color = 6;
glyphname = "Pe-cy";
layers = (
{
anchors = (
{
name = bottomright;
position = "{585, 0}";
}
);
layerId = "EC64484B-0978-4CB1-9EE9-C40A2D8C4059";
paths = (
{
closed = 1;
nodes = (
"278 0 LINE SMOOTH",
"293 0 OFFCURVE",
"305 12 OFFCURVE",
"305 27 CURVE SMOOTH",
"305 480 LINE",
"467 480 LINE",
"467 27 LINE SMOOTH",
"467 12 OFFCURVE",
"479 0 OFFCURVE",
"494 0 CURVE SMOOTH",
"690 0 LINE SMOOTH",
"705 0 OFFCURVE",
"717 12 OFFCURVE",
"717 27 CURVE SMOOTH",
"717 673 LINE SMOOTH",
"717 688 OFFCURVE",
"705 700 OFFCURVE",
"690 700 CURVE SMOOTH",
"82 700 LINE SMOOTH",
"67 700 OFFCURVE",
"55 688 OFFCURVE",
"55 673 CURVE SMOOTH",
"55 27 LINE SMOOTH",
"55 11 OFFCURVE",
"67 0 OFFCURVE",
"82 0 CURVE SMOOTH"
);
}
);
width = 772;
}
);
leftKerningGroup = afii10026;
rightKerningGroup = afii10026;
unicode = 041F;
userData = {
com.typemytype.robofont.guides = (
{
angle = 90;
isGlobal = 0;
magnetic = 5;
x = 85;
y = 0;
}
);
};
},
{
color = 6;
glyphname = "U-cy";
layers = (
{
anchors = (
{
name = top;
position = "{369, 700}";
}
);
layerId = "EC64484B-0978-4CB1-9EE9-C40A2D8C4059";
paths = (
{
closed = 1;
nodes = (
"210 0 LINE SMOOTH",
"380 0 OFFCURVE",
"434 44 OFFCURVE",
"503 204 CURVE SMOOTH",
"697 656 LINE SMOOTH",
"700 663 OFFCURVE",
"703 672 OFFCURVE",
"703 679 CURVE SMOOTH",
"703 690 OFFCURVE",
"693 700 OFFCURVE",
"680 700 CURVE SMOOTH",
"483 700 LINE SMOOTH",
"467 700 OFFCURVE",
"456 692 OFFCURVE",
"449 676 CURVE SMOOTH",
"270 267 LINE SMOOTH",
"253 229 OFFCURVE",
"230 214 OFFCURVE",
"186 214 CURVE SMOOTH",
"145 214 LINE SMOOTH",
"130 214 OFFCURVE",
"118 202 OFFCURVE",
"118 187 CURVE SMOOTH",
"118 27 LINE SMOOTH",
"118 12 OFFCURVE",
"130 0 OFFCURVE",
"145 0 CURVE SMOOTH"
);
},
{
closed = 1;
nodes = (
"386 429 LINE",
"272 676 LINE SMOOTH",
"265 691 OFFCURVE",
"257 700 OFFCURVE",
"240 700 CURVE SMOOTH",
"31 700 LINE SMOOTH",
"17 700 OFFCURVE",
"5 688 OFFCURVE",
"5 676 CURVE SMOOTH",
"5 674 OFFCURVE",
"6 671 OFFCURVE",
"7 669 CURVE SMOOTH",
"260 188 LINE"
);
}
);
width = 701;
}
);
leftKerningGroup = afii10037;
rightKerningGroup = afii10037;
unicode = 0423;
userData = {
com.typemytype.robofont.guides = (
{
angle = 90;
isGlobal = 0;
magnetic = 5;
x = 4678;
y = 0;
},
{
angle = 90;
isGlobal = 0;
magnetic = 5;
x = 6607;
y = 0;
},
{
angle = 90;
isGlobal = 0;
magnetic = 5;
x = 6901;
y = 0;
}
);
};
},
{
color = 6;
glyphname = "Ef-cy";
layers = (
{
layerId = "EC64484B-0978-4CB1-9EE9-C40A2D8C4059";
paths = (
{
closed = 1;
nodes = (
"593 -32 LINE SMOOTH",
"608 -32 OFFCURVE",
"620 -20 OFFCURVE",
"620 -5 CURVE SMOOTH",
"620 55 LINE",
"820 55 OFFCURVE",
"942 148 OFFCURVE",
"953 325 CURVE SMOOTH",
"955 359 OFFCURVE",
"955 369 OFFCURVE",
"953 403 CURVE SMOOTH",
"944 576 OFFCURVE",
"817 677 OFFCURVE",
"620 677 CURVE",
"620 724 LINE SMOOTH",
"620 739 OFFCURVE",
"608 751 OFFCURVE",
"593 751 CURVE SMOOTH",
"397 751 LINE SMOOTH",
"382 751 OFFCURVE",
"370 739 OFFCURVE",
"370 724 CURVE SMOOTH",
"370 677 LINE",
"173 677 OFFCURVE",
"46 576 OFFCURVE",
"37 403 CURVE",
"36 394 OFFCURVE",
"36 334 OFFCURVE",
"37 325 CURVE",
"48 148 OFFCURVE",
"170 55 OFFCURVE",
"370 55 CURVE",
"370 -5 LINE SMOOTH",
"370 -20 OFFCURVE",
"382 -32 OFFCURVE",
"397 -32 CURVE SMOOTH"
);
},
{
closed = 1;
nodes = (
"323 250 OFFCURVE",
"299 276 OFFCURVE",
"296 331 CURVE SMOOTH",
"296 354 OFFCURVE",
"296 378 OFFCURVE",
"296 401 CURVE SMOOTH",
"299 455 OFFCURVE",
"324 482 OFFCURVE",
"372 482 CURVE",
"372 250 LINE"
);
},
{
closed = 1;
nodes = (
"618 482 LINE",
"666 482 OFFCURVE",
"691 455 OFFCURVE",
"694 401 CURVE",
"695 393 OFFCURVE",
"695 340 OFFCURVE",
"694 331 CURVE",
"691 276 OFFCURVE",
"667 250 OFFCURVE",
"618 250 CURVE"
);
}
);
width = 990;
}
);
leftMetricsKey = O;
rightMetricsKey = O;
unicode = 0424;
userData = {
com.typemytype.robofont.guides = (
{
angle = 0;
isGlobal = 0;
magnetic = 5;
x = 0;
y = 183;
},
{
angle = 0;
isGlobal = 0;
magnetic = 5;
x = 0;
y = 350;
},
{
angle = 0;
isGlobal = 0;
magnetic = 5;
x = 0;
y = 535;
},
{
angle = 0;
isGlobal = 0;
magnetic = 5;
x = 0;
y = 595;
},
{
angle = 90;
isGlobal = 0;
magnetic = 5;
x = 50;
y = 0;
}
);
};
},
{
color = 6;
glyphname = "Che-cy";
layers = (
{
anchors = (
{
name = bottomright;
position = "{535, 0}";
},
{
name = top;
position = "{349, 700}";
}
);
layerId = "EC64484B-0978-4CB1-9EE9-C40A2D8C4059";
paths = (
{
closed = 1;
nodes = (
"646 0 LINE SMOOTH",
"661 0 OFFCURVE",
"673 12 OFFCURVE",
"673 27 CURVE SMOOTH",
"673 673 LINE SMOOTH",
"673 688 OFFCURVE",
"661 700 OFFCURVE",
"646 700 CURVE SMOOTH",
"450 700 LINE SMOOTH",
"435 700 OFFCURVE",
"423 688 OFFCURVE",
"423 673 CURVE SMOOTH",
"423 430 LINE SMOOTH",
"423 416 OFFCURVE",
"385 404 OFFCURVE",
"355 404 CURVE SMOOTH",
"308 404 OFFCURVE",
"288 424 OFFCURVE",
"288 471 CURVE SMOOTH",
"288 673 LINE SMOOTH",
"288 688 OFFCURVE",
"276 700 OFFCURVE",
"261 700 CURVE SMOOTH",
"65 700 LINE SMOOTH",
"50 700 OFFCURVE",
"38 688 OFFCURVE",
"38 673 CURVE SMOOTH",
"38 461 LINE SMOOTH",
"38 265 OFFCURVE",
"125 176 OFFCURVE",
"301 176 CURVE SMOOTH",
"350 176 OFFCURVE",
"391 186 OFFCURVE",
"423 206 CURVE",
"423 27 LINE SMOOTH",
"423 12 OFFCURVE",
"435 0 OFFCURVE",
"450 0 CURVE SMOOTH"
);
}
);
width = 737;
}
);
rightKerningGroup = afii10026;
unicode = 0427;
userData = {
com.typemytype.robofont.guides = (
{
angle = 0;
isGlobal = 0;
magnetic = 5;
x = 0;
y = 700;
},
{
angle = 0;
isGlobal = 0;
magnetic = 5;
x = 0;
y = 434;
},
{
angle = 0;
isGlobal = 0;
magnetic = 5;
x = 0;
y = 206;
},
{
angle = 0;
isGlobal = 0;
magnetic = 5;
x = 0;
y = 1286;
},
{
angle = 90;
isGlobal = 0;
magnetic = 5;
x = 1609;
y = 0;
},
{
angle = 90;
isGlobal = 0;
magnetic = 5;
x = 50;
y = 0;
}
);
};
},
{
color = 6;
glyphname = "Tse-cy";
layers = (
{
layerId = "EC64484B-0978-4CB1-9EE9-C40A2D8C4059";
paths = (
{
closed = 1;
nodes = (
"762 -140 LINE SMOOTH",
"777 -140 OFFCURVE",
"789 -128 OFFCURVE",
"789 -113 CURVE SMOOTH",
"789 193 LINE SMOOTH",
"789 208 OFFCURVE",
"777 220 OFFCURVE",
"762 220 CURVE SMOOTH",
"717 220 LINE",
"717 673 LINE SMOOTH",
"717 688 OFFCURVE",
"705 700 OFFCURVE",
"690 700 CURVE SMOOTH",
"494 700 LINE SMOOTH",
"479 700 OFFCURVE",
"467 688 OFFCURVE",
"467 673 CURVE SMOOTH",
"467 220 LINE",
"305 220 LINE",
"305 673 LINE SMOOTH",
"305 688 OFFCURVE",
"293 700 OFFCURVE",
"278 700 CURVE SMOOTH",
"82 700 LINE SMOOTH",
"67 700 OFFCURVE",
"55 689 OFFCURVE",
"55 673 CURVE SMOOTH",
"55 27 LINE SMOOTH",
"55 12 OFFCURVE",
"67 0 OFFCURVE",
"82 0 CURVE SMOOTH",
"539 0 LINE",
"539 -113 LINE SMOOTH",
"539 -128 OFFCURVE",
"551 -140 OFFCURVE",
"566 -140 CURVE SMOOTH"
);
}
);
width = 819;
}
);
leftKerningGroup = afii10026;
leftMetricsKey = "En-cy";
rightKerningGroup = afii10040;
unicode = 0426;
userData = {
com.typemytype.robofont.guides = (
{
angle = 0;
isGlobal = 0;
magnetic = 5;
x = 0;
y = "-110";
},
{
angle = 90;
isGlobal = 0;
magnetic = 5;
x = 85;
y = 0;
}
);
};
},
{
color = 6;
glyphname = "Sha-cy";
layers = (
{
layerId = "EC64484B-0978-4CB1-9EE9-C40A2D8C4059";
paths = (
{
closed = 1;
nodes = (
"931 0 LINE SMOOTH",
"946 0 OFFCURVE",
"958 12 OFFCURVE",
"958 27 CURVE SMOOTH",
"958 673 LINE SMOOTH",
"958 688 OFFCURVE",
"946 700 OFFCURVE",
"931 700 CURVE SMOOTH",
"735 700 LINE SMOOTH",
"720 700 OFFCURVE",
"708 688 OFFCURVE",
"708 673 CURVE SMOOTH",
"708 220 LINE",
"632 220 LINE",
"632 673 LINE SMOOTH",
"632 688 OFFCURVE",
"620 700 OFFCURVE",
"605 700 CURVE SMOOTH",
"409 700 LINE SMOOTH",
"394 700 OFFCURVE",
"382 688 OFFCURVE",
"382 673 CURVE SMOOTH",
"382 220 LINE",
"305 220 LINE",
"305 673 LINE SMOOTH",
"305 688 OFFCURVE",
"293 700 OFFCURVE",
"278 700 CURVE SMOOTH",
"82 700 LINE SMOOTH",
"67 700 OFFCURVE",
"55 689 OFFCURVE",
"55 673 CURVE SMOOTH",
"55 27 LINE SMOOTH",
"55 12 OFFCURVE",
"67 0 OFFCURVE",
"82 0 CURVE SMOOTH"
);
}
);
width = 1013;
}
);
leftKerningGroup = afii10026;
leftMetricsKey = "En-cy";
rightKerningGroup = afii10026;
rightMetricsKey = "En-cy";
unicode = 0428;
userData = {
com.typemytype.robofont.guides = (
{
angle = 90;
isGlobal = 0;
magnetic = 5;
x = 422;
y = 0;
}
);
};
},
{
color = 6;
glyphname = "Shcha-cy";
layers = (
{
layerId = "EC64484B-0978-4CB1-9EE9-C40A2D8C4059";
paths = (
{
closed = 1;
nodes = (
"1003 -140 LINE SMOOTH",
"1018 -140 OFFCURVE",
"1030 -128 OFFCURVE",
"1030 -113 CURVE SMOOTH",
"1030 193 LINE SMOOTH",
"1030 208 OFFCURVE",
"1018 220 OFFCURVE",
"1003 220 CURVE SMOOTH",
"958 220 LINE",
"958 673 LINE SMOOTH",
"958 688 OFFCURVE",
"946 700 OFFCURVE",
"931 700 CURVE SMOOTH",
"735 700 LINE SMOOTH",
"720 700 OFFCURVE",
"708 688 OFFCURVE",
"708 673 CURVE SMOOTH",
"708 220 LINE",
"632 220 LINE",
"632 673 LINE SMOOTH",
"632 688 OFFCURVE",
"620 700 OFFCURVE",
"605 700 CURVE SMOOTH",
"409 700 LINE SMOOTH",
"394 700 OFFCURVE",
"382 688 OFFCURVE",
"382 673 CURVE SMOOTH",
"382 220 LINE",
"305 220 LINE",
"305 673 LINE SMOOTH",
"305 688 OFFCURVE",
"293 700 OFFCURVE",
"278 700 CURVE SMOOTH",
"82 700 LINE SMOOTH",
"67 700 OFFCURVE",
"55 689 OFFCURVE",
"55 673 CURVE SMOOTH",
"55 27 LINE SMOOTH",
"55 12 OFFCURVE",
"67 0 OFFCURVE",
"82 0 CURVE SMOOTH",
"780 0 LINE",
"780 -113 LINE SMOOTH",
"780 -128 OFFCURVE",
"792 -140 OFFCURVE",
"807 -140 CURVE SMOOTH"
);
}
);
width = 1060;
}
);
leftKerningGroup = afii10026;
leftMetricsKey = "En-cy";
rightKerningGroup = afii10040;
rightMetricsKey = "Tse-cy";
unicode = 0429;
userData = {
com.typemytype.robofont.guides = (
{
angle = 0;
isGlobal = 0;
magnetic = 5;
x = 0;
y = "-110";
},
{
angle = 0;
isGlobal = 0;
magnetic = 5;
x = 0;
y = 60;
}
);
};
},
{
color = 6;
glyphname = "Dzhe-cy";
layers = (
{
layerId = "EC64484B-0978-4CB1-9EE9-C40A2D8C4059";
paths = (
{
closed = 1;
nodes = (
"484 -140 LINE SMOOTH",
"499 -140 OFFCURVE",
"511 -128 OFFCURVE",
"511 -113 CURVE SMOOTH",
"511 0 LINE",
"690 0 LINE SMOOTH",
"705 0 OFFCURVE",
"717 12 OFFCURVE",
"717 27 CURVE SMOOTH",
"717 673 LINE SMOOTH",
"717 688 OFFCURVE",
"705 700 OFFCURVE",
"690 700 CURVE SMOOTH",
"494 700 LINE SMOOTH",
"479 700 OFFCURVE",
"467 688 OFFCURVE",
"467 673 CURVE SMOOTH",
"467 220 LINE",
"305 220 LINE",
"305 673 LINE SMOOTH",
"305 688 OFFCURVE",
"293 700 OFFCURVE",
"278 700 CURVE SMOOTH",
"82 700 LINE SMOOTH",
"67 700 OFFCURVE",
"55 689 OFFCURVE",
"55 673 CURVE SMOOTH",
"55 27 LINE SMOOTH",
"55 12 OFFCURVE",
"67 0 OFFCURVE",
"82 0 CURVE SMOOTH",
"261 0 LINE",
"261 -113 LINE SMOOTH",
"261 -128 OFFCURVE",
"273 -140 OFFCURVE",
"288 -140 CURVE SMOOTH"
);
}
);
width = 772;
}
);
leftKerningGroup = afii10026;
leftMetricsKey = "En-cy";
rightKerningGroup = afii10026;
rightMetricsKey = "En-cy";
unicode = 040F;
userData = {
com.typemytype.robofont.guides = (
{
angle = 0;
isGlobal = 0;
magnetic = 5;
x = 0;
y = "-110";
},
{
angle = 90;
isGlobal = 0;
magnetic = 5;
x = 1327;
y = 0;
},
{
angle = 90;
isGlobal = 0;
magnetic = 5;
x = 1072;
y = 0;
},
{
angle = 90;
isGlobal = 0;
magnetic = 5;
x = 85;
y = 0;
}
);
};
},
{
color = 6;
glyphname = "Softsign-cy";
layers = (
{
layerId = "EC64484B-0978-4CB1-9EE9-C40A2D8C4059";
paths = (
{
closed = 1;
nodes = (
"370 0 LINE SMOOTH",
"562 0 OFFCURVE",
"676 84 OFFCURVE",
"676 245 CURVE SMOOTH",
"676 406 OFFCURVE",
"563 482 OFFCURVE",
"370 482 CURVE SMOOTH",
"305 482 LINE",
"305 673 LINE SMOOTH",
"305 688 OFFCURVE",
"293 700 OFFCURVE",
"278 700 CURVE SMOOTH",
"82 700 LINE SMOOTH",
"67 700 OFFCURVE",
"55 688 OFFCURVE",
"55 673 CURVE SMOOTH",
"55 27 LINE SMOOTH",
"55 12 OFFCURVE",
"67 0 OFFCURVE",
"82 0 CURVE SMOOTH"
);
},
{
closed = 1;
nodes = (
"305 297 LINE",
"370 297 LINE SMOOTH",
"394 297 OFFCURVE",
"416 279 OFFCURVE",
"416 243 CURVE SMOOTH",
"416 212 OFFCURVE",
"402 186 OFFCURVE",
"370 186 CURVE SMOOTH",
"305 186 LINE"
);
}
);
width = 705;
}
);
leftKerningGroup = afii10026;
leftMetricsKey = "En-cy";
rightKerningGroup = afii10046;
unicode = 042C;
},
{
color = 3;
glyphname = "Yeru-cy";
layers = (
{
anchors = (
{
name = top;
position = "{524, 700}";
}
);
components = (
{
name = I;
transform = "{1, 0, 0, 1, 680, 0}";
}
);
layerId = "EC64484B-0978-4CB1-9EE9-C40A2D8C4059";
paths = (
{
closed = 1;
nodes = (
"370 0 LINE SMOOTH",
"562 0 OFFCURVE",
"676 84 OFFCURVE",
"676 245 CURVE SMOOTH",
"676 406 OFFCURVE",
"563 482 OFFCURVE",
"370 482 CURVE SMOOTH",
"305 482 LINE",
"305 673 LINE SMOOTH",
"305 688 OFFCURVE",
"293 700 OFFCURVE",
"278 700 CURVE SMOOTH",
"82 700 LINE SMOOTH",
"67 700 OFFCURVE",
"55 688 OFFCURVE",
"55 673 CURVE SMOOTH",
"55 27 LINE SMOOTH",
"55 12 OFFCURVE",
"67 0 OFFCURVE",
"82 0 CURVE SMOOTH"
);
},
{
closed = 1;
nodes = (
"305 297 LINE",
"370 297 LINE SMOOTH",
"394 297 OFFCURVE",
"416 279 OFFCURVE",
"416 243 CURVE SMOOTH",
"416 212 OFFCURVE",
"402 186 OFFCURVE",
"370 186 CURVE SMOOTH",
"305 186 LINE"
);
}
);
width = 1048;
}
);
leftKerningGroup = afii10026;
leftMetricsKey = "En-cy";
rightKerningGroup = afii10026;
rightMetricsKey = "En-cy";
unicode = 042B;
},
{
color = 6;
glyphname = "Hardsign-cy";
layers = (
{
anchors = (
{
name = top;
position = "{404, 700}";
}
);
layerId = "EC64484B-0978-4CB1-9EE9-C40A2D8C4059";
paths = (
{
closed = 1;
nodes = (
"472 0 LINE SMOOTH",
"664 0 OFFCURVE",
"778 84 OFFCURVE",
"778 245 CURVE SMOOTH",
"778 406 OFFCURVE",
"665 482 OFFCURVE",
"472 482 CURVE SMOOTH",
"407 482 LINE",
"407 673 LINE SMOOTH",
"407 688 OFFCURVE",
"395 700 OFFCURVE",
"380 700 CURVE SMOOTH",
"44 700 LINE SMOOTH",
"29 700 OFFCURVE",
"17 688 OFFCURVE",
"17 673 CURVE SMOOTH",
"17 532 LINE SMOOTH",
"17 517 OFFCURVE",
"29 505 OFFCURVE",
"44 505 CURVE SMOOTH",
"157 505 LINE",
"157 27 LINE SMOOTH",
"157 12 OFFCURVE",
"169 0 OFFCURVE",
"184 0 CURVE SMOOTH"
);
},
{
closed = 1;
nodes = (
"407 297 LINE",
"472 297 LINE SMOOTH",
"496 297 OFFCURVE",
"518 279 OFFCURVE",
"518 243 CURVE SMOOTH",
"518 212 OFFCURVE",
"504 186 OFFCURVE",
"472 186 CURVE SMOOTH",
"407 186 LINE"
);
}
);
width = 807;
}
);
leftMetricsKey = T;
rightKerningGroup = afii10046;
rightMetricsKey = "Softsign-cy";
unicode = 042A;
userData = {
com.typemytype.robofont.guides = (
{
angle = 90;
isGlobal = 0;
magnetic = 5;
x = 160;
y = 0;
},
{
angle = 90;
isGlobal = 0;
magnetic = 5;
x = 41;
y = 0;
}
);
};
},
{
color = 6;
glyphname = "Lje-cy";
layers = (
{
layerId = "EC64484B-0978-4CB1-9EE9-C40A2D8C4059";
paths = (
{
closed = 1;
nodes = (
"340 0 OFFCURVE",
"376 127 OFFCURVE",
"376 449 CURVE SMOOTH",
"376 480 LINE",
"508 480 LINE",
"508 27 LINE SMOOTH",
"508 12 OFFCURVE",
"520 0 OFFCURVE",
"535 0 CURVE SMOOTH",
"823 0 LINE SMOOTH",
"1015 0 OFFCURVE",
"1129 84 OFFCURVE",
"1129 245 CURVE SMOOTH",
"1129 406 OFFCURVE",
"1016 482 OFFCURVE",
"823 482 CURVE SMOOTH",
"758 482 LINE",
"758 673 LINE SMOOTH",
"758 688 OFFCURVE",
"746 700 OFFCURVE",
"731 700 CURVE SMOOTH",
"163 700 LINE SMOOTH",
"148 700 OFFCURVE",
"136 688 OFFCURVE",
"136 673 CURVE SMOOTH",
"136 481 LINE SMOOTH",
"136 357 OFFCURVE",
"130 225 OFFCURVE",
"62 212 CURVE SMOOTH",
"46 209 OFFCURVE",
"35 200 OFFCURVE",
"35 185 CURVE SMOOTH",
"35 27 LINE SMOOTH",
"35 12 OFFCURVE",
"48 0 OFFCURVE",
"63 0 CURVE SMOOTH"
);
},
{
closed = 1;
nodes = (
"758 297 LINE",
"823 297 LINE SMOOTH",
"847 297 OFFCURVE",
"869 279 OFFCURVE",
"869 243 CURVE SMOOTH",
"869 212 OFFCURVE",
"855 186 OFFCURVE",
"823 186 CURVE SMOOTH",
"758 186 LINE"
);
}
);
width = 1158;
}
);
leftKerningGroup = afii10029;
leftMetricsKey = "El-cy";
rightKerningGroup = afii10046;
rightMetricsKey = "Softsign-cy";
unicode = 0409;
},
{
color = 6;
glyphname = "Nje-cy";
layers = (
{
layerId = "EC64484B-0978-4CB1-9EE9-C40A2D8C4059";
paths = (
{
closed = 1;
nodes = (
"278 0 LINE SMOOTH",
"293 0 OFFCURVE",
"305 12 OFFCURVE",
"305 27 CURVE SMOOTH",
"305 243 LINE",
"467 243 LINE",
"467 27 LINE SMOOTH",
"467 12 OFFCURVE",
"479 0 OFFCURVE",
"494 0 CURVE SMOOTH",
"782 0 LINE SMOOTH",
"974 0 OFFCURVE",
"1088 84 OFFCURVE",
"1088 245 CURVE SMOOTH",
"1088 406 OFFCURVE",
"975 482 OFFCURVE",
"782 482 CURVE SMOOTH",
"717 482 LINE",
"717 673 LINE SMOOTH",
"717 688 OFFCURVE",
"705 700 OFFCURVE",
"690 700 CURVE SMOOTH",
"494 700 LINE SMOOTH",
"479 700 OFFCURVE",
"467 688 OFFCURVE",
"467 673 CURVE SMOOTH",
"467 463 LINE",
"305 463 LINE",
"305 673 LINE SMOOTH",
"305 688 OFFCURVE",
"293 700 OFFCURVE",
"278 700 CURVE SMOOTH",
"82 700 LINE SMOOTH",
"67 700 OFFCURVE",
"55 688 OFFCURVE",
"55 673 CURVE SMOOTH",
"55 27 LINE SMOOTH",
"55 11 OFFCURVE",
"67 0 OFFCURVE",
"82 0 CURVE SMOOTH"
);
},
{
closed = 1;
nodes = (
"717 297 LINE",
"782 297 LINE SMOOTH",
"806 297 OFFCURVE",
"828 279 OFFCURVE",
"828 243 CURVE SMOOTH",
"828 212 OFFCURVE",
"814 186 OFFCURVE",
"782 186 CURVE SMOOTH",
"717 186 LINE"
);
}
);
width = 1117;
}
);
leftKerningGroup = afii10026;
leftMetricsKey = "En-cy";
rightKerningGroup = afii10046;
rightMetricsKey = "Softsign-cy";
unicode = 040A;
},
{
color = 6;
glyphname = "E-cy";
layers = (
{
layerId = "EC64484B-0978-4CB1-9EE9-C40A2D8C4059";
paths = (
{
closed = 1;
nodes = (
"530 -10 OFFCURVE",
"674 52 OFFCURVE",
"691 197 CURVE SMOOTH",
"692 209 OFFCURVE",
"681 219 OFFCURVE",
"669 219 CURVE SMOOTH",
"473 219 LINE SMOOTH",
"457 219 OFFCURVE",
"451 215 OFFCURVE",
"439 203 CURVE SMOOTH",
"426 190 OFFCURVE",
"407 183 OFFCURVE",
"372 183 CURVE SMOOTH",
"321 183 OFFCURVE",
"291 205 OFFCURVE",
"291 250 CURVE",
"291 260 LINE",
"444 260 LINE SMOOTH",
"459 260 OFFCURVE",
"471 274 OFFCURVE",
"471 289 CURVE SMOOTH",
"471 409 LINE SMOOTH",
"471 424 OFFCURVE",
"459 438 OFFCURVE",
"444 438 CURVE SMOOTH",
"291 438 LINE",
"291 448 LINE",
"291 496 OFFCURVE",
"320 515 OFFCURVE",
"372 515 CURVE SMOOTH",
"407 515 OFFCURVE",
"427 504 OFFCURVE",
"434 495 CURVE SMOOTH",
"443 483 OFFCURVE",
"449 479 OFFCURVE",
"466 479 CURVE SMOOTH",
"664 479 LINE SMOOTH",
"676 479 OFFCURVE",
"687 489 OFFCURVE",
"686 501 CURVE SMOOTH",
"669 644 OFFCURVE",
"538 710 OFFCURVE",
"366 710 CURVE SMOOTH",
"170 710 OFFCURVE",
"39 618 OFFCURVE",
"31 439 CURVE SMOOTH",
"30 419 OFFCURVE",
"30 280 OFFCURVE",
"31 261 CURVE SMOOTH",
"39 77 OFFCURVE",
"165 -10 OFFCURVE",
"366 -10 CURVE SMOOTH"
);
}
);
width = 728;
}
);
leftKerningGroup = afii10032;
unicode = 0404;
userData = {
com.typemytype.robofont.guides = (
{
angle = 0;
isGlobal = 0;
magnetic = 5;
x = 0;
y = 350;
}
);
};
},
{
color = 6;
glyphname = "Ereversed-cy";
layers = (
{
anchors = (
{
name = top;
position = "{367, 700}";
}
);
layerId = "EC64484B-0978-4CB1-9EE9-C40A2D8C4059";
paths = (
{
closed = 1;
nodes = (
"561 -10 OFFCURVE",
"687 77 OFFCURVE",
"695 261 CURVE SMOOTH",
"697 336 OFFCURVE",
"697 364 OFFCURVE",
"695 439 CURVE SMOOTH",
"687 618 OFFCURVE",
"556 710 OFFCURVE",
"360 710 CURVE SMOOTH",
"196 710 OFFCURVE",
"57 649 OFFCURVE",
"40 501 CURVE SMOOTH",
"39 489 OFFCURVE",
"50 479 OFFCURVE",
"62 479 CURVE SMOOTH",
"260 479 LINE SMOOTH",
"277 479 OFFCURVE",
"283 483 OFFCURVE",
"292 495 CURVE SMOOTH",
"299 504 OFFCURVE",
"319 515 OFFCURVE",
"354 515 CURVE SMOOTH",
"406 515 OFFCURVE",
"435 494 OFFCURVE",
"435 448 CURVE",
"435 438 LINE",
"282 438 LINE SMOOTH",
"267 438 OFFCURVE",
"255 424 OFFCURVE",
"255 409 CURVE SMOOTH",
"255 289 LINE SMOOTH",
"255 274 OFFCURVE",
"267 260 OFFCURVE",
"282 260 CURVE SMOOTH",
"435 260 LINE",
"435 250 LINE",
"435 205 OFFCURVE",
"405 183 OFFCURVE",
"354 183 CURVE SMOOTH",
"319 183 OFFCURVE",
"300 190 OFFCURVE",
"287 203 CURVE SMOOTH",
"276 214 OFFCURVE",
"269 219 OFFCURVE",
"253 219 CURVE SMOOTH",
"57 219 LINE SMOOTH",
"45 219 OFFCURVE",
"34 209 OFFCURVE",
"35 197 CURVE SMOOTH",
"51 58 OFFCURVE",
"191 -10 OFFCURVE",
"360 -10 CURVE SMOOTH"
);
}
);
width = 733;
}
);
rightKerningGroup = afii10032;
unicode = 042D;
userData = {
com.typemytype.robofont.guides = (
{
angle = 0;
isGlobal = 0;
magnetic = 5;
x = 0;
y = 541;
},
{
angle = 0;
isGlobal = 0;
magnetic = 5;
x = 0;
y = 159;
},
{
angle = 0;
isGlobal = 0;
magnetic = 5;
x = 0;
y = 350;
},
{
angle = 90;
isGlobal = 0;
magnetic = 5;
x = 204;
y = 0;
},
{
angle = 90;
isGlobal = 0;
magnetic = 5;
x = 296;
y = 0;
}
);
};
},
{
color = 6;
glyphname = "Tshe-cy";
layers = (
{
layerId = "EC64484B-0978-4CB1-9EE9-C40A2D8C4059";
paths = (
{
closed = 1;
nodes = (
"380 0 LINE SMOOTH",
"395 0 OFFCURVE",
"407 12 OFFCURVE",
"407 27 CURVE SMOOTH",
"407 208 LINE SMOOTH",
"407 234 OFFCURVE",
"443 239 OFFCURVE",
"475 239 CURVE SMOOTH",
"522 239 OFFCURVE",
"542 227 OFFCURVE",
"542 202 CURVE SMOOTH",
"542 27 LINE SMOOTH",
"542 12 OFFCURVE",
"554 0 OFFCURVE",
"569 0 CURVE SMOOTH",
"765 0 LINE SMOOTH",
"780 0 OFFCURVE",
"792 12 OFFCURVE",
"792 27 CURVE SMOOTH",
"792 223 LINE SMOOTH",
"792 388 OFFCURVE",
"712 467 OFFCURVE",
"539 467 CURVE SMOOTH",
"491 467 OFFCURVE",
"439 453 OFFCURVE",
"407 437 CURVE",
"407 523 LINE",
"614 523 LINE SMOOTH",
"627 523 OFFCURVE",
"637 533 OFFCURVE",
"637 546 CURVE SMOOTH",
"637 677 LINE SMOOTH",
"637 690 OFFCURVE",
"627 700 OFFCURVE",
"614 700 CURVE SMOOTH",
"40 700 LINE SMOOTH",
"27 700 OFFCURVE",
"17 690 OFFCURVE",
"17 677 CURVE SMOOTH",
"17 546 LINE SMOOTH",
"17 533 OFFCURVE",
"27 523 OFFCURVE",
"40 523 CURVE SMOOTH",
"157 523 LINE",
"157 27 LINE SMOOTH",
"157 12 OFFCURVE",
"169 0 OFFCURVE",
"184 0 CURVE SMOOTH"
);
}
);
width = 830;
}
);
leftMetricsKey = T;
rightMetricsKey = "=|Che-cy";
unicode = 040B;
userData = {
com.typemytype.robofont.guides = (
{
angle = 90;
isGlobal = 0;
magnetic = 5;
x = 50;
y = 0;
},
{
angle = 90;
isGlobal = 0;
magnetic = 5;
x = 413;
y = 0;
}
);
};
},
{
color = 6;
glyphname = "Iu-cy";
layers = (
{
anchors = (
{
name = top;
position = "{555, 700}";
}
);
layerId = "EC64484B-0978-4CB1-9EE9-C40A2D8C4059";
paths = (
{
closed = 1;
nodes = (
"935 -10 OFFCURVE",
"1065 81 OFFCURVE",
"1073 260 CURVE SMOOTH",
"1075 314 OFFCURVE",
"1075 379 OFFCURVE",
"1073 436 CURVE SMOOTH",
"1066 611 OFFCURVE",
"935 710 OFFCURVE",
"739 710 CURVE SMOOTH",
"556 710 OFFCURVE",
"430 624 OFFCURVE",
"408 471 CURVE SMOOTH",
"408 469 OFFCURVE",
"407 466 OFFCURVE",
"407 463 CURVE",
"305 463 LINE",
"305 673 LINE",
"305 688 OFFCURVE",
"293 700 OFFCURVE",
"278 700 CURVE",
"82 700 LINE",
"67 700 OFFCURVE",
"55 688 OFFCURVE",
"55 673 CURVE",
"55 27 LINE",
"55 11 OFFCURVE",
"67 0 OFFCURVE",
"82 0 CURVE",
"278 0 LINE",
"293 0 OFFCURVE",
"305 12 OFFCURVE",
"305 27 CURVE",
"305 243 LINE",
"406 243 LINE",
"406 241 OFFCURVE",
"406 240 OFFCURVE",
"407 238 CURVE SMOOTH",
"425 73 OFFCURVE",
"551 -10 OFFCURVE",
"739 -10 CURVE SMOOTH"
);
},
{
closed = 1;
nodes = (
"695 185 OFFCURVE",
"667 210 OFFCURVE",
"665 266 CURVE SMOOTH",
"663 323 OFFCURVE",
"663 379 OFFCURVE",
"665 434 CURVE SMOOTH",
"667 490 OFFCURVE",
"696 515 OFFCURVE",
"739 515 CURVE SMOOTH",
"782 515 OFFCURVE",
"811 490 OFFCURVE",
"813 434 CURVE SMOOTH",
"815 379 OFFCURVE",
"815 323 OFFCURVE",
"813 266 CURVE SMOOTH",
"811 210 OFFCURVE",
"783 185 OFFCURVE",
"739 185 CURVE SMOOTH"
);
}
);
width = 1110;
}
);
leftKerningGroup = afii10026;
rightKerningGroup = afii10032;
unicode = 042E;
userData = {
com.typemytype.robofont.guides = (
{
angle = 0;
isGlobal = 0;
magnetic = 5;
x = 0;
y = 355;
}
);
};
},
{
color = 6;
glyphname = "Ia-cy";
layers = (
{
anchors = (
{
name = top;
position = "{369, 700}";
}
);
layerId = "EC64484B-0978-4CB1-9EE9-C40A2D8C4059";
paths = (
{
closed = 1;
nodes = (
"655 0 LINE SMOOTH",
"670 0 OFFCURVE",
"682 12 OFFCURVE",
"682 27 CURVE SMOOTH",
"682 673 LINE SMOOTH",
"682 688 OFFCURVE",
"670 700 OFFCURVE",
"655 700 CURVE SMOOTH",
"359 700 LINE SMOOTH",
"167 700 OFFCURVE",
"53 609 OFFCURVE",
"53 457 CURVE SMOOTH",
"53 314 OFFCURVE",
"170 218 OFFCURVE",
"323 218 CURVE SMOOTH",
"432 218 LINE",
"432 27 LINE SMOOTH",
"432 12 OFFCURVE",
"444 0 OFFCURVE",
"459 0 CURVE SMOOTH"
);
},
{
closed = 1;
nodes = (
"262 0 LINE SMOOTH",
"286 0 OFFCURVE",
"300 14 OFFCURVE",
"305 27 CURVE",
"398 233 LINE",
"169 275 LINE",
"38 33 LINE SMOOTH",
"36 29 OFFCURVE",
"35 25 OFFCURVE",
"35 22 CURVE SMOOTH",
"35 10 OFFCURVE",
"45 0 OFFCURVE",
"57 0 CURVE SMOOTH"
);
},
{
closed = 1;
nodes = (
"330 408 OFFCURVE",
"313 430 OFFCURVE",
"313 459 CURVE SMOOTH",
"313 488 OFFCURVE",
"328 514 OFFCURVE",
"359 514 CURVE SMOOTH",
"432 514 LINE",
"432 408 LINE",
"359 408 LINE SMOOTH"
);
}
);
width = 737;
}
);
rightKerningGroup = afii10026;
rightMetricsKey = "En-cy";
unicode = 042F;
},
{
color = 6;
glyphname = "Dje-cy";
layers = (
{
layerId = "EC64484B-0978-4CB1-9EE9-C40A2D8C4059";
paths = (
{
closed = 1;
nodes = (
"380 0 LINE SMOOTH",
"395 0 OFFCURVE",
"407 12 OFFCURVE",
"407 27 CURVE SMOOTH",
"407 228 LINE",
"407 244 OFFCURVE",
"423 259 OFFCURVE",
"475 259 CURVE SMOOTH",
"522 259 OFFCURVE",
"542 248 OFFCURVE",
"542 222 CURVE SMOOTH",
"542 219 LINE SMOOTH",
"542 195 OFFCURVE",
"528 180 OFFCURVE",
"485 180 CURVE SMOOTH",
"465 180 LINE SMOOTH",
"450 180 OFFCURVE",
"438 168 OFFCURVE",
"438 153 CURVE SMOOTH",
"438 27 LINE SMOOTH",
"438 12 OFFCURVE",
"450 0 OFFCURVE",
"465 0 CURVE SMOOTH",
"485 0 LINE SMOOTH",
"674 0 OFFCURVE",
"792 63 OFFCURVE",
"792 218 CURVE SMOOTH",
"792 243 LINE SMOOTH",
"792 407 OFFCURVE",
"713 487 OFFCURVE",
"539 487 CURVE SMOOTH",
"488 487 OFFCURVE",
"436 472 OFFCURVE",
"407 457 CURVE",
"407 523 LINE",
"614 523 LINE SMOOTH",
"627 523 OFFCURVE",
"637 533 OFFCURVE",
"637 546 CURVE SMOOTH",
"637 677 LINE SMOOTH",
"637 690 OFFCURVE",
"627 700 OFFCURVE",
"614 700 CURVE SMOOTH",
"40 700 LINE SMOOTH",
"27 700 OFFCURVE",
"17 690 OFFCURVE",
"17 677 CURVE SMOOTH",
"17 546 LINE SMOOTH",
"17 533 OFFCURVE",
"27 523 OFFCURVE",
"40 523 CURVE SMOOTH",
"157 523 LINE",
"157 27 LINE SMOOTH",
"157 12 OFFCURVE",
"169 0 OFFCURVE",
"184 0 CURVE SMOOTH"
);
}
);
width = 822;
}
);
leftMetricsKey = T;
unicode = 0402;
userData = {
com.typemytype.robofont.guides = (
{
angle = 90;
isGlobal = 0;
magnetic = 5;
x = 50;
y = 0;
},
{
angle = 90;
isGlobal = 0;
magnetic = 5;
x = 413;
y = 0;
},
{
angle = 90;
isGlobal = 0;
magnetic = 5;
x = 485;
y = 0;
}
);
};
},
{
color = 3;
glyphname = "Yat-cy";
layers = (
{
components = (
{
name = "Softsign-cy";
transform = "{1, 0, 0, 1, 77, 0}";
}
);
layerId = "EC64484B-0978-4CB1-9EE9-C40A2D8C4059";
paths = (
{
closed = 1;
nodes = (
"532 520 LINE",
"545 520 OFFCURVE",
"555 530 OFFCURVE",
"555 543 CURVE SMOOTH",
"555 620 LINE SMOOTH",
"555 633 OFFCURVE",
"548 643 OFFCURVE",
"532 643 CURVE",
"40 643 LINE",
"24 643 OFFCURVE",
"17 633 OFFCURVE",
"17 620 CURVE SMOOTH",
"17 543 LINE SMOOTH",
"17 530 OFFCURVE",
"27 520 OFFCURVE",
"40 520 CURVE"
);
}
);
width = 782;
}
);
leftMetricsKey = T;
rightMetricsKey = "Softsign-cy";
unicode = 0462;
},
{
color = 6;
glyphname = "Yusbig-cy";
layers = (
{
layerId = "EC64484B-0978-4CB1-9EE9-C40A2D8C4059";
paths = (
{
closed = 1;
nodes = (
"232 0 LINE SMOOTH",
"257 0 OFFCURVE",
"269 7 OFFCURVE",
"273 23 CURVE",
"313 160 LINE SMOOTH",
"322 192 OFFCURVE",
"340 208 OFFCURVE",
"365 208 CURVE SMOOTH",
"379 208 LINE",
"379 27 LINE SMOOTH",
"379 12 OFFCURVE",
"391 0 OFFCURVE",
"406 0 CURVE SMOOTH",
"602 0 LINE SMOOTH",
"617 0 OFFCURVE",
"629 12 OFFCURVE",
"629 27 CURVE SMOOTH",
"629 208 LINE",
"643 208 LINE SMOOTH",
"668 208 OFFCURVE",
"686 192 OFFCURVE",
"695 160 CURVE SMOOTH",
"734 23 LINE SMOOTH",
"738 7 OFFCURVE",
"750 0 OFFCURVE",
"775 0 CURVE SMOOTH",
"977 0 LINE SMOOTH",
"994 0 OFFCURVE",
"1001 19 OFFCURVE",
"996 33 CURVE SMOOTH",
"927 242 LINE SMOOTH",
"892 348 OFFCURVE",
"829 391 OFFCURVE",
"735 399 CURVE",
"727 399 LINE",
"981 662 LINE SMOOTH",
"988 669 OFFCURVE",
"989 673 OFFCURVE",
"989 678 CURVE SMOOTH",
"989 689 OFFCURVE",
"978 700 OFFCURVE",
"966 700 CURVE SMOOTH",
"42 700 LINE SMOOTH",
"30 700 OFFCURVE",
"21 689 OFFCURVE",
"21 677 CURVE SMOOTH",
"21 672 OFFCURVE",
"22 668 OFFCURVE",
"25 665 CURVE SMOOTH",
"270 398 LINE",
"262 398 LINE",
"175 390 OFFCURVE",
"114 347 OFFCURVE",
"80 242 CURVE SMOOTH",
"11 33 LINE SMOOTH",
"7 20 OFFCURVE",
"12 0 OFFCURVE",
"30 0 CURVE SMOOTH"
);
},
{
closed = 1;
nodes = (
"406 520 LINE",
"596 520 LINE",
"499 403 LINE"
);
}
);
width = 1008;
}
);
leftMetricsKey = "Zhe-cy";
rightMetricsKey = "Zhe-cy";
unicode = 046A;
},
{
color = 3;
glyphname = "Fita-cy";
layers = (
{
components = (
{
name = O;
}
);
layerId = "EC64484B-0978-4CB1-9EE9-C40A2D8C4059";
paths = (
{
closed = 1;
nodes = (
"462 289 LINE",
"462 411 LINE",
"280 411 LINE",
"280 289 LINE"
);
}
);
width = 742;
}
);
leftMetricsKey = O;
rightMetricsKey = O;
unicode = 0472;
},
{
color = 6;
glyphname = "Izhitsa-cy";
layers = (
{
anchors = (
{
name = top;
position = "{368, 700}";
}
);
layerId = "EC64484B-0978-4CB1-9EE9-C40A2D8C4059";
paths = (
{
closed = 1;
nodes = (
"477 0 LINE SMOOTH",
"502 0 OFFCURVE",
"517 16 OFFCURVE",
"522 33 CURVE SMOOTH",
"634 414 LINE SMOOTH",
"644 450 OFFCURVE",
"660 468 OFFCURVE",
"682 468 CURVE SMOOTH",
"708 468 LINE SMOOTH",
"723 468 OFFCURVE",
"735 480 OFFCURVE",
"735 495 CURVE SMOOTH",
"736 672 LINE SMOOTH",
"736 688 OFFCURVE",
"725 700 OFFCURVE",
"710 700 CURVE SMOOTH",
"664 700 LINE SMOOTH",
"537 700 OFFCURVE",
"460 635 OFFCURVE",
"419 492 CURVE SMOOTH",
"363 295 LINE",
"268 667 LINE",
"263 684 OFFCURVE",
"248 700 OFFCURVE",
"223 700 CURVE SMOOTH",
"37 700 LINE SMOOTH",
"20 700 OFFCURVE",
"12 685 OFFCURVE",
"16 671 CURVE SMOOTH",
"204 33 LINE SMOOTH",
"209 16 OFFCURVE",
"224 0 OFFCURVE",
"249 0 CURVE SMOOTH"
);
}
);
width = 736;
}
);
leftMetricsKey = V;
unicode = 0474;
},
{
color = 3;
glyphname = "Zhedescender-cy";
layers = (
{
anchors = (
{
name = _bottomright;
position = "{953, 0}";
}
);
components = (
{
name = "Zhe-cy";
}
);
layerId = "EC64484B-0978-4CB1-9EE9-C40A2D8C4059";
paths = (
{
closed = 1;
nodes = (
"1129 -140 LINE SMOOTH",
"1144 -140 OFFCURVE",
"1156 -128 OFFCURVE",
"1156 -113 CURVE SMOOTH",
"1156 193 LINE SMOOTH",
"1156 208 OFFCURVE",
"1144 220 OFFCURVE",
"1129 220 CURVE SMOOTH",
"834 220 LINE",
"884 0 LINE",
"906 0 LINE",
"906 -113 LINE SMOOTH",
"906 -128 OFFCURVE",
"918 -140 OFFCURVE",
"933 -140 CURVE SMOOTH"
);
}
);
width = 1176;
}
);
leftMetricsKey = "Zhe-cy";
rightMetricsKey = "Kadescender-cy";
unicode = 0496;
},
{
color = 3;
glyphname = "Zedescender-cy";
layers = (
{
components = (
{
name = "Ze-cy";
}
);
layerId = "EC64484B-0978-4CB1-9EE9-C40A2D8C4059";
paths = (
{
closed = 1;
nodes = (
"451 -140 LINE SMOOTH",
"466 -140 OFFCURVE",
"478 -128 OFFCURVE",
"478 -113 CURVE SMOOTH",
"478 63 LINE",
"228 60 LINE",
"228 -113 LINE SMOOTH",
"228 -128 OFFCURVE",
"240 -140 OFFCURVE",
"255 -140 CURVE SMOOTH"
);
}
);
width = 715;
}
);
leftMetricsKey = "Ze-cy";
rightMetricsKey = "Ze-cy";
unicode = 0498;
},
{
color = 6;
glyphname = "Kaverticalstroke-cy";
layers = (
{
layerId = "EC64484B-0978-4CB1-9EE9-C40A2D8C4059";
paths = (
{
closed = 1;
nodes = (
"278 0 LINE SMOOTH",
"293 0 OFFCURVE",
"305 12 OFFCURVE",
"305 27 CURVE SMOOTH",
"305 273 LINE",
"327 273 LINE",
"327 202 LINE SMOOTH",
"327 187 OFFCURVE",
"339 175 OFFCURVE",
"354 175 CURVE SMOOTH",
"366 175 LINE SMOOTH",
"381 175 OFFCURVE",
"393 187 OFFCURVE",
"393 202 CURVE SMOOTH",
"393 271 LINE",
"393 272 LINE",
"532 23 LINE SMOOTH",
"535 17 OFFCURVE",
"546 0 OFFCURVE",
"573 0 CURVE SMOOTH",
"801 0 LINE SMOOTH",
"813 0 OFFCURVE",
"823 10 OFFCURVE",
"823 22 CURVE SMOOTH",
"823 25 OFFCURVE",
"822 30 OFFCURVE",
"820 33 CURVE SMOOTH",
"623 365 LINE",
"803 667 LINE SMOOTH",
"805 670 OFFCURVE",
"806 674 OFFCURVE",
"806 678 CURVE SMOOTH",
"806 690 OFFCURVE",
"796 700 OFFCURVE",
"784 700 CURVE SMOOTH",
"563 700 LINE SMOOTH",
"541 700 OFFCURVE",
"529 689 OFFCURVE",
"523 678 CURVE SMOOTH",
"394 450 LINE",
"393 448 LINE",
"393 497 LINE SMOOTH",
"393 512 OFFCURVE",
"381 524 OFFCURVE",
"366 524 CURVE SMOOTH",
"354 524 LINE SMOOTH",
"339 524 OFFCURVE",
"327 512 OFFCURVE",
"327 497 CURVE SMOOTH",
"327 433 LINE",
"305 433 LINE",
"305 673 LINE SMOOTH",
"305 688 OFFCURVE",
"293 700 OFFCURVE",
"278 700 CURVE SMOOTH",
"82 700 LINE SMOOTH",
"67 700 OFFCURVE",
"55 688 OFFCURVE",
"55 673 CURVE SMOOTH",
"55 27 LINE SMOOTH",
"55 11 OFFCURVE",
"67 0 OFFCURVE",
"82 0 CURVE SMOOTH"
);
}
);
width = 833;
}
);
rightMetricsKey = "Ka-cy";
unicode = 049C;
},
{
color = 6;
glyphname = "Kabashkir-cy";
layers = (
{
layerId = "EC64484B-0978-4CB1-9EE9-C40A2D8C4059";
paths = (
{
closed = 1;
nodes = (
"698 365 LINE",
"878 667 LINE",
"880 670 OFFCURVE",
"881 674 OFFCURVE",
"881 678 CURVE SMOOTH",
"881 690 OFFCURVE",
"871 700 OFFCURVE",
"859 700 CURVE SMOOTH",
"638 700 LINE SMOOTH",
"616 700 OFFCURVE",
"604 689 OFFCURVE",
"598 678 CURVE SMOOTH",
"476 463 LINE",
"460 463 LINE",
"460 673 LINE SMOOTH",
"460 688 OFFCURVE",
"448 700 OFFCURVE",
"433 700 CURVE SMOOTH",
"44 700 LINE SMOOTH",
"29 700 OFFCURVE",
"17 688 OFFCURVE",
"17 673 CURVE SMOOTH",
"17 512 LINE SMOOTH",
"17 497 OFFCURVE",
"29 485 OFFCURVE",
"44 485 CURVE SMOOTH",
"210 485 LINE",
"210 27 LINE SMOOTH",
"210 11 OFFCURVE",
"222 0 OFFCURVE",
"237 0 CURVE SMOOTH",
"433 0 LINE SMOOTH",
"448 0 OFFCURVE",
"460 12 OFFCURVE",
"460 27 CURVE SMOOTH",
"460 243 LINE",
"484 243 LINE",
"607 23 LINE",
"611 17 OFFCURVE",
"621 0 OFFCURVE",
"648 0 CURVE SMOOTH",
"876 0 LINE SMOOTH",
"888 0 OFFCURVE",
"898 10 OFFCURVE",
"898 22 CURVE SMOOTH",
"898 25 OFFCURVE",
"897 30 OFFCURVE",
"895 33 CURVE"
);
}
);
width = 908;
}
);
leftMetricsKey = "Te-cy";
rightMetricsKey = "Ka-cy";
unicode = 04A0;
},
{
color = 6;
glyphname = "Enghe-cy";
layers = (
{
layerId = "EC64484B-0978-4CB1-9EE9-C40A2D8C4059";
paths = (
{
closed = 1;
nodes = (
"494 700 LINE SMOOTH",
"479 700 OFFCURVE",
"467 688 OFFCURVE",
"467 673 CURVE SMOOTH",
"467 463 LINE",
"305 463 LINE",
"305 673 LINE SMOOTH",
"305 688 OFFCURVE",
"293 700 OFFCURVE",
"278 700 CURVE SMOOTH",
"82 700 LINE SMOOTH",
"67 700 OFFCURVE",
"55 688 OFFCURVE",
"55 673 CURVE SMOOTH",
"55 27 LINE SMOOTH",
"55 11 OFFCURVE",
"67 0 OFFCURVE",
"82 0 CURVE SMOOTH",
"278 0 LINE SMOOTH",
"293 0 OFFCURVE",
"305 12 OFFCURVE",
"305 27 CURVE SMOOTH",
"305 243 LINE",
"467 243 LINE",
"467 27 LINE SMOOTH",
"467 12 OFFCURVE",
"479 0 OFFCURVE",
"494 0 CURVE SMOOTH",
"690 0 LINE SMOOTH",
"705 0 OFFCURVE",
"717 12 OFFCURVE",
"717 27 CURVE SMOOTH",
"717 495 LINE",
"914 495 LINE SMOOTH",
"929 495 OFFCURVE",
"941 507 OFFCURVE",
"941 522 CURVE SMOOTH",
"941 673 LINE SMOOTH",
"941 688 OFFCURVE",
"929 700 OFFCURVE",
"914 700 CURVE SMOOTH"
);
}
);
width = 961;
}
);
leftMetricsKey = "En-cy";
rightMetricsKey = "Ge-cy";
unicode = 04A4;
},
{
color = 3;
glyphname = "Esdescender-cy";
layers = (
{
components = (
{
name = "Es-cy";
}
);
layerId = "EC64484B-0978-4CB1-9EE9-C40A2D8C4059";
paths = (
{
closed = 1;
nodes = (
"471 -140 LINE SMOOTH",
"486 -140 OFFCURVE",
"498 -128 OFFCURVE",
"498 -113 CURVE SMOOTH",
"498 63 LINE",
"248 60 LINE",
"248 -113 LINE SMOOTH",
"248 -128 OFFCURVE",
"260 -140 OFFCURVE",
"275 -140 CURVE SMOOTH"
);
}
);
width = 733;
}
);
unicode = 04AA;
},
